M48
INCH,TZ
VER,1
FMAT,2
DETECT,ON
ATC,ON
T1C0.0236
T2C0.0550
T3C0.0350
T4C0.0392
T5C0.1183
T6C0.0354
T7C0.2362
%
T1
X66800Y25300
X57500Y28700
X67000Y10700
X57700Y14100
X67000Y-4700
X57700Y-1300
X67200Y-20100
X57900Y-16700
T2
X37600Y18124
Y23400
X44200Y18124
Y23400
X10400Y21200
X5124
X74000Y29800
X79276
X37600Y30800
Y25524
X44200Y30800
Y25524
X37800Y3524
Y8800
X44400Y3524
Y8800
X5324Y6600
X10600
X37800Y10924
Y16200
X44400Y10924
Y16200
X74200Y15200
X79476
X37800Y-11876
Y-6600
X44400Y-11876
Y-6600
X5324Y-8800
X10600
X37800Y-4476
Y800
X44400Y-4476
Y800
X74200Y-200
X79476
X38000Y-27276
Y-22000
X44600Y-27276
Y-22000
X5524Y-24200
X10800
X38000Y-19876
Y-14600
X44600Y-19876
Y-14600
X74400Y-15600
X79676
T3
X31600Y22000
X30600Y23000
Y21000
X51000Y22800
X50000Y21800
X52000
X41200Y23400
X12200Y27342
Y28683
X13183Y28008
X12200Y26000
X13183Y26675
X72200Y25317
X71217Y25992
X72200Y28000
X71217Y27325
X72200Y26658
X30400Y28800
X29400Y27800
X31400
X51200Y29400
X52200Y28400
X50200
X31800Y7400
X30800Y8400
Y6400
X51200Y8200
X50200Y7200
X52200
X41400Y8800
X8200Y9600
X12400Y12742
Y14083
X13383Y13408
X12400Y11400
X13383Y12075
X72400Y10717
X71417Y11392
X72400Y13400
X71417Y12725
X72400Y12058
X30600Y14200
X29600Y13200
X31600
X50400Y13800
X51400Y14800
X52400Y13800
X3800Y13400
X31800Y-8000
X30800Y-7000
Y-9000
X51200Y-7200
X50200Y-8200
X52200
X41400Y-6600
X8200Y-5800
X12400Y-2658
Y-1317
X13383Y-1992
X12400Y-4000
X13383Y-3325
X72400Y-4683
X71417Y-4008
X72400Y-2000
X71417Y-2675
X72400Y-3342
X30600Y-1200
X29600Y-2200
X31600
X50400Y-1600
X51400Y-600
X52400Y-1600
X3800Y-2000
X32000Y-23400
X31000Y-22400
Y-24400
X51400Y-22600
X50400Y-23600
X52400
X12600Y-18058
Y-16717
X13583Y-17392
X12600Y-19400
X13583Y-18725
X72600Y-20083
X71617Y-19408
X72600Y-17400
X71617Y-18075
X72600Y-18742
X30800Y-16600
X29800Y-17600
X31800
X50600Y-17000
X51600Y-16000
X52600Y-17000
X41600Y-22000
X4000Y-17400
X8400Y-21200
X77400Y-21800
X80800Y-19400
X77200Y-6400
X80600Y-4000
Y11400
X77200Y9000
X3600Y28000
X8000Y24200
X77000Y23600
X80400Y26000
X4000Y-18600
X3800Y-3200
Y12200
X3600Y26800
T4
X40200Y23400
X40400Y8800
X7200Y9600
X3800Y14400
X40400Y-6600
X7200Y-5800
X3800Y-1000
X40600Y-22000
X4000Y-16400
X7400Y-21200
X76400Y-21800
X80800Y-18400
X76200Y-6400
X80600Y-3000
Y12400
X76200Y9000
X3600Y29000
X7000Y24200
X76000Y23600
X80400Y27000
X4000Y-19600
X3800Y-4200
Y11200
X3600Y25800
T5
X6292Y27342
X78108Y26658
X6492Y12742
X78308Y12058
X6492Y-2658
X78308Y-3342
X6692Y-18058
X78508Y-18742
T6
X67918Y31200
X62800
X26918Y21200
X21800
X60118Y21800
X55000
X20518Y22400
X15400
X20518Y24800
X15400
X60318Y26800
X55200
X27918Y29000
X22800
X67718Y28800
X62600
X27118Y6600
X22000
X60318Y7200
X55200
X20718Y7800
X15600
X20718Y10200
X15600
X60518Y12200
X55400
X67918Y14200
X62800
X28118Y14400
X23000
X68118Y16600
X63000
X27118Y-8800
X22000
X60318Y-8200
X55200
X20718Y-7600
X15600
X20718Y-5200
X15600
X60518Y-3200
X55400
X67918Y-1200
X62800
X28118Y-1000
X23000
X68118Y1200
X63000
X27318Y-24200
X22200
X60518Y-23600
X55400
X20918Y-23000
X15800
X20918Y-20600
X15800
X60718Y-18600
X55600
X68118Y-16600
X63000
X28318Y-16400
X23200
X68318Y-14200
X63200
T7
X83200Y30800
Y-25900
X1300
Y30800
M30
