999
DXF created by UltiBoard 14.2.0.0
0
SECTION
2
HEADER
9
$ACADVER
1
AC1014
9
$EXTMIN
10
-713.750000
20
-3463.749921
30
0.0
9
$EXTMAX
10
9153.749921
20
3841.250079
30
0.0
9
$LUNITS
70
2
9
$HANDSEED
5
243
0
ENDSEC
0
SECTION
2
TABLES
0
TABLE
2
VPORT
5
1
100
AcDbSymbolTable
70
1
0
VPORT
5
2
100
AcDbSymbolTableRecord
100
AcDbViewportTableRecord
2
*ACTIVE
70
0
0
ENDTAB
0
TABLE
2
LTYPE
5
3
100
AcDbSymbolTable
70
1
0
LTYPE
5
4
100
AcDbSymbolTableRecord
100
AcDbLinetypeTableRecord
2
BYBLOCK
70
0
3

72
65
73
0
40
0.0
0
LTYPE
5
5
100
AcDbSymbolTableRecord
100
AcDbLinetypeTableRecord
2
BYLAYER
70
0
3

72
65
73
0
40
0.0
0
LTYPE
5
6
100
AcDbSymbolTableRecord
100
AcDbLinetypeTableRecord
2
CONTINUOUS
70
0
3
Solid line
72
65
73
0
40
0.0
0
ENDTAB
0
TABLE
2
LAYER
5
7
100
AcDbSymbolTable
70
3
0
LAYER
5
8
100
AcDbSymbolTableRecord
100
AcDbLayerTableRecord
2
0
70
0
62
7
6
CONTINUOUS
0
LAYER
5
9
100
AcDbSymbolTableRecord
100
AcDbLayerTableRecord
2
BOARD_OUTLINE
70
0
62
2
6
CONTINUOUS
0
LAYER
5
A
100
AcDbSymbolTableRecord
100
AcDbLayerTableRecord
2
DRILL
70
0
62
255
6
CONTINUOUS
0
ENDTAB
0
TABLE
2
STYLE
5
B
100
AcDbSymbolTable
70
2
0
STYLE
5
C
100
AcDbSymbolTableRecord
100
AcDbTextStyleTableRecord
2
MONOTxtStyle
70
0
40
0.0
41
1.0
50
0.0
71
0
42
0.2
3
monotxt
4

0
ENDTAB
0
TABLE
2
VIEW
5
D
100
AcDbSymbolTable
70
0
0
ENDTAB
0
TABLE
2
UCS
5
E
100
AcDbSymbolTable
70
0
0
ENDTAB
0
TABLE
2
APPID
5
F
100
AcDbSymbolTable
70
1
0
APPID
5
10
100
AcDbSymbolTableRecord
100
AcDbRegAppTableRecord
2
ACAD
70
0
0
ENDTAB
0
TABLE
2
DIMSTYLE
5
11
100
AcDbSymbolTable
70
1
0
DIMSTYLE
105
12
100
AcDbSymbolTableRecord
100
AcDbDimStyleTableRecord
2
STANDARD
70
0
0
ENDTAB
0
TABLE
2
BLOCK_RECORD
5
13
100
AcDbSymbolTable
70
0
0
BLOCK_RECORD
5
14
100
AcDbSymbolTableRecord
100
AcDbBlockTableRecord
2
*MODEL_SPACE
0
BLOCK_RECORD
5
15
100
AcDbSymbolTableRecord
100
AcDbBlockTableRecord
2
*PAPER_SPACE
0
ENDTAB
0
ENDSEC
0
SECTION
2
BLOCKS
0
BLOCK
5
16
100
AcDbEntity
8
0
100
AcDbBlockBegin
2
*MODEL_SPACE
70
0
0
ENDBLK
5
17
100
AcDbEntity
8
0
100
AcDbBlockEnd
0
BLOCK
5
18
100
AcDbEntity
8
0
100
AcDbBlockBegin
2
*PAPER_SPACE
70
0
0
ENDBLK
5
19
100
AcDbEntity
8
0
100
AcDbBlockEnd
0
ENDSEC
0
SECTION
2
ENTITIES
0
HATCH
5
1A
100
AcDbEntity
8
BOARD_OUTLINE
62
255
100
AcDbHatch
10
0.0
20
0.0
30
0.0
210
0.0
220
0.0
230
1.0
2
SOLID
70
1
71
0
91
1
92
1
93
1
72
2
10
8320.000000
20
3080.000000
40
118.110236
50
0.000000
51
360.000000
73
1
97
0
75
0
76
0
98
1
10
0.0
20
0.0
0
CIRCLE
5
1B
100
AcDbEntity
8
BOARD_OUTLINE
62
255
100
AcDbCircle
39
0.000039
10
8320.000000
20
3080.000000
30
0
40
118.110236
0
HATCH
5
1C
100
AcDbEntity
8
BOARD_OUTLINE
62
255
100
AcDbHatch
10
0.0
20
0.0
30
0.0
210
0.0
220
0.0
230
1.0
2
SOLID
70
1
71
0
91
1
92
1
93
1
72
2
10
8320.000000
20
-2590.000000
40
118.110236
50
0.000000
51
360.000000
73
1
97
0
75
0
76
0
98
1
10
0.0
20
0.0
0
CIRCLE
5
1D
100
AcDbEntity
8
BOARD_OUTLINE
62
255
100
AcDbCircle
39
0.000039
10
8320.000000
20
-2590.000000
30
0
40
118.110236
0
HATCH
5
1E
100
AcDbEntity
8
BOARD_OUTLINE
62
255
100
AcDbHatch
10
0.0
20
0.0
30
0.0
210
0.0
220
0.0
230
1.0
2
SOLID
70
1
71
0
91
1
92
1
93
1
72
2
10
130.000000
20
-2590.000000
40
118.110236
50
0.000000
51
360.000000
73
1
97
0
75
0
76
0
98
1
10
0.0
20
0.0
0
CIRCLE
5
1F
100
AcDbEntity
8
BOARD_OUTLINE
62
255
100
AcDbCircle
39
0.000039
10
130.000000
20
-2590.000000
30
0
40
118.110236
0
HATCH
5
20
100
AcDbEntity
8
BOARD_OUTLINE
62
255
100
AcDbHatch
10
0.0
20
0.0
30
0.0
210
0.0
220
0.0
230
1.0
2
SOLID
70
1
71
0
91
1
92
1
93
1
72
2
10
130.000000
20
3080.000000
40
118.110236
50
0.000000
51
360.000000
73
1
97
0
75
0
76
0
98
1
10
0.0
20
0.0
0
CIRCLE
5
21
100
AcDbEntity
8
BOARD_OUTLINE
62
255
100
AcDbCircle
39
0.000039
10
130.000000
20
3080.000000
30
0
40
118.110236
0
LWPOLYLINE
5
22
100
AcDbEntity
8
BOARD_OUTLINE
62
2
100
AcDbPolyline
90
2
70
0
43
0.000039
39
0.000039
10
-90.000000
20
-2840.000000
10
8530.000000
20
-2840.000000
0
LWPOLYLINE
5
23
100
AcDbEntity
8
BOARD_OUTLINE
62
2
100
AcDbPolyline
90
2
70
0
43
0.000039
39
0.000039
10
8530.000000
20
-2840.000000
10
8530.000000
20
3210.000000
0
LWPOLYLINE
5
24
100
AcDbEntity
8
BOARD_OUTLINE
62
2
100
AcDbPolyline
90
2
70
0
43
0.000039
39
0.000039
10
8530.000000
20
3210.000000
10
-90.000000
20
3210.000000
0
LWPOLYLINE
5
25
100
AcDbEntity
8
BOARD_OUTLINE
62
2
100
AcDbPolyline
90
2
70
0
43
0.000039
39
0.000039
10
-90.000000
20
3210.000000
10
-90.000000
20
-2840.000000
0
HATCH
5
26
100
AcDbEntity
8
DRILL
62
255
100
AcDbHatch
10
0.0
20
0.0
30
0.0
210
0.0
220
0.0
230
1.0
2
SOLID
70
1
71
0
91
1
92
1
93
1
72
2
10
6680.000000
20
2530.000000
40
11.811024
50
0.000000
51
360.000000
73
1
97
0
75
0
76
0
98
1
10
0.0
20
0.0
0
CIRCLE
5
27
100
AcDbEntity
8
DRILL
62
255
100
AcDbCircle
39
0.000039
10
6680.000000
20
2530.000000
30
0
40
11.811024
0
HATCH
5
28
100
AcDbEntity
8
DRILL
62
255
100
AcDbHatch
10
0.0
20
0.0
30
0.0
210
0.0
220
0.0
230
1.0
2
SOLID
70
1
71
0
91
1
92
1
93
1
72
2
10
5750.000000
20
2870.000000
40
11.811024
50
0.000000
51
360.000000
73
1
97
0
75
0
76
0
98
1
10
0.0
20
0.0
0
CIRCLE
5
29
100
AcDbEntity
8
DRILL
62
255
100
AcDbCircle
39
0.000039
10
5750.000000
20
2870.000000
30
0
40
11.811024
0
HATCH
5
2A
100
AcDbEntity
8
DRILL
62
255
100
AcDbHatch
10
0.0
20
0.0
30
0.0
210
0.0
220
0.0
230
1.0
2
SOLID
70
1
71
0
91
1
92
1
93
1
72
2
10
3760.000000
20
1812.440945
40
27.500000
50
0.000000
51
360.000000
73
1
97
0
75
0
76
0
98
1
10
0.0
20
0.0
0
CIRCLE
5
2B
100
AcDbEntity
8
DRILL
62
255
100
AcDbCircle
39
0.000039
10
3760.000000
20
1812.440945
30
0
40
27.500000
0
HATCH
5
2C
100
AcDbEntity
8
DRILL
62
255
100
AcDbHatch
10
0.0
20
0.0
30
0.0
210
0.0
220
0.0
230
1.0
2
SOLID
70
1
71
0
91
1
92
1
93
1
72
2
10
3760.000000
20
2340.000000
40
27.500000
50
0.000000
51
360.000000
73
1
97
0
75
0
76
0
98
1
10
0.0
20
0.0
0
CIRCLE
5
2D
100
AcDbEntity
8
DRILL
62
255
100
AcDbCircle
39
0.000039
10
3760.000000
20
2340.000000
30
0
40
27.500000
0
HATCH
5
2E
100
AcDbEntity
8
DRILL
62
255
100
AcDbHatch
10
0.0
20
0.0
30
0.0
210
0.0
220
0.0
230
1.0
2
SOLID
70
1
71
0
91
1
92
1
93
1
72
2
10
4420.000000
20
1812.440945
40
27.500000
50
0.000000
51
360.000000
73
1
97
0
75
0
76
0
98
1
10
0.0
20
0.0
0
CIRCLE
5
2F
100
AcDbEntity
8
DRILL
62
255
100
AcDbCircle
39
0.000039
10
4420.000000
20
1812.440945
30
0
40
27.500000
0
HATCH
5
30
100
AcDbEntity
8
DRILL
62
255
100
AcDbHatch
10
0.0
20
0.0
30
0.0
210
0.0
220
0.0
230
1.0
2
SOLID
70
1
71
0
91
1
92
1
93
1
72
2
10
4420.000000
20
2340.000000
40
27.500000
50
0.000000
51
360.000000
73
1
97
0
75
0
76
0
98
1
10
0.0
20
0.0
0
CIRCLE
5
31
100
AcDbEntity
8
DRILL
62
255
100
AcDbCircle
39
0.000039
10
4420.000000
20
2340.000000
30
0
40
27.500000
0
HATCH
5
32
100
AcDbEntity
8
DRILL
62
255
100
AcDbHatch
10
0.0
20
0.0
30
0.0
210
0.0
220
0.0
230
1.0
2
SOLID
70
1
71
0
91
1
92
1
93
1
72
2
10
3160.000000
20
2200.000000
40
17.500000
50
0.000000
51
360.000000
73
1
97
0
75
0
76
0
98
1
10
0.0
20
0.0
0
CIRCLE
5
33
100
AcDbEntity
8
DRILL
62
255
100
AcDbCircle
39
0.000039
10
3160.000000
20
2200.000000
30
0
40
17.500000
0
HATCH
5
34
100
AcDbEntity
8
DRILL
62
255
100
AcDbHatch
10
0.0
20
0.0
30
0.0
210
0.0
220
0.0
230
1.0
2
SOLID
70
1
71
0
91
1
92
1
93
1
72
2
10
3060.000000
20
2300.000000
40
17.500000
50
0.000000
51
360.000000
73
1
97
0
75
0
76
0
98
1
10
0.0
20
0.0
0
CIRCLE
5
35
100
AcDbEntity
8
DRILL
62
255
100
AcDbCircle
39
0.000039
10
3060.000000
20
2300.000000
30
0
40
17.500000
0
HATCH
5
36
100
AcDbEntity
8
DRILL
62
255
100
AcDbHatch
10
0.0
20
0.0
30
0.0
210
0.0
220
0.0
230
1.0
2
SOLID
70
1
71
0
91
1
92
1
93
1
72
2
10
3060.000000
20
2100.000000
40
17.500000
50
0.000000
51
360.000000
73
1
97
0
75
0
76
0
98
1
10
0.0
20
0.0
0
CIRCLE
5
37
100
AcDbEntity
8
DRILL
62
255
100
AcDbCircle
39
0.000039
10
3060.000000
20
2100.000000
30
0
40
17.500000
0
HATCH
5
38
100
AcDbEntity
8
DRILL
62
255
100
AcDbHatch
10
0.0
20
0.0
30
0.0
210
0.0
220
0.0
230
1.0
2
SOLID
70
1
71
0
91
1
92
1
93
1
72
2
10
5100.000000
20
2280.000000
40
17.500000
50
0.000000
51
360.000000
73
1
97
0
75
0
76
0
98
1
10
0.0
20
0.0
0
CIRCLE
5
39
100
AcDbEntity
8
DRILL
62
255
100
AcDbCircle
39
0.000039
10
5100.000000
20
2280.000000
30
0
40
17.500000
0
HATCH
5
3A
100
AcDbEntity
8
DRILL
62
255
100
AcDbHatch
10
0.0
20
0.0
30
0.0
210
0.0
220
0.0
230
1.0
2
SOLID
70
1
71
0
91
1
92
1
93
1
72
2
10
5000.000000
20
2180.000000
40
17.500000
50
0.000000
51
360.000000
73
1
97
0
75
0
76
0
98
1
10
0.0
20
0.0
0
CIRCLE
5
3B
100
AcDbEntity
8
DRILL
62
255
100
AcDbCircle
39
0.000039
10
5000.000000
20
2180.000000
30
0
40
17.500000
0
HATCH
5
3C
100
AcDbEntity
8
DRILL
62
255
100
AcDbHatch
10
0.0
20
0.0
30
0.0
210
0.0
220
0.0
230
1.0
2
SOLID
70
1
71
0
91
1
92
1
93
1
72
2
10
5200.000000
20
2180.000000
40
17.500000
50
0.000000
51
360.000000
73
1
97
0
75
0
76
0
98
1
10
0.0
20
0.0
0
CIRCLE
5
3D
100
AcDbEntity
8
DRILL
62
255
100
AcDbCircle
39
0.000039
10
5200.000000
20
2180.000000
30
0
40
17.500000
0
HATCH
5
3E
100
AcDbEntity
8
DRILL
62
255
100
AcDbHatch
10
0.0
20
0.0
30
0.0
210
0.0
220
0.0
230
1.0
2
SOLID
70
1
71
0
91
1
92
1
93
1
72
2
10
1040.000000
20
2120.000000
40
27.500000
50
0.000000
51
360.000000
73
1
97
0
75
0
76
0
98
1
10
0.0
20
0.0
0
CIRCLE
5
3F
100
AcDbEntity
8
DRILL
62
255
100
AcDbCircle
39
0.000039
10
1040.000000
20
2120.000000
30
0
40
27.500000
0
HATCH
5
40
100
AcDbEntity
8
DRILL
62
255
100
AcDbHatch
10
0.0
20
0.0
30
0.0
210
0.0
220
0.0
230
1.0
2
SOLID
70
1
71
0
91
1
92
1
93
1
72
2
10
512.440945
20
2120.000000
40
27.500000
50
0.000000
51
360.000000
73
1
97
0
75
0
76
0
98
1
10
0.0
20
0.0
0
CIRCLE
5
41
100
AcDbEntity
8
DRILL
62
255
100
AcDbCircle
39
0.000039
10
512.440945
20
2120.000000
30
0
40
27.500000
0
HATCH
5
42
100
AcDbEntity
8
DRILL
62
255
100
AcDbHatch
10
0.0
20
0.0
30
0.0
210
0.0
220
0.0
230
1.0
2
SOLID
70
1
71
0
91
1
92
1
93
1
72
2
10
4020.000000
20
2340.000000
40
19.585000
50
0.000000
51
360.000000
73
1
97
0
75
0
76
0
98
1
10
0.0
20
0.0
0
CIRCLE
5
43
100
AcDbEntity
8
DRILL
62
255
100
AcDbCircle
39
0.000039
10
4020.000000
20
2340.000000
30
0
40
19.585000
0
HATCH
5
44
100
AcDbEntity
8
DRILL
62
255
100
AcDbHatch
10
0.0
20
0.0
30
0.0
210
0.0
220
0.0
230
1.0
2
SOLID
70
1
71
0
91
1
92
1
93
1
72
2
10
4120.000000
20
2340.000000
40
17.500000
50
0.000000
51
360.000000
73
1
97
0
75
0
76
0
98
1
10
0.0
20
0.0
0
CIRCLE
5
45
100
AcDbEntity
8
DRILL
62
255
100
AcDbCircle
39
0.000039
10
4120.000000
20
2340.000000
30
0
40
17.500000
0
HATCH
5
46
100
AcDbEntity
8
DRILL
62
255
100
AcDbHatch
10
0.0
20
0.0
30
0.0
210
0.0
220
0.0
230
1.0
2
SOLID
70
1
71
0
91
1
92
1
93
1
72
2
10
1220.000039
20
2734.166614
40
17.500000
50
0.000000
51
360.000000
73
1
97
0
75
0
76
0
98
1
10
0.0
20
0.0
0
CIRCLE
5
47
100
AcDbEntity
8
DRILL
62
255
100
AcDbCircle
39
0.000039
10
1220.000039
20
2734.166614
30
0
40
17.500000
0
HATCH
5
48
100
AcDbEntity
8
DRILL
62
255
100
AcDbHatch
10
0.0
20
0.0
30
0.0
210
0.0
220
0.0
230
1.0
2
SOLID
70
1
71
0
91
1
92
1
93
1
72
2
10
1220.000039
20
2868.333268
40
17.500000
50
0.000000
51
360.000000
73
1
97
0
75
0
76
0
98
1
10
0.0
20
0.0
0
CIRCLE
5
49
100
AcDbEntity
8
DRILL
62
255
100
AcDbCircle
39
0.000039
10
1220.000039
20
2868.333268
30
0
40
17.500000
0
HATCH
5
4A
100
AcDbEntity
8
DRILL
62
255
100
AcDbHatch
10
0.0
20
0.0
30
0.0
210
0.0
220
0.0
230
1.0
2
SOLID
70
1
71
0
91
1
92
1
93
1
72
2
10
1318.333346
20
2800.833268
40
17.500000
50
0.000000
51
360.000000
73
1
97
0
75
0
76
0
98
1
10
0.0
20
0.0
0
CIRCLE
5
4B
100
AcDbEntity
8
DRILL
62
255
100
AcDbCircle
39
0.000039
10
1318.333346
20
2800.833268
30
0
40
17.500000
0
HATCH
5
4C
100
AcDbEntity
8
DRILL
62
255
100
AcDbHatch
10
0.0
20
0.0
30
0.0
210
0.0
220
0.0
230
1.0
2
SOLID
70
1
71
0
91
1
92
1
93
1
72
2
10
1220.000039
20
2599.999961
40
17.500000
50
0.000000
51
360.000000
73
1
97
0
75
0
76
0
98
1
10
0.0
20
0.0
0
CIRCLE
5
4D
100
AcDbEntity
8
DRILL
62
255
100
AcDbCircle
39
0.000039
10
1220.000039
20
2599.999961
30
0
40
17.500000
0
HATCH
5
4E
100
AcDbEntity
8
DRILL
62
255
100
AcDbHatch
10
0.0
20
0.0
30
0.0
210
0.0
220
0.0
230
1.0
2
SOLID
70
1
71
0
91
1
92
1
93
1
72
2
10
1318.333346
20
2667.499961
40
17.500000
50
0.000000
51
360.000000
73
1
97
0
75
0
76
0
98
1
10
0.0
20
0.0
0
CIRCLE
5
4F
100
AcDbEntity
8
DRILL
62
255
100
AcDbCircle
39
0.000039
10
1318.333346
20
2667.499961
30
0
40
17.500000
0
HATCH
5
50
100
AcDbEntity
8
DRILL
62
255
100
AcDbHatch
10
0.0
20
0.0
30
0.0
210
0.0
220
0.0
230
1.0
2
SOLID
70
1
71
0
91
1
92
1
93
1
72
2
10
629.166693
20
2734.166614
40
59.165000
50
0.000000
51
360.000000
73
1
97
0
75
0
76
0
98
1
10
0.0
20
0.0
0
CIRCLE
5
51
100
AcDbEntity
8
DRILL
62
255
100
AcDbCircle
39
0.000039
10
629.166693
20
2734.166614
30
0
40
59.165000
0
HATCH
5
52
100
AcDbEntity
8
DRILL
62
255
100
AcDbHatch
10
0.0
20
0.0
30
0.0
210
0.0
220
0.0
230
1.0
2
SOLID
70
1
71
0
91
1
92
1
93
1
72
2
10
7219.999961
20
2531.666732
40
17.500000
50
0.000000
51
360.000000
73
1
97
0
75
0
76
0
98
1
10
0.0
20
0.0
0
CIRCLE
5
53
100
AcDbEntity
8
DRILL
62
255
100
AcDbCircle
39
0.000039
10
7219.999961
20
2531.666732
30
0
40
17.500000
0
HATCH
5
54
100
AcDbEntity
8
DRILL
62
255
100
AcDbHatch
10
0.0
20
0.0
30
0.0
210
0.0
220
0.0
230
1.0
2
SOLID
70
1
71
0
91
1
92
1
93
1
72
2
10
7121.666654
20
2599.166732
40
17.500000
50
0.000000
51
360.000000
73
1
97
0
75
0
76
0
98
1
10
0.0
20
0.0
0
CIRCLE
5
55
100
AcDbEntity
8
DRILL
62
255
100
AcDbCircle
39
0.000039
10
7121.666654
20
2599.166732
30
0
40
17.500000
0
HATCH
5
56
100
AcDbEntity
8
DRILL
62
255
100
AcDbHatch
10
0.0
20
0.0
30
0.0
210
0.0
220
0.0
230
1.0
2
SOLID
70
1
71
0
91
1
92
1
93
1
72
2
10
7219.999961
20
2800.000039
40
17.500000
50
0.000000
51
360.000000
73
1
97
0
75
0
76
0
98
1
10
0.0
20
0.0
0
CIRCLE
5
57
100
AcDbEntity
8
DRILL
62
255
100
AcDbCircle
39
0.000039
10
7219.999961
20
2800.000039
30
0
40
17.500000
0
HATCH
5
58
100
AcDbEntity
8
DRILL
62
255
100
AcDbHatch
10
0.0
20
0.0
30
0.0
210
0.0
220
0.0
230
1.0
2
SOLID
70
1
71
0
91
1
92
1
93
1
72
2
10
7121.666654
20
2732.500039
40
17.500000
50
0.000000
51
360.000000
73
1
97
0
75
0
76
0
98
1
10
0.0
20
0.0
0
CIRCLE
5
59
100
AcDbEntity
8
DRILL
62
255
100
AcDbCircle
39
0.000039
10
7121.666654
20
2732.500039
30
0
40
17.500000
0
HATCH
5
5A
100
AcDbEntity
8
DRILL
62
255
100
AcDbHatch
10
0.0
20
0.0
30
0.0
210
0.0
220
0.0
230
1.0
2
SOLID
70
1
71
0
91
1
92
1
93
1
72
2
10
7219.999961
20
2665.833386
40
17.500000
50
0.000000
51
360.000000
73
1
97
0
75
0
76
0
98
1
10
0.0
20
0.0
0
CIRCLE
5
5B
100
AcDbEntity
8
DRILL
62
255
100
AcDbCircle
39
0.000039
10
7219.999961
20
2665.833386
30
0
40
17.500000
0
HATCH
5
5C
100
AcDbEntity
8
DRILL
62
255
100
AcDbHatch
10
0.0
20
0.0
30
0.0
210
0.0
220
0.0
230
1.0
2
SOLID
70
1
71
0
91
1
92
1
93
1
72
2
10
7810.833307
20
2665.833386
40
59.165000
50
0.000000
51
360.000000
73
1
97
0
75
0
76
0
98
1
10
0.0
20
0.0
0
CIRCLE
5
5D
100
AcDbEntity
8
DRILL
62
255
100
AcDbCircle
39
0.000039
10
7810.833307
20
2665.833386
30
0
40
59.165000
0
HATCH
5
5E
100
AcDbEntity
8
DRILL
62
255
100
AcDbHatch
10
0.0
20
0.0
30
0.0
210
0.0
220
0.0
230
1.0
2
SOLID
70
1
71
0
91
1
92
1
93
1
72
2
10
7400.000000
20
2980.000000
40
27.500000
50
0.000000
51
360.000000
73
1
97
0
75
0
76
0
98
1
10
0.0
20
0.0
0
CIRCLE
5
5F
100
AcDbEntity
8
DRILL
62
255
100
AcDbCircle
39
0.000039
10
7400.000000
20
2980.000000
30
0
40
27.500000
0
HATCH
5
60
100
AcDbEntity
8
DRILL
62
255
100
AcDbHatch
10
0.0
20
0.0
30
0.0
210
0.0
220
0.0
230
1.0
2
SOLID
70
1
71
0
91
1
92
1
93
1
72
2
10
7927.559055
20
2980.000000
40
27.500000
50
0.000000
51
360.000000
73
1
97
0
75
0
76
0
98
1
10
0.0
20
0.0
0
CIRCLE
5
61
100
AcDbEntity
8
DRILL
62
255
100
AcDbCircle
39
0.000039
10
7927.559055
20
2980.000000
30
0
40
27.500000
0
HATCH
5
62
100
AcDbEntity
8
DRILL
62
255
100
AcDbHatch
10
0.0
20
0.0
30
0.0
210
0.0
220
0.0
230
1.0
2
SOLID
70
1
71
0
91
1
92
1
93
1
72
2
10
3760.000000
20
3080.000000
40
27.500000
50
0.000000
51
360.000000
73
1
97
0
75
0
76
0
98
1
10
0.0
20
0.0
0
CIRCLE
5
63
100
AcDbEntity
8
DRILL
62
255
100
AcDbCircle
39
0.000039
10
3760.000000
20
3080.000000
30
0
40
27.500000
0
HATCH
5
64
100
AcDbEntity
8
DRILL
62
255
100
AcDbHatch
10
0.0
20
0.0
30
0.0
210
0.0
220
0.0
230
1.0
2
SOLID
70
1
71
0
91
1
92
1
93
1
72
2
10
3760.000000
20
2552.440945
40
27.500000
50
0.000000
51
360.000000
73
1
97
0
75
0
76
0
98
1
10
0.0
20
0.0
0
CIRCLE
5
65
100
AcDbEntity
8
DRILL
62
255
100
AcDbCircle
39
0.000039
10
3760.000000
20
2552.440945
30
0
40
27.500000
0
HATCH
5
66
100
AcDbEntity
8
DRILL
62
255
100
AcDbHatch
10
0.0
20
0.0
30
0.0
210
0.0
220
0.0
230
1.0
2
SOLID
70
1
71
0
91
1
92
1
93
1
72
2
10
4420.000000
20
3080.000000
40
27.500000
50
0.000000
51
360.000000
73
1
97
0
75
0
76
0
98
1
10
0.0
20
0.0
0
CIRCLE
5
67
100
AcDbEntity
8
DRILL
62
255
100
AcDbCircle
39
0.000039
10
4420.000000
20
3080.000000
30
0
40
27.500000
0
HATCH
5
68
100
AcDbEntity
8
DRILL
62
255
100
AcDbHatch
10
0.0
20
0.0
30
0.0
210
0.0
220
0.0
230
1.0
2
SOLID
70
1
71
0
91
1
92
1
93
1
72
2
10
4420.000000
20
2552.440945
40
27.500000
50
0.000000
51
360.000000
73
1
97
0
75
0
76
0
98
1
10
0.0
20
0.0
0
CIRCLE
5
69
100
AcDbEntity
8
DRILL
62
255
100
AcDbCircle
39
0.000039
10
4420.000000
20
2552.440945
30
0
40
27.500000
0
HATCH
5
6A
100
AcDbEntity
8
DRILL
62
255
100
AcDbHatch
10
0.0
20
0.0
30
0.0
210
0.0
220
0.0
230
1.0
2
SOLID
70
1
71
0
91
1
92
1
93
1
72
2
10
3040.000000
20
2880.000000
40
17.500000
50
0.000000
51
360.000000
73
1
97
0
75
0
76
0
98
1
10
0.0
20
0.0
0
CIRCLE
5
6B
100
AcDbEntity
8
DRILL
62
255
100
AcDbCircle
39
0.000039
10
3040.000000
20
2880.000000
30
0
40
17.500000
0
HATCH
5
6C
100
AcDbEntity
8
DRILL
62
255
100
AcDbHatch
10
0.0
20
0.0
30
0.0
210
0.0
220
0.0
230
1.0
2
SOLID
70
1
71
0
91
1
92
1
93
1
72
2
10
2940.000000
20
2780.000000
40
17.500000
50
0.000000
51
360.000000
73
1
97
0
75
0
76
0
98
1
10
0.0
20
0.0
0
CIRCLE
5
6D
100
AcDbEntity
8
DRILL
62
255
100
AcDbCircle
39
0.000039
10
2940.000000
20
2780.000000
30
0
40
17.500000
0
HATCH
5
6E
100
AcDbEntity
8
DRILL
62
255
100
AcDbHatch
10
0.0
20
0.0
30
0.0
210
0.0
220
0.0
230
1.0
2
SOLID
70
1
71
0
91
1
92
1
93
1
72
2
10
3140.000000
20
2780.000000
40
17.500000
50
0.000000
51
360.000000
73
1
97
0
75
0
76
0
98
1
10
0.0
20
0.0
0
CIRCLE
5
6F
100
AcDbEntity
8
DRILL
62
255
100
AcDbCircle
39
0.000039
10
3140.000000
20
2780.000000
30
0
40
17.500000
0
HATCH
5
70
100
AcDbEntity
8
DRILL
62
255
100
AcDbHatch
10
0.0
20
0.0
30
0.0
210
0.0
220
0.0
230
1.0
2
SOLID
70
1
71
0
91
1
92
1
93
1
72
2
10
5120.000000
20
2940.000000
40
17.500000
50
0.000000
51
360.000000
73
1
97
0
75
0
76
0
98
1
10
0.0
20
0.0
0
CIRCLE
5
71
100
AcDbEntity
8
DRILL
62
255
100
AcDbCircle
39
0.000039
10
5120.000000
20
2940.000000
30
0
40
17.500000
0
HATCH
5
72
100
AcDbEntity
8
DRILL
62
255
100
AcDbHatch
10
0.0
20
0.0
30
0.0
210
0.0
220
0.0
230
1.0
2
SOLID
70
1
71
0
91
1
92
1
93
1
72
2
10
5220.000000
20
2840.000000
40
17.500000
50
0.000000
51
360.000000
73
1
97
0
75
0
76
0
98
1
10
0.0
20
0.0
0
CIRCLE
5
73
100
AcDbEntity
8
DRILL
62
255
100
AcDbCircle
39
0.000039
10
5220.000000
20
2840.000000
30
0
40
17.500000
0
HATCH
5
74
100
AcDbEntity
8
DRILL
62
255
100
AcDbHatch
10
0.0
20
0.0
30
0.0
210
0.0
220
0.0
230
1.0
2
SOLID
70
1
71
0
91
1
92
1
93
1
72
2
10
5020.000000
20
2840.000000
40
17.500000
50
0.000000
51
360.000000
73
1
97
0
75
0
76
0
98
1
10
0.0
20
0.0
0
CIRCLE
5
75
100
AcDbEntity
8
DRILL
62
255
100
AcDbCircle
39
0.000039
10
5020.000000
20
2840.000000
30
0
40
17.500000
0
HATCH
5
76
100
AcDbEntity
8
DRILL
62
255
100
AcDbHatch
10
0.0
20
0.0
30
0.0
210
0.0
220
0.0
230
1.0
2
SOLID
70
1
71
0
91
1
92
1
93
1
72
2
10
6791.811024
20
3120.000000
40
17.716535
50
0.000000
51
360.000000
73
1
97
0
75
0
76
0
98
1
10
0.0
20
0.0
0
CIRCLE
5
77
100
AcDbEntity
8
DRILL
62
255
100
AcDbCircle
39
0.000039
10
6791.811024
20
3120.000000
30
0
40
17.716535
0
HATCH
5
78
100
AcDbEntity
8
DRILL
62
255
100
AcDbHatch
10
0.0
20
0.0
30
0.0
210
0.0
220
0.0
230
1.0
2
SOLID
70
1
71
0
91
1
92
1
93
1
72
2
10
6280.000000
20
3120.000000
40
17.716535
50
0.000000
51
360.000000
73
1
97
0
75
0
76
0
98
1
10
0.0
20
0.0
0
CIRCLE
5
79
100
AcDbEntity
8
DRILL
62
255
100
AcDbCircle
39
0.000039
10
6280.000000
20
3120.000000
30
0
40
17.716535
0
HATCH
5
7A
100
AcDbEntity
8
DRILL
62
255
100
AcDbHatch
10
0.0
20
0.0
30
0.0
210
0.0
220
0.0
230
1.0
2
SOLID
70
1
71
0
91
1
92
1
93
1
72
2
10
2691.811024
20
2120.000000
40
17.716535
50
0.000000
51
360.000000
73
1
97
0
75
0
76
0
98
1
10
0.0
20
0.0
0
CIRCLE
5
7B
100
AcDbEntity
8
DRILL
62
255
100
AcDbCircle
39
0.000039
10
2691.811024
20
2120.000000
30
0
40
17.716535
0
HATCH
5
7C
100
AcDbEntity
8
DRILL
62
255
100
AcDbHatch
10
0.0
20
0.0
30
0.0
210
0.0
220
0.0
230
1.0
2
SOLID
70
1
71
0
91
1
92
1
93
1
72
2
10
2180.000000
20
2120.000000
40
17.716535
50
0.000000
51
360.000000
73
1
97
0
75
0
76
0
98
1
10
0.0
20
0.0
0
CIRCLE
5
7D
100
AcDbEntity
8
DRILL
62
255
100
AcDbCircle
39
0.000039
10
2180.000000
20
2120.000000
30
0
40
17.716535
0
HATCH
5
7E
100
AcDbEntity
8
DRILL
62
255
100
AcDbHatch
10
0.0
20
0.0
30
0.0
210
0.0
220
0.0
230
1.0
2
SOLID
70
1
71
0
91
1
92
1
93
1
72
2
10
6011.811024
20
2180.000000
40
17.716535
50
0.000000
51
360.000000
73
1
97
0
75
0
76
0
98
1
10
0.0
20
0.0
0
CIRCLE
5
7F
100
AcDbEntity
8
DRILL
62
255
100
AcDbCircle
39
0.000039
10
6011.811024
20
2180.000000
30
0
40
17.716535
0
HATCH
5
80
100
AcDbEntity
8
DRILL
62
255
100
AcDbHatch
10
0.0
20
0.0
30
0.0
210
0.0
220
0.0
230
1.0
2
SOLID
70
1
71
0
91
1
92
1
93
1
72
2
10
5500.000000
20
2180.000000
40
17.716535
50
0.000000
51
360.000000
73
1
97
0
75
0
76
0
98
1
10
0.0
20
0.0
0
CIRCLE
5
81
100
AcDbEntity
8
DRILL
62
255
100
AcDbCircle
39
0.000039
10
5500.000000
20
2180.000000
30
0
40
17.716535
0
HATCH
5
82
100
AcDbEntity
8
DRILL
62
255
100
AcDbHatch
10
0.0
20
0.0
30
0.0
210
0.0
220
0.0
230
1.0
2
SOLID
70
1
71
0
91
1
92
1
93
1
72
2
10
2051.811024
20
2240.000000
40
17.716535
50
0.000000
51
360.000000
73
1
97
0
75
0
76
0
98
1
10
0.0
20
0.0
0
CIRCLE
5
83
100
AcDbEntity
8
DRILL
62
255
100
AcDbCircle
39
0.000039
10
2051.811024
20
2240.000000
30
0
40
17.716535
0
HATCH
5
84
100
AcDbEntity
8
DRILL
62
255
100
AcDbHatch
10
0.0
20
0.0
30
0.0
210
0.0
220
0.0
230
1.0
2
SOLID
70
1
71
0
91
1
92
1
93
1
72
2
10
1540.000000
20
2240.000000
40
17.716535
50
0.000000
51
360.000000
73
1
97
0
75
0
76
0
98
1
10
0.0
20
0.0
0
CIRCLE
5
85
100
AcDbEntity
8
DRILL
62
255
100
AcDbCircle
39
0.000039
10
1540.000000
20
2240.000000
30
0
40
17.716535
0
HATCH
5
86
100
AcDbEntity
8
DRILL
62
255
100
AcDbHatch
10
0.0
20
0.0
30
0.0
210
0.0
220
0.0
230
1.0
2
SOLID
70
1
71
0
91
1
92
1
93
1
72
2
10
2051.811024
20
2480.000000
40
17.716535
50
0.000000
51
360.000000
73
1
97
0
75
0
76
0
98
1
10
0.0
20
0.0
0
CIRCLE
5
87
100
AcDbEntity
8
DRILL
62
255
100
AcDbCircle
39
0.000039
10
2051.811024
20
2480.000000
30
0
40
17.716535
0
HATCH
5
88
100
AcDbEntity
8
DRILL
62
255
100
AcDbHatch
10
0.0
20
0.0
30
0.0
210
0.0
220
0.0
230
1.0
2
SOLID
70
1
71
0
91
1
92
1
93
1
72
2
10
1540.000000
20
2480.000000
40
17.716535
50
0.000000
51
360.000000
73
1
97
0
75
0
76
0
98
1
10
0.0
20
0.0
0
CIRCLE
5
89
100
AcDbEntity
8
DRILL
62
255
100
AcDbCircle
39
0.000039
10
1540.000000
20
2480.000000
30
0
40
17.716535
0
HATCH
5
8A
100
AcDbEntity
8
DRILL
62
255
100
AcDbHatch
10
0.0
20
0.0
30
0.0
210
0.0
220
0.0
230
1.0
2
SOLID
70
1
71
0
91
1
92
1
93
1
72
2
10
6031.811024
20
2680.000000
40
17.716535
50
0.000000
51
360.000000
73
1
97
0
75
0
76
0
98
1
10
0.0
20
0.0
0
CIRCLE
5
8B
100
AcDbEntity
8
DRILL
62
255
100
AcDbCircle
39
0.000039
10
6031.811024
20
2680.000000
30
0
40
17.716535
0
HATCH
5
8C
100
AcDbEntity
8
DRILL
62
255
100
AcDbHatch
10
0.0
20
0.0
30
0.0
210
0.0
220
0.0
230
1.0
2
SOLID
70
1
71
0
91
1
92
1
93
1
72
2
10
5520.000000
20
2680.000000
40
17.716535
50
0.000000
51
360.000000
73
1
97
0
75
0
76
0
98
1
10
0.0
20
0.0
0
CIRCLE
5
8D
100
AcDbEntity
8
DRILL
62
255
100
AcDbCircle
39
0.000039
10
5520.000000
20
2680.000000
30
0
40
17.716535
0
HATCH
5
8E
100
AcDbEntity
8
DRILL
62
255
100
AcDbHatch
10
0.0
20
0.0
30
0.0
210
0.0
220
0.0
230
1.0
2
SOLID
70
1
71
0
91
1
92
1
93
1
72
2
10
2791.811024
20
2900.000000
40
17.716535
50
0.000000
51
360.000000
73
1
97
0
75
0
76
0
98
1
10
0.0
20
0.0
0
CIRCLE
5
8F
100
AcDbEntity
8
DRILL
62
255
100
AcDbCircle
39
0.000039
10
2791.811024
20
2900.000000
30
0
40
17.716535
0
HATCH
5
90
100
AcDbEntity
8
DRILL
62
255
100
AcDbHatch
10
0.0
20
0.0
30
0.0
210
0.0
220
0.0
230
1.0
2
SOLID
70
1
71
0
91
1
92
1
93
1
72
2
10
2280.000000
20
2900.000000
40
17.716535
50
0.000000
51
360.000000
73
1
97
0
75
0
76
0
98
1
10
0.0
20
0.0
0
CIRCLE
5
91
100
AcDbEntity
8
DRILL
62
255
100
AcDbCircle
39
0.000039
10
2280.000000
20
2900.000000
30
0
40
17.716535
0
HATCH
5
92
100
AcDbEntity
8
DRILL
62
255
100
AcDbHatch
10
0.0
20
0.0
30
0.0
210
0.0
220
0.0
230
1.0
2
SOLID
70
1
71
0
91
1
92
1
93
1
72
2
10
6771.811024
20
2880.000000
40
17.716535
50
0.000000
51
360.000000
73
1
97
0
75
0
76
0
98
1
10
0.0
20
0.0
0
CIRCLE
5
93
100
AcDbEntity
8
DRILL
62
255
100
AcDbCircle
39
0.000039
10
6771.811024
20
2880.000000
30
0
40
17.716535
0
HATCH
5
94
100
AcDbEntity
8
DRILL
62
255
100
AcDbHatch
10
0.0
20
0.0
30
0.0
210
0.0
220
0.0
230
1.0
2
SOLID
70
1
71
0
91
1
92
1
93
1
72
2
10
6260.000000
20
2880.000000
40
17.716535
50
0.000000
51
360.000000
73
1
97
0
75
0
76
0
98
1
10
0.0
20
0.0
0
CIRCLE
5
95
100
AcDbEntity
8
DRILL
62
255
100
AcDbCircle
39
0.000039
10
6260.000000
20
2880.000000
30
0
40
17.716535
0
HATCH
5
96
100
AcDbEntity
8
DRILL
62
255
100
AcDbHatch
10
0.0
20
0.0
30
0.0
210
0.0
220
0.0
230
1.0
2
SOLID
70
1
71
0
91
1
92
1
93
1
72
2
10
3780.000000
20
352.440945
40
27.500000
50
0.000000
51
360.000000
73
1
97
0
75
0
76
0
98
1
10
0.0
20
0.0
0
CIRCLE
5
97
100
AcDbEntity
8
DRILL
62
255
100
AcDbCircle
39
0.000039
10
3780.000000
20
352.440945
30
0
40
27.500000
0
HATCH
5
98
100
AcDbEntity
8
DRILL
62
255
100
AcDbHatch
10
0.0
20
0.0
30
0.0
210
0.0
220
0.0
230
1.0
2
SOLID
70
1
71
0
91
1
92
1
93
1
72
2
10
3780.000000
20
880.000000
40
27.500000
50
0.000000
51
360.000000
73
1
97
0
75
0
76
0
98
1
10
0.0
20
0.0
0
CIRCLE
5
99
100
AcDbEntity
8
DRILL
62
255
100
AcDbCircle
39
0.000039
10
3780.000000
20
880.000000
30
0
40
27.500000
0
HATCH
5
9A
100
AcDbEntity
8
DRILL
62
255
100
AcDbHatch
10
0.0
20
0.0
30
0.0
210
0.0
220
0.0
230
1.0
2
SOLID
70
1
71
0
91
1
92
1
93
1
72
2
10
4440.000000
20
352.440945
40
27.500000
50
0.000000
51
360.000000
73
1
97
0
75
0
76
0
98
1
10
0.0
20
0.0
0
CIRCLE
5
9B
100
AcDbEntity
8
DRILL
62
255
100
AcDbCircle
39
0.000039
10
4440.000000
20
352.440945
30
0
40
27.500000
0
HATCH
5
9C
100
AcDbEntity
8
DRILL
62
255
100
AcDbHatch
10
0.0
20
0.0
30
0.0
210
0.0
220
0.0
230
1.0
2
SOLID
70
1
71
0
91
1
92
1
93
1
72
2
10
4440.000000
20
880.000000
40
27.500000
50
0.000000
51
360.000000
73
1
97
0
75
0
76
0
98
1
10
0.0
20
0.0
0
CIRCLE
5
9D
100
AcDbEntity
8
DRILL
62
255
100
AcDbCircle
39
0.000039
10
4440.000000
20
880.000000
30
0
40
27.500000
0
HATCH
5
9E
100
AcDbEntity
8
DRILL
62
255
100
AcDbHatch
10
0.0
20
0.0
30
0.0
210
0.0
220
0.0
230
1.0
2
SOLID
70
1
71
0
91
1
92
1
93
1
72
2
10
3180.000000
20
740.000000
40
17.500000
50
0.000000
51
360.000000
73
1
97
0
75
0
76
0
98
1
10
0.0
20
0.0
0
CIRCLE
5
9F
100
AcDbEntity
8
DRILL
62
255
100
AcDbCircle
39
0.000039
10
3180.000000
20
740.000000
30
0
40
17.500000
0
HATCH
5
A0
100
AcDbEntity
8
DRILL
62
255
100
AcDbHatch
10
0.0
20
0.0
30
0.0
210
0.0
220
0.0
230
1.0
2
SOLID
70
1
71
0
91
1
92
1
93
1
72
2
10
3080.000000
20
840.000000
40
17.500000
50
0.000000
51
360.000000
73
1
97
0
75
0
76
0
98
1
10
0.0
20
0.0
0
CIRCLE
5
A1
100
AcDbEntity
8
DRILL
62
255
100
AcDbCircle
39
0.000039
10
3080.000000
20
840.000000
30
0
40
17.500000
0
HATCH
5
A2
100
AcDbEntity
8
DRILL
62
255
100
AcDbHatch
10
0.0
20
0.0
30
0.0
210
0.0
220
0.0
230
1.0
2
SOLID
70
1
71
0
91
1
92
1
93
1
72
2
10
3080.000000
20
640.000000
40
17.500000
50
0.000000
51
360.000000
73
1
97
0
75
0
76
0
98
1
10
0.0
20
0.0
0
CIRCLE
5
A3
100
AcDbEntity
8
DRILL
62
255
100
AcDbCircle
39
0.000039
10
3080.000000
20
640.000000
30
0
40
17.500000
0
HATCH
5
A4
100
AcDbEntity
8
DRILL
62
255
100
AcDbHatch
10
0.0
20
0.0
30
0.0
210
0.0
220
0.0
230
1.0
2
SOLID
70
1
71
0
91
1
92
1
93
1
72
2
10
2711.811024
20
660.000000
40
17.716535
50
0.000000
51
360.000000
73
1
97
0
75
0
76
0
98
1
10
0.0
20
0.0
0
CIRCLE
5
A5
100
AcDbEntity
8
DRILL
62
255
100
AcDbCircle
39
0.000039
10
2711.811024
20
660.000000
30
0
40
17.716535
0
HATCH
5
A6
100
AcDbEntity
8
DRILL
62
255
100
AcDbHatch
10
0.0
20
0.0
30
0.0
210
0.0
220
0.0
230
1.0
2
SOLID
70
1
71
0
91
1
92
1
93
1
72
2
10
2200.000000
20
660.000000
40
17.716535
50
0.000000
51
360.000000
73
1
97
0
75
0
76
0
98
1
10
0.0
20
0.0
0
CIRCLE
5
A7
100
AcDbEntity
8
DRILL
62
255
100
AcDbCircle
39
0.000039
10
2200.000000
20
660.000000
30
0
40
17.716535
0
HATCH
5
A8
100
AcDbEntity
8
DRILL
62
255
100
AcDbHatch
10
0.0
20
0.0
30
0.0
210
0.0
220
0.0
230
1.0
2
SOLID
70
1
71
0
91
1
92
1
93
1
72
2
10
5120.000000
20
820.000000
40
17.500000
50
0.000000
51
360.000000
73
1
97
0
75
0
76
0
98
1
10
0.0
20
0.0
0
CIRCLE
5
A9
100
AcDbEntity
8
DRILL
62
255
100
AcDbCircle
39
0.000039
10
5120.000000
20
820.000000
30
0
40
17.500000
0
HATCH
5
AA
100
AcDbEntity
8
DRILL
62
255
100
AcDbHatch
10
0.0
20
0.0
30
0.0
210
0.0
220
0.0
230
1.0
2
SOLID
70
1
71
0
91
1
92
1
93
1
72
2
10
5020.000000
20
720.000000
40
17.500000
50
0.000000
51
360.000000
73
1
97
0
75
0
76
0
98
1
10
0.0
20
0.0
0
CIRCLE
5
AB
100
AcDbEntity
8
DRILL
62
255
100
AcDbCircle
39
0.000039
10
5020.000000
20
720.000000
30
0
40
17.500000
0
HATCH
5
AC
100
AcDbEntity
8
DRILL
62
255
100
AcDbHatch
10
0.0
20
0.0
30
0.0
210
0.0
220
0.0
230
1.0
2
SOLID
70
1
71
0
91
1
92
1
93
1
72
2
10
5220.000000
20
720.000000
40
17.500000
50
0.000000
51
360.000000
73
1
97
0
75
0
76
0
98
1
10
0.0
20
0.0
0
CIRCLE
5
AD
100
AcDbEntity
8
DRILL
62
255
100
AcDbCircle
39
0.000039
10
5220.000000
20
720.000000
30
0
40
17.500000
0
HATCH
5
AE
100
AcDbEntity
8
DRILL
62
255
100
AcDbHatch
10
0.0
20
0.0
30
0.0
210
0.0
220
0.0
230
1.0
2
SOLID
70
1
71
0
91
1
92
1
93
1
72
2
10
6031.811024
20
720.000000
40
17.716535
50
0.000000
51
360.000000
73
1
97
0
75
0
76
0
98
1
10
0.0
20
0.0
0
CIRCLE
5
AF
100
AcDbEntity
8
DRILL
62
255
100
AcDbCircle
39
0.000039
10
6031.811024
20
720.000000
30
0
40
17.716535
0
HATCH
5
B0
100
AcDbEntity
8
DRILL
62
255
100
AcDbHatch
10
0.0
20
0.0
30
0.0
210
0.0
220
0.0
230
1.0
2
SOLID
70
1
71
0
91
1
92
1
93
1
72
2
10
5520.000000
20
720.000000
40
17.716535
50
0.000000
51
360.000000
73
1
97
0
75
0
76
0
98
1
10
0.0
20
0.0
0
CIRCLE
5
B1
100
AcDbEntity
8
DRILL
62
255
100
AcDbCircle
39
0.000039
10
5520.000000
20
720.000000
30
0
40
17.716535
0
HATCH
5
B2
100
AcDbEntity
8
DRILL
62
255
100
AcDbHatch
10
0.0
20
0.0
30
0.0
210
0.0
220
0.0
230
1.0
2
SOLID
70
1
71
0
91
1
92
1
93
1
72
2
10
532.440945
20
660.000000
40
27.500000
50
0.000000
51
360.000000
73
1
97
0
75
0
76
0
98
1
10
0.0
20
0.0
0
CIRCLE
5
B3
100
AcDbEntity
8
DRILL
62
255
100
AcDbCircle
39
0.000039
10
532.440945
20
660.000000
30
0
40
27.500000
0
HATCH
5
B4
100
AcDbEntity
8
DRILL
62
255
100
AcDbHatch
10
0.0
20
0.0
30
0.0
210
0.0
220
0.0
230
1.0
2
SOLID
70
1
71
0
91
1
92
1
93
1
72
2
10
1060.000000
20
660.000000
40
27.500000
50
0.000000
51
360.000000
73
1
97
0
75
0
76
0
98
1
10
0.0
20
0.0
0
CIRCLE
5
B5
100
AcDbEntity
8
DRILL
62
255
100
AcDbCircle
39
0.000039
10
1060.000000
20
660.000000
30
0
40
27.500000
0
HATCH
5
B6
100
AcDbEntity
8
DRILL
62
255
100
AcDbHatch
10
0.0
20
0.0
30
0.0
210
0.0
220
0.0
230
1.0
2
SOLID
70
1
71
0
91
1
92
1
93
1
72
2
10
2071.811024
20
780.000000
40
17.716535
50
0.000000
51
360.000000
73
1
97
0
75
0
76
0
98
1
10
0.0
20
0.0
0
CIRCLE
5
B7
100
AcDbEntity
8
DRILL
62
255
100
AcDbCircle
39
0.000039
10
2071.811024
20
780.000000
30
0
40
17.716535
0
HATCH
5
B8
100
AcDbEntity
8
DRILL
62
255
100
AcDbHatch
10
0.0
20
0.0
30
0.0
210
0.0
220
0.0
230
1.0
2
SOLID
70
1
71
0
91
1
92
1
93
1
72
2
10
1560.000000
20
780.000000
40
17.716535
50
0.000000
51
360.000000
73
1
97
0
75
0
76
0
98
1
10
0.0
20
0.0
0
CIRCLE
5
B9
100
AcDbEntity
8
DRILL
62
255
100
AcDbCircle
39
0.000039
10
1560.000000
20
780.000000
30
0
40
17.716535
0
HATCH
5
BA
100
AcDbEntity
8
DRILL
62
255
100
AcDbHatch
10
0.0
20
0.0
30
0.0
210
0.0
220
0.0
230
1.0
2
SOLID
70
1
71
0
91
1
92
1
93
1
72
2
10
4040.000000
20
880.000000
40
19.585000
50
0.000000
51
360.000000
73
1
97
0
75
0
76
0
98
1
10
0.0
20
0.0
0
CIRCLE
5
BB
100
AcDbEntity
8
DRILL
62
255
100
AcDbCircle
39
0.000039
10
4040.000000
20
880.000000
30
0
40
19.585000
0
HATCH
5
BC
100
AcDbEntity
8
DRILL
62
255
100
AcDbHatch
10
0.0
20
0.0
30
0.0
210
0.0
220
0.0
230
1.0
2
SOLID
70
1
71
0
91
1
92
1
93
1
72
2
10
4140.000000
20
880.000000
40
17.500000
50
0.000000
51
360.000000
73
1
97
0
75
0
76
0
98
1
10
0.0
20
0.0
0
CIRCLE
5
BD
100
AcDbEntity
8
DRILL
62
255
100
AcDbCircle
39
0.000039
10
4140.000000
20
880.000000
30
0
40
17.500000
0
HATCH
5
BE
100
AcDbEntity
8
DRILL
62
255
100
AcDbHatch
10
0.0
20
0.0
30
0.0
210
0.0
220
0.0
230
1.0
2
SOLID
70
1
71
0
91
1
92
1
93
1
72
2
10
720.000000
20
960.000000
40
19.585000
50
0.000000
51
360.000000
73
1
97
0
75
0
76
0
98
1
10
0.0
20
0.0
0
CIRCLE
5
BF
100
AcDbEntity
8
DRILL
62
255
100
AcDbCircle
39
0.000039
10
720.000000
20
960.000000
30
0
40
19.585000
0
HATCH
5
C0
100
AcDbEntity
8
DRILL
62
255
100
AcDbHatch
10
0.0
20
0.0
30
0.0
210
0.0
220
0.0
230
1.0
2
SOLID
70
1
71
0
91
1
92
1
93
1
72
2
10
820.000000
20
960.000000
40
17.500000
50
0.000000
51
360.000000
73
1
97
0
75
0
76
0
98
1
10
0.0
20
0.0
0
CIRCLE
5
C1
100
AcDbEntity
8
DRILL
62
255
100
AcDbCircle
39
0.000039
10
820.000000
20
960.000000
30
0
40
17.500000
0
HATCH
5
C2
100
AcDbEntity
8
DRILL
62
255
100
AcDbHatch
10
0.0
20
0.0
30
0.0
210
0.0
220
0.0
230
1.0
2
SOLID
70
1
71
0
91
1
92
1
93
1
72
2
10
2071.811024
20
1020.000000
40
17.716535
50
0.000000
51
360.000000
73
1
97
0
75
0
76
0
98
1
10
0.0
20
0.0
0
CIRCLE
5
C3
100
AcDbEntity
8
DRILL
62
255
100
AcDbCircle
39
0.000039
10
2071.811024
20
1020.000000
30
0
40
17.716535
0
HATCH
5
C4
100
AcDbEntity
8
DRILL
62
255
100
AcDbHatch
10
0.0
20
0.0
30
0.0
210
0.0
220
0.0
230
1.0
2
SOLID
70
1
71
0
91
1
92
1
93
1
72
2
10
1560.000000
20
1020.000000
40
17.716535
50
0.000000
51
360.000000
73
1
97
0
75
0
76
0
98
1
10
0.0
20
0.0
0
CIRCLE
5
C5
100
AcDbEntity
8
DRILL
62
255
100
AcDbCircle
39
0.000039
10
1560.000000
20
1020.000000
30
0
40
17.716535
0
HATCH
5
C6
100
AcDbEntity
8
DRILL
62
255
100
AcDbHatch
10
0.0
20
0.0
30
0.0
210
0.0
220
0.0
230
1.0
2
SOLID
70
1
71
0
91
1
92
1
93
1
72
2
10
1240.000039
20
1274.166614
40
17.500000
50
0.000000
51
360.000000
73
1
97
0
75
0
76
0
98
1
10
0.0
20
0.0
0
CIRCLE
5
C7
100
AcDbEntity
8
DRILL
62
255
100
AcDbCircle
39
0.000039
10
1240.000039
20
1274.166614
30
0
40
17.500000
0
HATCH
5
C8
100
AcDbEntity
8
DRILL
62
255
100
AcDbHatch
10
0.0
20
0.0
30
0.0
210
0.0
220
0.0
230
1.0
2
SOLID
70
1
71
0
91
1
92
1
93
1
72
2
10
1240.000039
20
1408.333268
40
17.500000
50
0.000000
51
360.000000
73
1
97
0
75
0
76
0
98
1
10
0.0
20
0.0
0
CIRCLE
5
C9
100
AcDbEntity
8
DRILL
62
255
100
AcDbCircle
39
0.000039
10
1240.000039
20
1408.333268
30
0
40
17.500000
0
HATCH
5
CA
100
AcDbEntity
8
DRILL
62
255
100
AcDbHatch
10
0.0
20
0.0
30
0.0
210
0.0
220
0.0
230
1.0
2
SOLID
70
1
71
0
91
1
92
1
93
1
72
2
10
1338.333346
20
1340.833268
40
17.500000
50
0.000000
51
360.000000
73
1
97
0
75
0
76
0
98
1
10
0.0
20
0.0
0
CIRCLE
5
CB
100
AcDbEntity
8
DRILL
62
255
100
AcDbCircle
39
0.000039
10
1338.333346
20
1340.833268
30
0
40
17.500000
0
HATCH
5
CC
100
AcDbEntity
8
DRILL
62
255
100
AcDbHatch
10
0.0
20
0.0
30
0.0
210
0.0
220
0.0
230
1.0
2
SOLID
70
1
71
0
91
1
92
1
93
1
72
2
10
1240.000039
20
1139.999961
40
17.500000
50
0.000000
51
360.000000
73
1
97
0
75
0
76
0
98
1
10
0.0
20
0.0
0
CIRCLE
5
CD
100
AcDbEntity
8
DRILL
62
255
100
AcDbCircle
39
0.000039
10
1240.000039
20
1139.999961
30
0
40
17.500000
0
HATCH
5
CE
100
AcDbEntity
8
DRILL
62
255
100
AcDbHatch
10
0.0
20
0.0
30
0.0
210
0.0
220
0.0
230
1.0
2
SOLID
70
1
71
0
91
1
92
1
93
1
72
2
10
1338.333346
20
1207.499961
40
17.500000
50
0.000000
51
360.000000
73
1
97
0
75
0
76
0
98
1
10
0.0
20
0.0
0
CIRCLE
5
CF
100
AcDbEntity
8
DRILL
62
255
100
AcDbCircle
39
0.000039
10
1338.333346
20
1207.499961
30
0
40
17.500000
0
HATCH
5
D0
100
AcDbEntity
8
DRILL
62
255
100
AcDbHatch
10
0.0
20
0.0
30
0.0
210
0.0
220
0.0
230
1.0
2
SOLID
70
1
71
0
91
1
92
1
93
1
72
2
10
649.166693
20
1274.166614
40
59.165000
50
0.000000
51
360.000000
73
1
97
0
75
0
76
0
98
1
10
0.0
20
0.0
0
CIRCLE
5
D1
100
AcDbEntity
8
DRILL
62
255
100
AcDbCircle
39
0.000039
10
649.166693
20
1274.166614
30
0
40
59.165000
0
HATCH
5
D2
100
AcDbEntity
8
DRILL
62
255
100
AcDbHatch
10
0.0
20
0.0
30
0.0
210
0.0
220
0.0
230
1.0
2
SOLID
70
1
71
0
91
1
92
1
93
1
72
2
10
3780.000000
20
1092.440945
40
27.500000
50
0.000000
51
360.000000
73
1
97
0
75
0
76
0
98
1
10
0.0
20
0.0
0
CIRCLE
5
D3
100
AcDbEntity
8
DRILL
62
255
100
AcDbCircle
39
0.000039
10
3780.000000
20
1092.440945
30
0
40
27.500000
0
HATCH
5
D4
100
AcDbEntity
8
DRILL
62
255
100
AcDbHatch
10
0.0
20
0.0
30
0.0
210
0.0
220
0.0
230
1.0
2
SOLID
70
1
71
0
91
1
92
1
93
1
72
2
10
3780.000000
20
1620.000000
40
27.500000
50
0.000000
51
360.000000
73
1
97
0
75
0
76
0
98
1
10
0.0
20
0.0
0
CIRCLE
5
D5
100
AcDbEntity
8
DRILL
62
255
100
AcDbCircle
39
0.000039
10
3780.000000
20
1620.000000
30
0
40
27.500000
0
HATCH
5
D6
100
AcDbEntity
8
DRILL
62
255
100
AcDbHatch
10
0.0
20
0.0
30
0.0
210
0.0
220
0.0
230
1.0
2
SOLID
70
1
71
0
91
1
92
1
93
1
72
2
10
4440.000000
20
1092.440945
40
27.500000
50
0.000000
51
360.000000
73
1
97
0
75
0
76
0
98
1
10
0.0
20
0.0
0
CIRCLE
5
D7
100
AcDbEntity
8
DRILL
62
255
100
AcDbCircle
39
0.000039
10
4440.000000
20
1092.440945
30
0
40
27.500000
0
HATCH
5
D8
100
AcDbEntity
8
DRILL
62
255
100
AcDbHatch
10
0.0
20
0.0
30
0.0
210
0.0
220
0.0
230
1.0
2
SOLID
70
1
71
0
91
1
92
1
93
1
72
2
10
4440.000000
20
1620.000000
40
27.500000
50
0.000000
51
360.000000
73
1
97
0
75
0
76
0
98
1
10
0.0
20
0.0
0
CIRCLE
5
D9
100
AcDbEntity
8
DRILL
62
255
100
AcDbCircle
39
0.000039
10
4440.000000
20
1620.000000
30
0
40
27.500000
0
HATCH
5
DA
100
AcDbEntity
8
DRILL
62
255
100
AcDbHatch
10
0.0
20
0.0
30
0.0
210
0.0
220
0.0
230
1.0
2
SOLID
70
1
71
0
91
1
92
1
93
1
72
2
10
6700.000000
20
1070.000000
40
11.811024
50
0.000000
51
360.000000
73
1
97
0
75
0
76
0
98
1
10
0.0
20
0.0
0
CIRCLE
5
DB
100
AcDbEntity
8
DRILL
62
255
100
AcDbCircle
39
0.000039
10
6700.000000
20
1070.000000
30
0
40
11.811024
0
HATCH
5
DC
100
AcDbEntity
8
DRILL
62
255
100
AcDbHatch
10
0.0
20
0.0
30
0.0
210
0.0
220
0.0
230
1.0
2
SOLID
70
1
71
0
91
1
92
1
93
1
72
2
10
7239.999961
20
1071.666732
40
17.500000
50
0.000000
51
360.000000
73
1
97
0
75
0
76
0
98
1
10
0.0
20
0.0
0
CIRCLE
5
DD
100
AcDbEntity
8
DRILL
62
255
100
AcDbCircle
39
0.000039
10
7239.999961
20
1071.666732
30
0
40
17.500000
0
HATCH
5
DE
100
AcDbEntity
8
DRILL
62
255
100
AcDbHatch
10
0.0
20
0.0
30
0.0
210
0.0
220
0.0
230
1.0
2
SOLID
70
1
71
0
91
1
92
1
93
1
72
2
10
7141.666654
20
1139.166732
40
17.500000
50
0.000000
51
360.000000
73
1
97
0
75
0
76
0
98
1
10
0.0
20
0.0
0
CIRCLE
5
DF
100
AcDbEntity
8
DRILL
62
255
100
AcDbCircle
39
0.000039
10
7141.666654
20
1139.166732
30
0
40
17.500000
0
HATCH
5
E0
100
AcDbEntity
8
DRILL
62
255
100
AcDbHatch
10
0.0
20
0.0
30
0.0
210
0.0
220
0.0
230
1.0
2
SOLID
70
1
71
0
91
1
92
1
93
1
72
2
10
7239.999961
20
1340.000039
40
17.500000
50
0.000000
51
360.000000
73
1
97
0
75
0
76
0
98
1
10
0.0
20
0.0
0
CIRCLE
5
E1
100
AcDbEntity
8
DRILL
62
255
100
AcDbCircle
39
0.000039
10
7239.999961
20
1340.000039
30
0
40
17.500000
0
HATCH
5
E2
100
AcDbEntity
8
DRILL
62
255
100
AcDbHatch
10
0.0
20
0.0
30
0.0
210
0.0
220
0.0
230
1.0
2
SOLID
70
1
71
0
91
1
92
1
93
1
72
2
10
7141.666654
20
1272.500039
40
17.500000
50
0.000000
51
360.000000
73
1
97
0
75
0
76
0
98
1
10
0.0
20
0.0
0
CIRCLE
5
E3
100
AcDbEntity
8
DRILL
62
255
100
AcDbCircle
39
0.000039
10
7141.666654
20
1272.500039
30
0
40
17.500000
0
HATCH
5
E4
100
AcDbEntity
8
DRILL
62
255
100
AcDbHatch
10
0.0
20
0.0
30
0.0
210
0.0
220
0.0
230
1.0
2
SOLID
70
1
71
0
91
1
92
1
93
1
72
2
10
7239.999961
20
1205.833386
40
17.500000
50
0.000000
51
360.000000
73
1
97
0
75
0
76
0
98
1
10
0.0
20
0.0
0
CIRCLE
5
E5
100
AcDbEntity
8
DRILL
62
255
100
AcDbCircle
39
0.000039
10
7239.999961
20
1205.833386
30
0
40
17.500000
0
HATCH
5
E6
100
AcDbEntity
8
DRILL
62
255
100
AcDbHatch
10
0.0
20
0.0
30
0.0
210
0.0
220
0.0
230
1.0
2
SOLID
70
1
71
0
91
1
92
1
93
1
72
2
10
7830.833307
20
1205.833386
40
59.165000
50
0.000000
51
360.000000
73
1
97
0
75
0
76
0
98
1
10
0.0
20
0.0
0
CIRCLE
5
E7
100
AcDbEntity
8
DRILL
62
255
100
AcDbCircle
39
0.000039
10
7830.833307
20
1205.833386
30
0
40
59.165000
0
HATCH
5
E8
100
AcDbEntity
8
DRILL
62
255
100
AcDbHatch
10
0.0
20
0.0
30
0.0
210
0.0
220
0.0
230
1.0
2
SOLID
70
1
71
0
91
1
92
1
93
1
72
2
10
3060.000000
20
1420.000000
40
17.500000
50
0.000000
51
360.000000
73
1
97
0
75
0
76
0
98
1
10
0.0
20
0.0
0
CIRCLE
5
E9
100
AcDbEntity
8
DRILL
62
255
100
AcDbCircle
39
0.000039
10
3060.000000
20
1420.000000
30
0
40
17.500000
0
HATCH
5
EA
100
AcDbEntity
8
DRILL
62
255
100
AcDbHatch
10
0.0
20
0.0
30
0.0
210
0.0
220
0.0
230
1.0
2
SOLID
70
1
71
0
91
1
92
1
93
1
72
2
10
2960.000000
20
1320.000000
40
17.500000
50
0.000000
51
360.000000
73
1
97
0
75
0
76
0
98
1
10
0.0
20
0.0
0
CIRCLE
5
EB
100
AcDbEntity
8
DRILL
62
255
100
AcDbCircle
39
0.000039
10
2960.000000
20
1320.000000
30
0
40
17.500000
0
HATCH
5
EC
100
AcDbEntity
8
DRILL
62
255
100
AcDbHatch
10
0.0
20
0.0
30
0.0
210
0.0
220
0.0
230
1.0
2
SOLID
70
1
71
0
91
1
92
1
93
1
72
2
10
3160.000000
20
1320.000000
40
17.500000
50
0.000000
51
360.000000
73
1
97
0
75
0
76
0
98
1
10
0.0
20
0.0
0
CIRCLE
5
ED
100
AcDbEntity
8
DRILL
62
255
100
AcDbCircle
39
0.000039
10
3160.000000
20
1320.000000
30
0
40
17.500000
0
HATCH
5
EE
100
AcDbEntity
8
DRILL
62
255
100
AcDbHatch
10
0.0
20
0.0
30
0.0
210
0.0
220
0.0
230
1.0
2
SOLID
70
1
71
0
91
1
92
1
93
1
72
2
10
6051.811024
20
1220.000000
40
17.716535
50
0.000000
51
360.000000
73
1
97
0
75
0
76
0
98
1
10
0.0
20
0.0
0
CIRCLE
5
EF
100
AcDbEntity
8
DRILL
62
255
100
AcDbCircle
39
0.000039
10
6051.811024
20
1220.000000
30
0
40
17.716535
0
HATCH
5
F0
100
AcDbEntity
8
DRILL
62
255
100
AcDbHatch
10
0.0
20
0.0
30
0.0
210
0.0
220
0.0
230
1.0
2
SOLID
70
1
71
0
91
1
92
1
93
1
72
2
10
5540.000000
20
1220.000000
40
17.716535
50
0.000000
51
360.000000
73
1
97
0
75
0
76
0
98
1
10
0.0
20
0.0
0
CIRCLE
5
F1
100
AcDbEntity
8
DRILL
62
255
100
AcDbCircle
39
0.000039
10
5540.000000
20
1220.000000
30
0
40
17.716535
0
HATCH
5
F2
100
AcDbEntity
8
DRILL
62
255
100
AcDbHatch
10
0.0
20
0.0
30
0.0
210
0.0
220
0.0
230
1.0
2
SOLID
70
1
71
0
91
1
92
1
93
1
72
2
10
5040.000000
20
1380.000000
40
17.500000
50
0.000000
51
360.000000
73
1
97
0
75
0
76
0
98
1
10
0.0
20
0.0
0
CIRCLE
5
F3
100
AcDbEntity
8
DRILL
62
255
100
AcDbCircle
39
0.000039
10
5040.000000
20
1380.000000
30
0
40
17.500000
0
HATCH
5
F4
100
AcDbEntity
8
DRILL
62
255
100
AcDbHatch
10
0.0
20
0.0
30
0.0
210
0.0
220
0.0
230
1.0
2
SOLID
70
1
71
0
91
1
92
1
93
1
72
2
10
5140.000000
20
1480.000000
40
17.500000
50
0.000000
51
360.000000
73
1
97
0
75
0
76
0
98
1
10
0.0
20
0.0
0
CIRCLE
5
F5
100
AcDbEntity
8
DRILL
62
255
100
AcDbCircle
39
0.000039
10
5140.000000
20
1480.000000
30
0
40
17.500000
0
HATCH
5
F6
100
AcDbEntity
8
DRILL
62
255
100
AcDbHatch
10
0.0
20
0.0
30
0.0
210
0.0
220
0.0
230
1.0
2
SOLID
70
1
71
0
91
1
92
1
93
1
72
2
10
5240.000000
20
1380.000000
40
17.500000
50
0.000000
51
360.000000
73
1
97
0
75
0
76
0
98
1
10
0.0
20
0.0
0
CIRCLE
5
F7
100
AcDbEntity
8
DRILL
62
255
100
AcDbCircle
39
0.000039
10
5240.000000
20
1380.000000
30
0
40
17.500000
0
HATCH
5
F8
100
AcDbEntity
8
DRILL
62
255
100
AcDbHatch
10
0.0
20
0.0
30
0.0
210
0.0
220
0.0
230
1.0
2
SOLID
70
1
71
0
91
1
92
1
93
1
72
2
10
380.000000
20
1340.000000
40
17.500000
50
0.000000
51
360.000000
73
1
97
0
75
0
76
0
98
1
10
0.0
20
0.0
0
CIRCLE
5
F9
100
AcDbEntity
8
DRILL
62
255
100
AcDbCircle
39
0.000039
10
380.000000
20
1340.000000
30
0
40
17.500000
0
HATCH
5
FA
100
AcDbEntity
8
DRILL
62
255
100
AcDbHatch
10
0.0
20
0.0
30
0.0
210
0.0
220
0.0
230
1.0
2
SOLID
70
1
71
0
91
1
92
1
93
1
72
2
10
380.000000
20
1440.000000
40
19.585000
50
0.000000
51
360.000000
73
1
97
0
75
0
76
0
98
1
10
0.0
20
0.0
0
CIRCLE
5
FB
100
AcDbEntity
8
DRILL
62
255
100
AcDbCircle
39
0.000039
10
380.000000
20
1440.000000
30
0
40
19.585000
0
HATCH
5
FC
100
AcDbEntity
8
DRILL
62
255
100
AcDbHatch
10
0.0
20
0.0
30
0.0
210
0.0
220
0.0
230
1.0
2
SOLID
70
1
71
0
91
1
92
1
93
1
72
2
10
6791.811024
20
1420.000000
40
17.716535
50
0.000000
51
360.000000
73
1
97
0
75
0
76
0
98
1
10
0.0
20
0.0
0
CIRCLE
5
FD
100
AcDbEntity
8
DRILL
62
255
100
AcDbCircle
39
0.000039
10
6791.811024
20
1420.000000
30
0
40
17.716535
0
HATCH
5
FE
100
AcDbEntity
8
DRILL
62
255
100
AcDbHatch
10
0.0
20
0.0
30
0.0
210
0.0
220
0.0
230
1.0
2
SOLID
70
1
71
0
91
1
92
1
93
1
72
2
10
6280.000000
20
1420.000000
40
17.716535
50
0.000000
51
360.000000
73
1
97
0
75
0
76
0
98
1
10
0.0
20
0.0
0
CIRCLE
5
FF
100
AcDbEntity
8
DRILL
62
255
100
AcDbCircle
39
0.000039
10
6280.000000
20
1420.000000
30
0
40
17.716535
0
HATCH
5
100
100
AcDbEntity
8
DRILL
62
255
100
AcDbHatch
10
0.0
20
0.0
30
0.0
210
0.0
220
0.0
230
1.0
2
SOLID
70
1
71
0
91
1
92
1
93
1
72
2
10
2811.811024
20
1440.000000
40
17.716535
50
0.000000
51
360.000000
73
1
97
0
75
0
76
0
98
1
10
0.0
20
0.0
0
CIRCLE
5
101
100
AcDbEntity
8
DRILL
62
255
100
AcDbCircle
39
0.000039
10
2811.811024
20
1440.000000
30
0
40
17.716535
0
HATCH
5
102
100
AcDbEntity
8
DRILL
62
255
100
AcDbHatch
10
0.0
20
0.0
30
0.0
210
0.0
220
0.0
230
1.0
2
SOLID
70
1
71
0
91
1
92
1
93
1
72
2
10
2300.000000
20
1440.000000
40
17.716535
50
0.000000
51
360.000000
73
1
97
0
75
0
76
0
98
1
10
0.0
20
0.0
0
CIRCLE
5
103
100
AcDbEntity
8
DRILL
62
255
100
AcDbCircle
39
0.000039
10
2300.000000
20
1440.000000
30
0
40
17.716535
0
HATCH
5
104
100
AcDbEntity
8
DRILL
62
255
100
AcDbHatch
10
0.0
20
0.0
30
0.0
210
0.0
220
0.0
230
1.0
2
SOLID
70
1
71
0
91
1
92
1
93
1
72
2
10
5770.000000
20
1410.000000
40
11.811024
50
0.000000
51
360.000000
73
1
97
0
75
0
76
0
98
1
10
0.0
20
0.0
0
CIRCLE
5
105
100
AcDbEntity
8
DRILL
62
255
100
AcDbCircle
39
0.000039
10
5770.000000
20
1410.000000
30
0
40
11.811024
0
HATCH
5
106
100
AcDbEntity
8
DRILL
62
255
100
AcDbHatch
10
0.0
20
0.0
30
0.0
210
0.0
220
0.0
230
1.0
2
SOLID
70
1
71
0
91
1
92
1
93
1
72
2
10
7420.000000
20
1520.000000
40
27.500000
50
0.000000
51
360.000000
73
1
97
0
75
0
76
0
98
1
10
0.0
20
0.0
0
CIRCLE
5
107
100
AcDbEntity
8
DRILL
62
255
100
AcDbCircle
39
0.000039
10
7420.000000
20
1520.000000
30
0
40
27.500000
0
HATCH
5
108
100
AcDbEntity
8
DRILL
62
255
100
AcDbHatch
10
0.0
20
0.0
30
0.0
210
0.0
220
0.0
230
1.0
2
SOLID
70
1
71
0
91
1
92
1
93
1
72
2
10
7947.559055
20
1520.000000
40
27.500000
50
0.000000
51
360.000000
73
1
97
0
75
0
76
0
98
1
10
0.0
20
0.0
0
CIRCLE
5
109
100
AcDbEntity
8
DRILL
62
255
100
AcDbCircle
39
0.000039
10
7947.559055
20
1520.000000
30
0
40
27.500000
0
HATCH
5
10A
100
AcDbEntity
8
DRILL
62
255
100
AcDbHatch
10
0.0
20
0.0
30
0.0
210
0.0
220
0.0
230
1.0
2
SOLID
70
1
71
0
91
1
92
1
93
1
72
2
10
6811.811024
20
1660.000000
40
17.716535
50
0.000000
51
360.000000
73
1
97
0
75
0
76
0
98
1
10
0.0
20
0.0
0
CIRCLE
5
10B
100
AcDbEntity
8
DRILL
62
255
100
AcDbCircle
39
0.000039
10
6811.811024
20
1660.000000
30
0
40
17.716535
0
HATCH
5
10C
100
AcDbEntity
8
DRILL
62
255
100
AcDbHatch
10
0.0
20
0.0
30
0.0
210
0.0
220
0.0
230
1.0
2
SOLID
70
1
71
0
91
1
92
1
93
1
72
2
10
6300.000000
20
1660.000000
40
17.716535
50
0.000000
51
360.000000
73
1
97
0
75
0
76
0
98
1
10
0.0
20
0.0
0
CIRCLE
5
10D
100
AcDbEntity
8
DRILL
62
255
100
AcDbCircle
39
0.000039
10
6300.000000
20
1660.000000
30
0
40
17.716535
0
HATCH
5
10E
100
AcDbEntity
8
DRILL
62
255
100
AcDbHatch
10
0.0
20
0.0
30
0.0
210
0.0
220
0.0
230
1.0
2
SOLID
70
1
71
0
91
1
92
1
93
1
72
2
10
3780.000000
20
-1187.559055
40
27.500000
50
0.000000
51
360.000000
73
1
97
0
75
0
76
0
98
1
10
0.0
20
0.0
0
CIRCLE
5
10F
100
AcDbEntity
8
DRILL
62
255
100
AcDbCircle
39
0.000039
10
3780.000000
20
-1187.559055
30
0
40
27.500000
0
HATCH
5
110
100
AcDbEntity
8
DRILL
62
255
100
AcDbHatch
10
0.0
20
0.0
30
0.0
210
0.0
220
0.0
230
1.0
2
SOLID
70
1
71
0
91
1
92
1
93
1
72
2
10
3780.000000
20
-660.000000
40
27.500000
50
0.000000
51
360.000000
73
1
97
0
75
0
76
0
98
1
10
0.0
20
0.0
0
CIRCLE
5
111
100
AcDbEntity
8
DRILL
62
255
100
AcDbCircle
39
0.000039
10
3780.000000
20
-660.000000
30
0
40
27.500000
0
HATCH
5
112
100
AcDbEntity
8
DRILL
62
255
100
AcDbHatch
10
0.0
20
0.0
30
0.0
210
0.0
220
0.0
230
1.0
2
SOLID
70
1
71
0
91
1
92
1
93
1
72
2
10
4440.000000
20
-1187.559055
40
27.500000
50
0.000000
51
360.000000
73
1
97
0
75
0
76
0
98
1
10
0.0
20
0.0
0
CIRCLE
5
113
100
AcDbEntity
8
DRILL
62
255
100
AcDbCircle
39
0.000039
10
4440.000000
20
-1187.559055
30
0
40
27.500000
0
HATCH
5
114
100
AcDbEntity
8
DRILL
62
255
100
AcDbHatch
10
0.0
20
0.0
30
0.0
210
0.0
220
0.0
230
1.0
2
SOLID
70
1
71
0
91
1
92
1
93
1
72
2
10
4440.000000
20
-660.000000
40
27.500000
50
0.000000
51
360.000000
73
1
97
0
75
0
76
0
98
1
10
0.0
20
0.0
0
CIRCLE
5
115
100
AcDbEntity
8
DRILL
62
255
100
AcDbCircle
39
0.000039
10
4440.000000
20
-660.000000
30
0
40
27.500000
0
HATCH
5
116
100
AcDbEntity
8
DRILL
62
255
100
AcDbHatch
10
0.0
20
0.0
30
0.0
210
0.0
220
0.0
230
1.0
2
SOLID
70
1
71
0
91
1
92
1
93
1
72
2
10
3180.000000
20
-800.000000
40
17.500000
50
0.000000
51
360.000000
73
1
97
0
75
0
76
0
98
1
10
0.0
20
0.0
0
CIRCLE
5
117
100
AcDbEntity
8
DRILL
62
255
100
AcDbCircle
39
0.000039
10
3180.000000
20
-800.000000
30
0
40
17.500000
0
HATCH
5
118
100
AcDbEntity
8
DRILL
62
255
100
AcDbHatch
10
0.0
20
0.0
30
0.0
210
0.0
220
0.0
230
1.0
2
SOLID
70
1
71
0
91
1
92
1
93
1
72
2
10
3080.000000
20
-700.000000
40
17.500000
50
0.000000
51
360.000000
73
1
97
0
75
0
76
0
98
1
10
0.0
20
0.0
0
CIRCLE
5
119
100
AcDbEntity
8
DRILL
62
255
100
AcDbCircle
39
0.000039
10
3080.000000
20
-700.000000
30
0
40
17.500000
0
HATCH
5
11A
100
AcDbEntity
8
DRILL
62
255
100
AcDbHatch
10
0.0
20
0.0
30
0.0
210
0.0
220
0.0
230
1.0
2
SOLID
70
1
71
0
91
1
92
1
93
1
72
2
10
3080.000000
20
-900.000000
40
17.500000
50
0.000000
51
360.000000
73
1
97
0
75
0
76
0
98
1
10
0.0
20
0.0
0
CIRCLE
5
11B
100
AcDbEntity
8
DRILL
62
255
100
AcDbCircle
39
0.000039
10
3080.000000
20
-900.000000
30
0
40
17.500000
0
HATCH
5
11C
100
AcDbEntity
8
DRILL
62
255
100
AcDbHatch
10
0.0
20
0.0
30
0.0
210
0.0
220
0.0
230
1.0
2
SOLID
70
1
71
0
91
1
92
1
93
1
72
2
10
2711.811024
20
-880.000000
40
17.716535
50
0.000000
51
360.000000
73
1
97
0
75
0
76
0
98
1
10
0.0
20
0.0
0
CIRCLE
5
11D
100
AcDbEntity
8
DRILL
62
255
100
AcDbCircle
39
0.000039
10
2711.811024
20
-880.000000
30
0
40
17.716535
0
HATCH
5
11E
100
AcDbEntity
8
DRILL
62
255
100
AcDbHatch
10
0.0
20
0.0
30
0.0
210
0.0
220
0.0
230
1.0
2
SOLID
70
1
71
0
91
1
92
1
93
1
72
2
10
2200.000000
20
-880.000000
40
17.716535
50
0.000000
51
360.000000
73
1
97
0
75
0
76
0
98
1
10
0.0
20
0.0
0
CIRCLE
5
11F
100
AcDbEntity
8
DRILL
62
255
100
AcDbCircle
39
0.000039
10
2200.000000
20
-880.000000
30
0
40
17.716535
0
HATCH
5
120
100
AcDbEntity
8
DRILL
62
255
100
AcDbHatch
10
0.0
20
0.0
30
0.0
210
0.0
220
0.0
230
1.0
2
SOLID
70
1
71
0
91
1
92
1
93
1
72
2
10
5120.000000
20
-720.000000
40
17.500000
50
0.000000
51
360.000000
73
1
97
0
75
0
76
0
98
1
10
0.0
20
0.0
0
CIRCLE
5
121
100
AcDbEntity
8
DRILL
62
255
100
AcDbCircle
39
0.000039
10
5120.000000
20
-720.000000
30
0
40
17.500000
0
HATCH
5
122
100
AcDbEntity
8
DRILL
62
255
100
AcDbHatch
10
0.0
20
0.0
30
0.0
210
0.0
220
0.0
230
1.0
2
SOLID
70
1
71
0
91
1
92
1
93
1
72
2
10
5020.000000
20
-820.000000
40
17.500000
50
0.000000
51
360.000000
73
1
97
0
75
0
76
0
98
1
10
0.0
20
0.0
0
CIRCLE
5
123
100
AcDbEntity
8
DRILL
62
255
100
AcDbCircle
39
0.000039
10
5020.000000
20
-820.000000
30
0
40
17.500000
0
HATCH
5
124
100
AcDbEntity
8
DRILL
62
255
100
AcDbHatch
10
0.0
20
0.0
30
0.0
210
0.0
220
0.0
230
1.0
2
SOLID
70
1
71
0
91
1
92
1
93
1
72
2
10
5220.000000
20
-820.000000
40
17.500000
50
0.000000
51
360.000000
73
1
97
0
75
0
76
0
98
1
10
0.0
20
0.0
0
CIRCLE
5
125
100
AcDbEntity
8
DRILL
62
255
100
AcDbCircle
39
0.000039
10
5220.000000
20
-820.000000
30
0
40
17.500000
0
HATCH
5
126
100
AcDbEntity
8
DRILL
62
255
100
AcDbHatch
10
0.0
20
0.0
30
0.0
210
0.0
220
0.0
230
1.0
2
SOLID
70
1
71
0
91
1
92
1
93
1
72
2
10
6031.811024
20
-820.000000
40
17.716535
50
0.000000
51
360.000000
73
1
97
0
75
0
76
0
98
1
10
0.0
20
0.0
0
CIRCLE
5
127
100
AcDbEntity
8
DRILL
62
255
100
AcDbCircle
39
0.000039
10
6031.811024
20
-820.000000
30
0
40
17.716535
0
HATCH
5
128
100
AcDbEntity
8
DRILL
62
255
100
AcDbHatch
10
0.0
20
0.0
30
0.0
210
0.0
220
0.0
230
1.0
2
SOLID
70
1
71
0
91
1
92
1
93
1
72
2
10
5520.000000
20
-820.000000
40
17.716535
50
0.000000
51
360.000000
73
1
97
0
75
0
76
0
98
1
10
0.0
20
0.0
0
CIRCLE
5
129
100
AcDbEntity
8
DRILL
62
255
100
AcDbCircle
39
0.000039
10
5520.000000
20
-820.000000
30
0
40
17.716535
0
HATCH
5
12A
100
AcDbEntity
8
DRILL
62
255
100
AcDbHatch
10
0.0
20
0.0
30
0.0
210
0.0
220
0.0
230
1.0
2
SOLID
70
1
71
0
91
1
92
1
93
1
72
2
10
532.440945
20
-880.000000
40
27.500000
50
0.000000
51
360.000000
73
1
97
0
75
0
76
0
98
1
10
0.0
20
0.0
0
CIRCLE
5
12B
100
AcDbEntity
8
DRILL
62
255
100
AcDbCircle
39
0.000039
10
532.440945
20
-880.000000
30
0
40
27.500000
0
HATCH
5
12C
100
AcDbEntity
8
DRILL
62
255
100
AcDbHatch
10
0.0
20
0.0
30
0.0
210
0.0
220
0.0
230
1.0
2
SOLID
70
1
71
0
91
1
92
1
93
1
72
2
10
1060.000000
20
-880.000000
40
27.500000
50
0.000000
51
360.000000
73
1
97
0
75
0
76
0
98
1
10
0.0
20
0.0
0
CIRCLE
5
12D
100
AcDbEntity
8
DRILL
62
255
100
AcDbCircle
39
0.000039
10
1060.000000
20
-880.000000
30
0
40
27.500000
0
HATCH
5
12E
100
AcDbEntity
8
DRILL
62
255
100
AcDbHatch
10
0.0
20
0.0
30
0.0
210
0.0
220
0.0
230
1.0
2
SOLID
70
1
71
0
91
1
92
1
93
1
72
2
10
2071.811024
20
-760.000000
40
17.716535
50
0.000000
51
360.000000
73
1
97
0
75
0
76
0
98
1
10
0.0
20
0.0
0
CIRCLE
5
12F
100
AcDbEntity
8
DRILL
62
255
100
AcDbCircle
39
0.000039
10
2071.811024
20
-760.000000
30
0
40
17.716535
0
HATCH
5
130
100
AcDbEntity
8
DRILL
62
255
100
AcDbHatch
10
0.0
20
0.0
30
0.0
210
0.0
220
0.0
230
1.0
2
SOLID
70
1
71
0
91
1
92
1
93
1
72
2
10
1560.000000
20
-760.000000
40
17.716535
50
0.000000
51
360.000000
73
1
97
0
75
0
76
0
98
1
10
0.0
20
0.0
0
CIRCLE
5
131
100
AcDbEntity
8
DRILL
62
255
100
AcDbCircle
39
0.000039
10
1560.000000
20
-760.000000
30
0
40
17.716535
0
HATCH
5
132
100
AcDbEntity
8
DRILL
62
255
100
AcDbHatch
10
0.0
20
0.0
30
0.0
210
0.0
220
0.0
230
1.0
2
SOLID
70
1
71
0
91
1
92
1
93
1
72
2
10
4040.000000
20
-660.000000
40
19.585000
50
0.000000
51
360.000000
73
1
97
0
75
0
76
0
98
1
10
0.0
20
0.0
0
CIRCLE
5
133
100
AcDbEntity
8
DRILL
62
255
100
AcDbCircle
39
0.000039
10
4040.000000
20
-660.000000
30
0
40
19.585000
0
HATCH
5
134
100
AcDbEntity
8
DRILL
62
255
100
AcDbHatch
10
0.0
20
0.0
30
0.0
210
0.0
220
0.0
230
1.0
2
SOLID
70
1
71
0
91
1
92
1
93
1
72
2
10
4140.000000
20
-660.000000
40
17.500000
50
0.000000
51
360.000000
73
1
97
0
75
0
76
0
98
1
10
0.0
20
0.0
0
CIRCLE
5
135
100
AcDbEntity
8
DRILL
62
255
100
AcDbCircle
39
0.000039
10
4140.000000
20
-660.000000
30
0
40
17.500000
0
HATCH
5
136
100
AcDbEntity
8
DRILL
62
255
100
AcDbHatch
10
0.0
20
0.0
30
0.0
210
0.0
220
0.0
230
1.0
2
SOLID
70
1
71
0
91
1
92
1
93
1
72
2
10
720.000000
20
-580.000000
40
19.585000
50
0.000000
51
360.000000
73
1
97
0
75
0
76
0
98
1
10
0.0
20
0.0
0
CIRCLE
5
137
100
AcDbEntity
8
DRILL
62
255
100
AcDbCircle
39
0.000039
10
720.000000
20
-580.000000
30
0
40
19.585000
0
HATCH
5
138
100
AcDbEntity
8
DRILL
62
255
100
AcDbHatch
10
0.0
20
0.0
30
0.0
210
0.0
220
0.0
230
1.0
2
SOLID
70
1
71
0
91
1
92
1
93
1
72
2
10
820.000000
20
-580.000000
40
17.500000
50
0.000000
51
360.000000
73
1
97
0
75
0
76
0
98
1
10
0.0
20
0.0
0
CIRCLE
5
139
100
AcDbEntity
8
DRILL
62
255
100
AcDbCircle
39
0.000039
10
820.000000
20
-580.000000
30
0
40
17.500000
0
HATCH
5
13A
100
AcDbEntity
8
DRILL
62
255
100
AcDbHatch
10
0.0
20
0.0
30
0.0
210
0.0
220
0.0
230
1.0
2
SOLID
70
1
71
0
91
1
92
1
93
1
72
2
10
2071.811024
20
-520.000000
40
17.716535
50
0.000000
51
360.000000
73
1
97
0
75
0
76
0
98
1
10
0.0
20
0.0
0
CIRCLE
5
13B
100
AcDbEntity
8
DRILL
62
255
100
AcDbCircle
39
0.000039
10
2071.811024
20
-520.000000
30
0
40
17.716535
0
HATCH
5
13C
100
AcDbEntity
8
DRILL
62
255
100
AcDbHatch
10
0.0
20
0.0
30
0.0
210
0.0
220
0.0
230
1.0
2
SOLID
70
1
71
0
91
1
92
1
93
1
72
2
10
1560.000000
20
-520.000000
40
17.716535
50
0.000000
51
360.000000
73
1
97
0
75
0
76
0
98
1
10
0.0
20
0.0
0
CIRCLE
5
13D
100
AcDbEntity
8
DRILL
62
255
100
AcDbCircle
39
0.000039
10
1560.000000
20
-520.000000
30
0
40
17.716535
0
HATCH
5
13E
100
AcDbEntity
8
DRILL
62
255
100
AcDbHatch
10
0.0
20
0.0
30
0.0
210
0.0
220
0.0
230
1.0
2
SOLID
70
1
71
0
91
1
92
1
93
1
72
2
10
1240.000039
20
-265.833386
40
17.500000
50
0.000000
51
360.000000
73
1
97
0
75
0
76
0
98
1
10
0.0
20
0.0
0
CIRCLE
5
13F
100
AcDbEntity
8
DRILL
62
255
100
AcDbCircle
39
0.000039
10
1240.000039
20
-265.833386
30
0
40
17.500000
0
HATCH
5
140
100
AcDbEntity
8
DRILL
62
255
100
AcDbHatch
10
0.0
20
0.0
30
0.0
210
0.0
220
0.0
230
1.0
2
SOLID
70
1
71
0
91
1
92
1
93
1
72
2
10
1240.000039
20
-131.666732
40
17.500000
50
0.000000
51
360.000000
73
1
97
0
75
0
76
0
98
1
10
0.0
20
0.0
0
CIRCLE
5
141
100
AcDbEntity
8
DRILL
62
255
100
AcDbCircle
39
0.000039
10
1240.000039
20
-131.666732
30
0
40
17.500000
0
HATCH
5
142
100
AcDbEntity
8
DRILL
62
255
100
AcDbHatch
10
0.0
20
0.0
30
0.0
210
0.0
220
0.0
230
1.0
2
SOLID
70
1
71
0
91
1
92
1
93
1
72
2
10
1338.333346
20
-199.166732
40
17.500000
50
0.000000
51
360.000000
73
1
97
0
75
0
76
0
98
1
10
0.0
20
0.0
0
CIRCLE
5
143
100
AcDbEntity
8
DRILL
62
255
100
AcDbCircle
39
0.000039
10
1338.333346
20
-199.166732
30
0
40
17.500000
0
HATCH
5
144
100
AcDbEntity
8
DRILL
62
255
100
AcDbHatch
10
0.0
20
0.0
30
0.0
210
0.0
220
0.0
230
1.0
2
SOLID
70
1
71
0
91
1
92
1
93
1
72
2
10
1240.000039
20
-400.000039
40
17.500000
50
0.000000
51
360.000000
73
1
97
0
75
0
76
0
98
1
10
0.0
20
0.0
0
CIRCLE
5
145
100
AcDbEntity
8
DRILL
62
255
100
AcDbCircle
39
0.000039
10
1240.000039
20
-400.000039
30
0
40
17.500000
0
HATCH
5
146
100
AcDbEntity
8
DRILL
62
255
100
AcDbHatch
10
0.0
20
0.0
30
0.0
210
0.0
220
0.0
230
1.0
2
SOLID
70
1
71
0
91
1
92
1
93
1
72
2
10
1338.333346
20
-332.500039
40
17.500000
50
0.000000
51
360.000000
73
1
97
0
75
0
76
0
98
1
10
0.0
20
0.0
0
CIRCLE
5
147
100
AcDbEntity
8
DRILL
62
255
100
AcDbCircle
39
0.000039
10
1338.333346
20
-332.500039
30
0
40
17.500000
0
HATCH
5
148
100
AcDbEntity
8
DRILL
62
255
100
AcDbHatch
10
0.0
20
0.0
30
0.0
210
0.0
220
0.0
230
1.0
2
SOLID
70
1
71
0
91
1
92
1
93
1
72
2
10
649.166693
20
-265.833386
40
59.165000
50
0.000000
51
360.000000
73
1
97
0
75
0
76
0
98
1
10
0.0
20
0.0
0
CIRCLE
5
149
100
AcDbEntity
8
DRILL
62
255
100
AcDbCircle
39
0.000039
10
649.166693
20
-265.833386
30
0
40
59.165000
0
HATCH
5
14A
100
AcDbEntity
8
DRILL
62
255
100
AcDbHatch
10
0.0
20
0.0
30
0.0
210
0.0
220
0.0
230
1.0
2
SOLID
70
1
71
0
91
1
92
1
93
1
72
2
10
3780.000000
20
-447.559055
40
27.500000
50
0.000000
51
360.000000
73
1
97
0
75
0
76
0
98
1
10
0.0
20
0.0
0
CIRCLE
5
14B
100
AcDbEntity
8
DRILL
62
255
100
AcDbCircle
39
0.000039
10
3780.000000
20
-447.559055
30
0
40
27.500000
0
HATCH
5
14C
100
AcDbEntity
8
DRILL
62
255
100
AcDbHatch
10
0.0
20
0.0
30
0.0
210
0.0
220
0.0
230
1.0
2
SOLID
70
1
71
0
91
1
92
1
93
1
72
2
10
3780.000000
20
80.000000
40
27.500000
50
0.000000
51
360.000000
73
1
97
0
75
0
76
0
98
1
10
0.0
20
0.0
0
CIRCLE
5
14D
100
AcDbEntity
8
DRILL
62
255
100
AcDbCircle
39
0.000039
10
3780.000000
20
80.000000
30
0
40
27.500000
0
HATCH
5
14E
100
AcDbEntity
8
DRILL
62
255
100
AcDbHatch
10
0.0
20
0.0
30
0.0
210
0.0
220
0.0
230
1.0
2
SOLID
70
1
71
0
91
1
92
1
93
1
72
2
10
4440.000000
20
-447.559055
40
27.500000
50
0.000000
51
360.000000
73
1
97
0
75
0
76
0
98
1
10
0.0
20
0.0
0
CIRCLE
5
14F
100
AcDbEntity
8
DRILL
62
255
100
AcDbCircle
39
0.000039
10
4440.000000
20
-447.559055
30
0
40
27.500000
0
HATCH
5
150
100
AcDbEntity
8
DRILL
62
255
100
AcDbHatch
10
0.0
20
0.0
30
0.0
210
0.0
220
0.0
230
1.0
2
SOLID
70
1
71
0
91
1
92
1
93
1
72
2
10
4440.000000
20
80.000000
40
27.500000
50
0.000000
51
360.000000
73
1
97
0
75
0
76
0
98
1
10
0.0
20
0.0
0
CIRCLE
5
151
100
AcDbEntity
8
DRILL
62
255
100
AcDbCircle
39
0.000039
10
4440.000000
20
80.000000
30
0
40
27.500000
0
HATCH
5
152
100
AcDbEntity
8
DRILL
62
255
100
AcDbHatch
10
0.0
20
0.0
30
0.0
210
0.0
220
0.0
230
1.0
2
SOLID
70
1
71
0
91
1
92
1
93
1
72
2
10
6700.000000
20
-470.000000
40
11.811024
50
0.000000
51
360.000000
73
1
97
0
75
0
76
0
98
1
10
0.0
20
0.0
0
CIRCLE
5
153
100
AcDbEntity
8
DRILL
62
255
100
AcDbCircle
39
0.000039
10
6700.000000
20
-470.000000
30
0
40
11.811024
0
HATCH
5
154
100
AcDbEntity
8
DRILL
62
255
100
AcDbHatch
10
0.0
20
0.0
30
0.0
210
0.0
220
0.0
230
1.0
2
SOLID
70
1
71
0
91
1
92
1
93
1
72
2
10
7239.999961
20
-468.333268
40
17.500000
50
0.000000
51
360.000000
73
1
97
0
75
0
76
0
98
1
10
0.0
20
0.0
0
CIRCLE
5
155
100
AcDbEntity
8
DRILL
62
255
100
AcDbCircle
39
0.000039
10
7239.999961
20
-468.333268
30
0
40
17.500000
0
HATCH
5
156
100
AcDbEntity
8
DRILL
62
255
100
AcDbHatch
10
0.0
20
0.0
30
0.0
210
0.0
220
0.0
230
1.0
2
SOLID
70
1
71
0
91
1
92
1
93
1
72
2
10
7141.666654
20
-400.833268
40
17.500000
50
0.000000
51
360.000000
73
1
97
0
75
0
76
0
98
1
10
0.0
20
0.0
0
CIRCLE
5
157
100
AcDbEntity
8
DRILL
62
255
100
AcDbCircle
39
0.000039
10
7141.666654
20
-400.833268
30
0
40
17.500000
0
HATCH
5
158
100
AcDbEntity
8
DRILL
62
255
100
AcDbHatch
10
0.0
20
0.0
30
0.0
210
0.0
220
0.0
230
1.0
2
SOLID
70
1
71
0
91
1
92
1
93
1
72
2
10
7239.999961
20
-199.999961
40
17.500000
50
0.000000
51
360.000000
73
1
97
0
75
0
76
0
98
1
10
0.0
20
0.0
0
CIRCLE
5
159
100
AcDbEntity
8
DRILL
62
255
100
AcDbCircle
39
0.000039
10
7239.999961
20
-199.999961
30
0
40
17.500000
0
HATCH
5
15A
100
AcDbEntity
8
DRILL
62
255
100
AcDbHatch
10
0.0
20
0.0
30
0.0
210
0.0
220
0.0
230
1.0
2
SOLID
70
1
71
0
91
1
92
1
93
1
72
2
10
7141.666654
20
-267.499961
40
17.500000
50
0.000000
51
360.000000
73
1
97
0
75
0
76
0
98
1
10
0.0
20
0.0
0
CIRCLE
5
15B
100
AcDbEntity
8
DRILL
62
255
100
AcDbCircle
39
0.000039
10
7141.666654
20
-267.499961
30
0
40
17.500000
0
HATCH
5
15C
100
AcDbEntity
8
DRILL
62
255
100
AcDbHatch
10
0.0
20
0.0
30
0.0
210
0.0
220
0.0
230
1.0
2
SOLID
70
1
71
0
91
1
92
1
93
1
72
2
10
7239.999961
20
-334.166614
40
17.500000
50
0.000000
51
360.000000
73
1
97
0
75
0
76
0
98
1
10
0.0
20
0.0
0
CIRCLE
5
15D
100
AcDbEntity
8
DRILL
62
255
100
AcDbCircle
39
0.000039
10
7239.999961
20
-334.166614
30
0
40
17.500000
0
HATCH
5
15E
100
AcDbEntity
8
DRILL
62
255
100
AcDbHatch
10
0.0
20
0.0
30
0.0
210
0.0
220
0.0
230
1.0
2
SOLID
70
1
71
0
91
1
92
1
93
1
72
2
10
7830.833307
20
-334.166614
40
59.165000
50
0.000000
51
360.000000
73
1
97
0
75
0
76
0
98
1
10
0.0
20
0.0
0
CIRCLE
5
15F
100
AcDbEntity
8
DRILL
62
255
100
AcDbCircle
39
0.000039
10
7830.833307
20
-334.166614
30
0
40
59.165000
0
HATCH
5
160
100
AcDbEntity
8
DRILL
62
255
100
AcDbHatch
10
0.0
20
0.0
30
0.0
210
0.0
220
0.0
230
1.0
2
SOLID
70
1
71
0
91
1
92
1
93
1
72
2
10
3060.000000
20
-120.000000
40
17.500000
50
0.000000
51
360.000000
73
1
97
0
75
0
76
0
98
1
10
0.0
20
0.0
0
CIRCLE
5
161
100
AcDbEntity
8
DRILL
62
255
100
AcDbCircle
39
0.000039
10
3060.000000
20
-120.000000
30
0
40
17.500000
0
HATCH
5
162
100
AcDbEntity
8
DRILL
62
255
100
AcDbHatch
10
0.0
20
0.0
30
0.0
210
0.0
220
0.0
230
1.0
2
SOLID
70
1
71
0
91
1
92
1
93
1
72
2
10
2960.000000
20
-220.000000
40
17.500000
50
0.000000
51
360.000000
73
1
97
0
75
0
76
0
98
1
10
0.0
20
0.0
0
CIRCLE
5
163
100
AcDbEntity
8
DRILL
62
255
100
AcDbCircle
39
0.000039
10
2960.000000
20
-220.000000
30
0
40
17.500000
0
HATCH
5
164
100
AcDbEntity
8
DRILL
62
255
100
AcDbHatch
10
0.0
20
0.0
30
0.0
210
0.0
220
0.0
230
1.0
2
SOLID
70
1
71
0
91
1
92
1
93
1
72
2
10
3160.000000
20
-220.000000
40
17.500000
50
0.000000
51
360.000000
73
1
97
0
75
0
76
0
98
1
10
0.0
20
0.0
0
CIRCLE
5
165
100
AcDbEntity
8
DRILL
62
255
100
AcDbCircle
39
0.000039
10
3160.000000
20
-220.000000
30
0
40
17.500000
0
HATCH
5
166
100
AcDbEntity
8
DRILL
62
255
100
AcDbHatch
10
0.0
20
0.0
30
0.0
210
0.0
220
0.0
230
1.0
2
SOLID
70
1
71
0
91
1
92
1
93
1
72
2
10
6051.811024
20
-320.000000
40
17.716535
50
0.000000
51
360.000000
73
1
97
0
75
0
76
0
98
1
10
0.0
20
0.0
0
CIRCLE
5
167
100
AcDbEntity
8
DRILL
62
255
100
AcDbCircle
39
0.000039
10
6051.811024
20
-320.000000
30
0
40
17.716535
0
HATCH
5
168
100
AcDbEntity
8
DRILL
62
255
100
AcDbHatch
10
0.0
20
0.0
30
0.0
210
0.0
220
0.0
230
1.0
2
SOLID
70
1
71
0
91
1
92
1
93
1
72
2
10
5540.000000
20
-320.000000
40
17.716535
50
0.000000
51
360.000000
73
1
97
0
75
0
76
0
98
1
10
0.0
20
0.0
0
CIRCLE
5
169
100
AcDbEntity
8
DRILL
62
255
100
AcDbCircle
39
0.000039
10
5540.000000
20
-320.000000
30
0
40
17.716535
0
HATCH
5
16A
100
AcDbEntity
8
DRILL
62
255
100
AcDbHatch
10
0.0
20
0.0
30
0.0
210
0.0
220
0.0
230
1.0
2
SOLID
70
1
71
0
91
1
92
1
93
1
72
2
10
5040.000000
20
-160.000000
40
17.500000
50
0.000000
51
360.000000
73
1
97
0
75
0
76
0
98
1
10
0.0
20
0.0
0
CIRCLE
5
16B
100
AcDbEntity
8
DRILL
62
255
100
AcDbCircle
39
0.000039
10
5040.000000
20
-160.000000
30
0
40
17.500000
0
HATCH
5
16C
100
AcDbEntity
8
DRILL
62
255
100
AcDbHatch
10
0.0
20
0.0
30
0.0
210
0.0
220
0.0
230
1.0
2
SOLID
70
1
71
0
91
1
92
1
93
1
72
2
10
5140.000000
20
-60.000000
40
17.500000
50
0.000000
51
360.000000
73
1
97
0
75
0
76
0
98
1
10
0.0
20
0.0
0
CIRCLE
5
16D
100
AcDbEntity
8
DRILL
62
255
100
AcDbCircle
39
0.000039
10
5140.000000
20
-60.000000
30
0
40
17.500000
0
HATCH
5
16E
100
AcDbEntity
8
DRILL
62
255
100
AcDbHatch
10
0.0
20
0.0
30
0.0
210
0.0
220
0.0
230
1.0
2
SOLID
70
1
71
0
91
1
92
1
93
1
72
2
10
5240.000000
20
-160.000000
40
17.500000
50
0.000000
51
360.000000
73
1
97
0
75
0
76
0
98
1
10
0.0
20
0.0
0
CIRCLE
5
16F
100
AcDbEntity
8
DRILL
62
255
100
AcDbCircle
39
0.000039
10
5240.000000
20
-160.000000
30
0
40
17.500000
0
HATCH
5
170
100
AcDbEntity
8
DRILL
62
255
100
AcDbHatch
10
0.0
20
0.0
30
0.0
210
0.0
220
0.0
230
1.0
2
SOLID
70
1
71
0
91
1
92
1
93
1
72
2
10
380.000000
20
-200.000000
40
17.500000
50
0.000000
51
360.000000
73
1
97
0
75
0
76
0
98
1
10
0.0
20
0.0
0
CIRCLE
5
171
100
AcDbEntity
8
DRILL
62
255
100
AcDbCircle
39
0.000039
10
380.000000
20
-200.000000
30
0
40
17.500000
0
HATCH
5
172
100
AcDbEntity
8
DRILL
62
255
100
AcDbHatch
10
0.0
20
0.0
30
0.0
210
0.0
220
0.0
230
1.0
2
SOLID
70
1
71
0
91
1
92
1
93
1
72
2
10
380.000000
20
-100.000000
40
19.585000
50
0.000000
51
360.000000
73
1
97
0
75
0
76
0
98
1
10
0.0
20
0.0
0
CIRCLE
5
173
100
AcDbEntity
8
DRILL
62
255
100
AcDbCircle
39
0.000039
10
380.000000
20
-100.000000
30
0
40
19.585000
0
HATCH
5
174
100
AcDbEntity
8
DRILL
62
255
100
AcDbHatch
10
0.0
20
0.0
30
0.0
210
0.0
220
0.0
230
1.0
2
SOLID
70
1
71
0
91
1
92
1
93
1
72
2
10
6791.811024
20
-120.000000
40
17.716535
50
0.000000
51
360.000000
73
1
97
0
75
0
76
0
98
1
10
0.0
20
0.0
0
CIRCLE
5
175
100
AcDbEntity
8
DRILL
62
255
100
AcDbCircle
39
0.000039
10
6791.811024
20
-120.000000
30
0
40
17.716535
0
HATCH
5
176
100
AcDbEntity
8
DRILL
62
255
100
AcDbHatch
10
0.0
20
0.0
30
0.0
210
0.0
220
0.0
230
1.0
2
SOLID
70
1
71
0
91
1
92
1
93
1
72
2
10
6280.000000
20
-120.000000
40
17.716535
50
0.000000
51
360.000000
73
1
97
0
75
0
76
0
98
1
10
0.0
20
0.0
0
CIRCLE
5
177
100
AcDbEntity
8
DRILL
62
255
100
AcDbCircle
39
0.000039
10
6280.000000
20
-120.000000
30
0
40
17.716535
0
HATCH
5
178
100
AcDbEntity
8
DRILL
62
255
100
AcDbHatch
10
0.0
20
0.0
30
0.0
210
0.0
220
0.0
230
1.0
2
SOLID
70
1
71
0
91
1
92
1
93
1
72
2
10
2811.811024
20
-100.000000
40
17.716535
50
0.000000
51
360.000000
73
1
97
0
75
0
76
0
98
1
10
0.0
20
0.0
0
CIRCLE
5
179
100
AcDbEntity
8
DRILL
62
255
100
AcDbCircle
39
0.000039
10
2811.811024
20
-100.000000
30
0
40
17.716535
0
HATCH
5
17A
100
AcDbEntity
8
DRILL
62
255
100
AcDbHatch
10
0.0
20
0.0
30
0.0
210
0.0
220
0.0
230
1.0
2
SOLID
70
1
71
0
91
1
92
1
93
1
72
2
10
2300.000000
20
-100.000000
40
17.716535
50
0.000000
51
360.000000
73
1
97
0
75
0
76
0
98
1
10
0.0
20
0.0
0
CIRCLE
5
17B
100
AcDbEntity
8
DRILL
62
255
100
AcDbCircle
39
0.000039
10
2300.000000
20
-100.000000
30
0
40
17.716535
0
HATCH
5
17C
100
AcDbEntity
8
DRILL
62
255
100
AcDbHatch
10
0.0
20
0.0
30
0.0
210
0.0
220
0.0
230
1.0
2
SOLID
70
1
71
0
91
1
92
1
93
1
72
2
10
5770.000000
20
-130.000000
40
11.811024
50
0.000000
51
360.000000
73
1
97
0
75
0
76
0
98
1
10
0.0
20
0.0
0
CIRCLE
5
17D
100
AcDbEntity
8
DRILL
62
255
100
AcDbCircle
39
0.000039
10
5770.000000
20
-130.000000
30
0
40
11.811024
0
HATCH
5
17E
100
AcDbEntity
8
DRILL
62
255
100
AcDbHatch
10
0.0
20
0.0
30
0.0
210
0.0
220
0.0
230
1.0
2
SOLID
70
1
71
0
91
1
92
1
93
1
72
2
10
7420.000000
20
-20.000000
40
27.500000
50
0.000000
51
360.000000
73
1
97
0
75
0
76
0
98
1
10
0.0
20
0.0
0
CIRCLE
5
17F
100
AcDbEntity
8
DRILL
62
255
100
AcDbCircle
39
0.000039
10
7420.000000
20
-20.000000
30
0
40
27.500000
0
HATCH
5
180
100
AcDbEntity
8
DRILL
62
255
100
AcDbHatch
10
0.0
20
0.0
30
0.0
210
0.0
220
0.0
230
1.0
2
SOLID
70
1
71
0
91
1
92
1
93
1
72
2
10
7947.559055
20
-20.000000
40
27.500000
50
0.000000
51
360.000000
73
1
97
0
75
0
76
0
98
1
10
0.0
20
0.0
0
CIRCLE
5
181
100
AcDbEntity
8
DRILL
62
255
100
AcDbCircle
39
0.000039
10
7947.559055
20
-20.000000
30
0
40
27.500000
0
HATCH
5
182
100
AcDbEntity
8
DRILL
62
255
100
AcDbHatch
10
0.0
20
0.0
30
0.0
210
0.0
220
0.0
230
1.0
2
SOLID
70
1
71
0
91
1
92
1
93
1
72
2
10
6811.811024
20
120.000000
40
17.716535
50
0.000000
51
360.000000
73
1
97
0
75
0
76
0
98
1
10
0.0
20
0.0
0
CIRCLE
5
183
100
AcDbEntity
8
DRILL
62
255
100
AcDbCircle
39
0.000039
10
6811.811024
20
120.000000
30
0
40
17.716535
0
HATCH
5
184
100
AcDbEntity
8
DRILL
62
255
100
AcDbHatch
10
0.0
20
0.0
30
0.0
210
0.0
220
0.0
230
1.0
2
SOLID
70
1
71
0
91
1
92
1
93
1
72
2
10
6300.000000
20
120.000000
40
17.716535
50
0.000000
51
360.000000
73
1
97
0
75
0
76
0
98
1
10
0.0
20
0.0
0
CIRCLE
5
185
100
AcDbEntity
8
DRILL
62
255
100
AcDbCircle
39
0.000039
10
6300.000000
20
120.000000
30
0
40
17.716535
0
HATCH
5
186
100
AcDbEntity
8
DRILL
62
255
100
AcDbHatch
10
0.0
20
0.0
30
0.0
210
0.0
220
0.0
230
1.0
2
SOLID
70
1
71
0
91
1
92
1
93
1
72
2
10
3800.000000
20
-2727.559055
40
27.500000
50
0.000000
51
360.000000
73
1
97
0
75
0
76
0
98
1
10
0.0
20
0.0
0
CIRCLE
5
187
100
AcDbEntity
8
DRILL
62
255
100
AcDbCircle
39
0.000039
10
3800.000000
20
-2727.559055
30
0
40
27.500000
0
HATCH
5
188
100
AcDbEntity
8
DRILL
62
255
100
AcDbHatch
10
0.0
20
0.0
30
0.0
210
0.0
220
0.0
230
1.0
2
SOLID
70
1
71
0
91
1
92
1
93
1
72
2
10
3800.000000
20
-2200.000000
40
27.500000
50
0.000000
51
360.000000
73
1
97
0
75
0
76
0
98
1
10
0.0
20
0.0
0
CIRCLE
5
189
100
AcDbEntity
8
DRILL
62
255
100
AcDbCircle
39
0.000039
10
3800.000000
20
-2200.000000
30
0
40
27.500000
0
HATCH
5
18A
100
AcDbEntity
8
DRILL
62
255
100
AcDbHatch
10
0.0
20
0.0
30
0.0
210
0.0
220
0.0
230
1.0
2
SOLID
70
1
71
0
91
1
92
1
93
1
72
2
10
4460.000000
20
-2727.559055
40
27.500000
50
0.000000
51
360.000000
73
1
97
0
75
0
76
0
98
1
10
0.0
20
0.0
0
CIRCLE
5
18B
100
AcDbEntity
8
DRILL
62
255
100
AcDbCircle
39
0.000039
10
4460.000000
20
-2727.559055
30
0
40
27.500000
0
HATCH
5
18C
100
AcDbEntity
8
DRILL
62
255
100
AcDbHatch
10
0.0
20
0.0
30
0.0
210
0.0
220
0.0
230
1.0
2
SOLID
70
1
71
0
91
1
92
1
93
1
72
2
10
4460.000000
20
-2200.000000
40
27.500000
50
0.000000
51
360.000000
73
1
97
0
75
0
76
0
98
1
10
0.0
20
0.0
0
CIRCLE
5
18D
100
AcDbEntity
8
DRILL
62
255
100
AcDbCircle
39
0.000039
10
4460.000000
20
-2200.000000
30
0
40
27.500000
0
HATCH
5
18E
100
AcDbEntity
8
DRILL
62
255
100
AcDbHatch
10
0.0
20
0.0
30
0.0
210
0.0
220
0.0
230
1.0
2
SOLID
70
1
71
0
91
1
92
1
93
1
72
2
10
3200.000000
20
-2340.000000
40
17.500000
50
0.000000
51
360.000000
73
1
97
0
75
0
76
0
98
1
10
0.0
20
0.0
0
CIRCLE
5
18F
100
AcDbEntity
8
DRILL
62
255
100
AcDbCircle
39
0.000039
10
3200.000000
20
-2340.000000
30
0
40
17.500000
0
HATCH
5
190
100
AcDbEntity
8
DRILL
62
255
100
AcDbHatch
10
0.0
20
0.0
30
0.0
210
0.0
220
0.0
230
1.0
2
SOLID
70
1
71
0
91
1
92
1
93
1
72
2
10
3100.000000
20
-2240.000000
40
17.500000
50
0.000000
51
360.000000
73
1
97
0
75
0
76
0
98
1
10
0.0
20
0.0
0
CIRCLE
5
191
100
AcDbEntity
8
DRILL
62
255
100
AcDbCircle
39
0.000039
10
3100.000000
20
-2240.000000
30
0
40
17.500000
0
HATCH
5
192
100
AcDbEntity
8
DRILL
62
255
100
AcDbHatch
10
0.0
20
0.0
30
0.0
210
0.0
220
0.0
230
1.0
2
SOLID
70
1
71
0
91
1
92
1
93
1
72
2
10
3100.000000
20
-2440.000000
40
17.500000
50
0.000000
51
360.000000
73
1
97
0
75
0
76
0
98
1
10
0.0
20
0.0
0
CIRCLE
5
193
100
AcDbEntity
8
DRILL
62
255
100
AcDbCircle
39
0.000039
10
3100.000000
20
-2440.000000
30
0
40
17.500000
0
HATCH
5
194
100
AcDbEntity
8
DRILL
62
255
100
AcDbHatch
10
0.0
20
0.0
30
0.0
210
0.0
220
0.0
230
1.0
2
SOLID
70
1
71
0
91
1
92
1
93
1
72
2
10
2731.811024
20
-2420.000000
40
17.716535
50
0.000000
51
360.000000
73
1
97
0
75
0
76
0
98
1
10
0.0
20
0.0
0
CIRCLE
5
195
100
AcDbEntity
8
DRILL
62
255
100
AcDbCircle
39
0.000039
10
2731.811024
20
-2420.000000
30
0
40
17.716535
0
HATCH
5
196
100
AcDbEntity
8
DRILL
62
255
100
AcDbHatch
10
0.0
20
0.0
30
0.0
210
0.0
220
0.0
230
1.0
2
SOLID
70
1
71
0
91
1
92
1
93
1
72
2
10
2220.000000
20
-2420.000000
40
17.716535
50
0.000000
51
360.000000
73
1
97
0
75
0
76
0
98
1
10
0.0
20
0.0
0
CIRCLE
5
197
100
AcDbEntity
8
DRILL
62
255
100
AcDbCircle
39
0.000039
10
2220.000000
20
-2420.000000
30
0
40
17.716535
0
HATCH
5
198
100
AcDbEntity
8
DRILL
62
255
100
AcDbHatch
10
0.0
20
0.0
30
0.0
210
0.0
220
0.0
230
1.0
2
SOLID
70
1
71
0
91
1
92
1
93
1
72
2
10
5140.000000
20
-2260.000000
40
17.500000
50
0.000000
51
360.000000
73
1
97
0
75
0
76
0
98
1
10
0.0
20
0.0
0
CIRCLE
5
199
100
AcDbEntity
8
DRILL
62
255
100
AcDbCircle
39
0.000039
10
5140.000000
20
-2260.000000
30
0
40
17.500000
0
HATCH
5
19A
100
AcDbEntity
8
DRILL
62
255
100
AcDbHatch
10
0.0
20
0.0
30
0.0
210
0.0
220
0.0
230
1.0
2
SOLID
70
1
71
0
91
1
92
1
93
1
72
2
10
5040.000000
20
-2360.000000
40
17.500000
50
0.000000
51
360.000000
73
1
97
0
75
0
76
0
98
1
10
0.0
20
0.0
0
CIRCLE
5
19B
100
AcDbEntity
8
DRILL
62
255
100
AcDbCircle
39
0.000039
10
5040.000000
20
-2360.000000
30
0
40
17.500000
0
HATCH
5
19C
100
AcDbEntity
8
DRILL
62
255
100
AcDbHatch
10
0.0
20
0.0
30
0.0
210
0.0
220
0.0
230
1.0
2
SOLID
70
1
71
0
91
1
92
1
93
1
72
2
10
5240.000000
20
-2360.000000
40
17.500000
50
0.000000
51
360.000000
73
1
97
0
75
0
76
0
98
1
10
0.0
20
0.0
0
CIRCLE
5
19D
100
AcDbEntity
8
DRILL
62
255
100
AcDbCircle
39
0.000039
10
5240.000000
20
-2360.000000
30
0
40
17.500000
0
HATCH
5
19E
100
AcDbEntity
8
DRILL
62
255
100
AcDbHatch
10
0.0
20
0.0
30
0.0
210
0.0
220
0.0
230
1.0
2
SOLID
70
1
71
0
91
1
92
1
93
1
72
2
10
6051.811024
20
-2360.000000
40
17.716535
50
0.000000
51
360.000000
73
1
97
0
75
0
76
0
98
1
10
0.0
20
0.0
0
CIRCLE
5
19F
100
AcDbEntity
8
DRILL
62
255
100
AcDbCircle
39
0.000039
10
6051.811024
20
-2360.000000
30
0
40
17.716535
0
HATCH
5
1A0
100
AcDbEntity
8
DRILL
62
255
100
AcDbHatch
10
0.0
20
0.0
30
0.0
210
0.0
220
0.0
230
1.0
2
SOLID
70
1
71
0
91
1
92
1
93
1
72
2
10
5540.000000
20
-2360.000000
40
17.716535
50
0.000000
51
360.000000
73
1
97
0
75
0
76
0
98
1
10
0.0
20
0.0
0
CIRCLE
5
1A1
100
AcDbEntity
8
DRILL
62
255
100
AcDbCircle
39
0.000039
10
5540.000000
20
-2360.000000
30
0
40
17.716535
0
HATCH
5
1A2
100
AcDbEntity
8
DRILL
62
255
100
AcDbHatch
10
0.0
20
0.0
30
0.0
210
0.0
220
0.0
230
1.0
2
SOLID
70
1
71
0
91
1
92
1
93
1
72
2
10
552.440945
20
-2420.000000
40
27.500000
50
0.000000
51
360.000000
73
1
97
0
75
0
76
0
98
1
10
0.0
20
0.0
0
CIRCLE
5
1A3
100
AcDbEntity
8
DRILL
62
255
100
AcDbCircle
39
0.000039
10
552.440945
20
-2420.000000
30
0
40
27.500000
0
HATCH
5
1A4
100
AcDbEntity
8
DRILL
62
255
100
AcDbHatch
10
0.0
20
0.0
30
0.0
210
0.0
220
0.0
230
1.0
2
SOLID
70
1
71
0
91
1
92
1
93
1
72
2
10
1080.000000
20
-2420.000000
40
27.500000
50
0.000000
51
360.000000
73
1
97
0
75
0
76
0
98
1
10
0.0
20
0.0
0
CIRCLE
5
1A5
100
AcDbEntity
8
DRILL
62
255
100
AcDbCircle
39
0.000039
10
1080.000000
20
-2420.000000
30
0
40
27.500000
0
HATCH
5
1A6
100
AcDbEntity
8
DRILL
62
255
100
AcDbHatch
10
0.0
20
0.0
30
0.0
210
0.0
220
0.0
230
1.0
2
SOLID
70
1
71
0
91
1
92
1
93
1
72
2
10
2091.811024
20
-2300.000000
40
17.716535
50
0.000000
51
360.000000
73
1
97
0
75
0
76
0
98
1
10
0.0
20
0.0
0
CIRCLE
5
1A7
100
AcDbEntity
8
DRILL
62
255
100
AcDbCircle
39
0.000039
10
2091.811024
20
-2300.000000
30
0
40
17.716535
0
HATCH
5
1A8
100
AcDbEntity
8
DRILL
62
255
100
AcDbHatch
10
0.0
20
0.0
30
0.0
210
0.0
220
0.0
230
1.0
2
SOLID
70
1
71
0
91
1
92
1
93
1
72
2
10
1580.000000
20
-2300.000000
40
17.716535
50
0.000000
51
360.000000
73
1
97
0
75
0
76
0
98
1
10
0.0
20
0.0
0
CIRCLE
5
1A9
100
AcDbEntity
8
DRILL
62
255
100
AcDbCircle
39
0.000039
10
1580.000000
20
-2300.000000
30
0
40
17.716535
0
HATCH
5
1AA
100
AcDbEntity
8
DRILL
62
255
100
AcDbHatch
10
0.0
20
0.0
30
0.0
210
0.0
220
0.0
230
1.0
2
SOLID
70
1
71
0
91
1
92
1
93
1
72
2
10
2091.811024
20
-2060.000000
40
17.716535
50
0.000000
51
360.000000
73
1
97
0
75
0
76
0
98
1
10
0.0
20
0.0
0
CIRCLE
5
1AB
100
AcDbEntity
8
DRILL
62
255
100
AcDbCircle
39
0.000039
10
2091.811024
20
-2060.000000
30
0
40
17.716535
0
HATCH
5
1AC
100
AcDbEntity
8
DRILL
62
255
100
AcDbHatch
10
0.0
20
0.0
30
0.0
210
0.0
220
0.0
230
1.0
2
SOLID
70
1
71
0
91
1
92
1
93
1
72
2
10
1580.000000
20
-2060.000000
40
17.716535
50
0.000000
51
360.000000
73
1
97
0
75
0
76
0
98
1
10
0.0
20
0.0
0
CIRCLE
5
1AD
100
AcDbEntity
8
DRILL
62
255
100
AcDbCircle
39
0.000039
10
1580.000000
20
-2060.000000
30
0
40
17.716535
0
HATCH
5
1AE
100
AcDbEntity
8
DRILL
62
255
100
AcDbHatch
10
0.0
20
0.0
30
0.0
210
0.0
220
0.0
230
1.0
2
SOLID
70
1
71
0
91
1
92
1
93
1
72
2
10
1260.000039
20
-1805.833386
40
17.500000
50
0.000000
51
360.000000
73
1
97
0
75
0
76
0
98
1
10
0.0
20
0.0
0
CIRCLE
5
1AF
100
AcDbEntity
8
DRILL
62
255
100
AcDbCircle
39
0.000039
10
1260.000039
20
-1805.833386
30
0
40
17.500000
0
HATCH
5
1B0
100
AcDbEntity
8
DRILL
62
255
100
AcDbHatch
10
0.0
20
0.0
30
0.0
210
0.0
220
0.0
230
1.0
2
SOLID
70
1
71
0
91
1
92
1
93
1
72
2
10
1260.000039
20
-1671.666732
40
17.500000
50
0.000000
51
360.000000
73
1
97
0
75
0
76
0
98
1
10
0.0
20
0.0
0
CIRCLE
5
1B1
100
AcDbEntity
8
DRILL
62
255
100
AcDbCircle
39
0.000039
10
1260.000039
20
-1671.666732
30
0
40
17.500000
0
HATCH
5
1B2
100
AcDbEntity
8
DRILL
62
255
100
AcDbHatch
10
0.0
20
0.0
30
0.0
210
0.0
220
0.0
230
1.0
2
SOLID
70
1
71
0
91
1
92
1
93
1
72
2
10
1358.333346
20
-1739.166732
40
17.500000
50
0.000000
51
360.000000
73
1
97
0
75
0
76
0
98
1
10
0.0
20
0.0
0
CIRCLE
5
1B3
100
AcDbEntity
8
DRILL
62
255
100
AcDbCircle
39
0.000039
10
1358.333346
20
-1739.166732
30
0
40
17.500000
0
HATCH
5
1B4
100
AcDbEntity
8
DRILL
62
255
100
AcDbHatch
10
0.0
20
0.0
30
0.0
210
0.0
220
0.0
230
1.0
2
SOLID
70
1
71
0
91
1
92
1
93
1
72
2
10
1260.000039
20
-1940.000039
40
17.500000
50
0.000000
51
360.000000
73
1
97
0
75
0
76
0
98
1
10
0.0
20
0.0
0
CIRCLE
5
1B5
100
AcDbEntity
8
DRILL
62
255
100
AcDbCircle
39
0.000039
10
1260.000039
20
-1940.000039
30
0
40
17.500000
0
HATCH
5
1B6
100
AcDbEntity
8
DRILL
62
255
100
AcDbHatch
10
0.0
20
0.0
30
0.0
210
0.0
220
0.0
230
1.0
2
SOLID
70
1
71
0
91
1
92
1
93
1
72
2
10
1358.333346
20
-1872.500039
40
17.500000
50
0.000000
51
360.000000
73
1
97
0
75
0
76
0
98
1
10
0.0
20
0.0
0
CIRCLE
5
1B7
100
AcDbEntity
8
DRILL
62
255
100
AcDbCircle
39
0.000039
10
1358.333346
20
-1872.500039
30
0
40
17.500000
0
HATCH
5
1B8
100
AcDbEntity
8
DRILL
62
255
100
AcDbHatch
10
0.0
20
0.0
30
0.0
210
0.0
220
0.0
230
1.0
2
SOLID
70
1
71
0
91
1
92
1
93
1
72
2
10
669.166693
20
-1805.833386
40
59.165000
50
0.000000
51
360.000000
73
1
97
0
75
0
76
0
98
1
10
0.0
20
0.0
0
CIRCLE
5
1B9
100
AcDbEntity
8
DRILL
62
255
100
AcDbCircle
39
0.000039
10
669.166693
20
-1805.833386
30
0
40
59.165000
0
HATCH
5
1BA
100
AcDbEntity
8
DRILL
62
255
100
AcDbHatch
10
0.0
20
0.0
30
0.0
210
0.0
220
0.0
230
1.0
2
SOLID
70
1
71
0
91
1
92
1
93
1
72
2
10
3800.000000
20
-1987.559055
40
27.500000
50
0.000000
51
360.000000
73
1
97
0
75
0
76
0
98
1
10
0.0
20
0.0
0
CIRCLE
5
1BB
100
AcDbEntity
8
DRILL
62
255
100
AcDbCircle
39
0.000039
10
3800.000000
20
-1987.559055
30
0
40
27.500000
0
HATCH
5
1BC
100
AcDbEntity
8
DRILL
62
255
100
AcDbHatch
10
0.0
20
0.0
30
0.0
210
0.0
220
0.0
230
1.0
2
SOLID
70
1
71
0
91
1
92
1
93
1
72
2
10
3800.000000
20
-1460.000000
40
27.500000
50
0.000000
51
360.000000
73
1
97
0
75
0
76
0
98
1
10
0.0
20
0.0
0
CIRCLE
5
1BD
100
AcDbEntity
8
DRILL
62
255
100
AcDbCircle
39
0.000039
10
3800.000000
20
-1460.000000
30
0
40
27.500000
0
HATCH
5
1BE
100
AcDbEntity
8
DRILL
62
255
100
AcDbHatch
10
0.0
20
0.0
30
0.0
210
0.0
220
0.0
230
1.0
2
SOLID
70
1
71
0
91
1
92
1
93
1
72
2
10
4460.000000
20
-1987.559055
40
27.500000
50
0.000000
51
360.000000
73
1
97
0
75
0
76
0
98
1
10
0.0
20
0.0
0
CIRCLE
5
1BF
100
AcDbEntity
8
DRILL
62
255
100
AcDbCircle
39
0.000039
10
4460.000000
20
-1987.559055
30
0
40
27.500000
0
HATCH
5
1C0
100
AcDbEntity
8
DRILL
62
255
100
AcDbHatch
10
0.0
20
0.0
30
0.0
210
0.0
220
0.0
230
1.0
2
SOLID
70
1
71
0
91
1
92
1
93
1
72
2
10
4460.000000
20
-1460.000000
40
27.500000
50
0.000000
51
360.000000
73
1
97
0
75
0
76
0
98
1
10
0.0
20
0.0
0
CIRCLE
5
1C1
100
AcDbEntity
8
DRILL
62
255
100
AcDbCircle
39
0.000039
10
4460.000000
20
-1460.000000
30
0
40
27.500000
0
HATCH
5
1C2
100
AcDbEntity
8
DRILL
62
255
100
AcDbHatch
10
0.0
20
0.0
30
0.0
210
0.0
220
0.0
230
1.0
2
SOLID
70
1
71
0
91
1
92
1
93
1
72
2
10
6720.000000
20
-2010.000000
40
11.811024
50
0.000000
51
360.000000
73
1
97
0
75
0
76
0
98
1
10
0.0
20
0.0
0
CIRCLE
5
1C3
100
AcDbEntity
8
DRILL
62
255
100
AcDbCircle
39
0.000039
10
6720.000000
20
-2010.000000
30
0
40
11.811024
0
HATCH
5
1C4
100
AcDbEntity
8
DRILL
62
255
100
AcDbHatch
10
0.0
20
0.0
30
0.0
210
0.0
220
0.0
230
1.0
2
SOLID
70
1
71
0
91
1
92
1
93
1
72
2
10
7259.999961
20
-2008.333268
40
17.500000
50
0.000000
51
360.000000
73
1
97
0
75
0
76
0
98
1
10
0.0
20
0.0
0
CIRCLE
5
1C5
100
AcDbEntity
8
DRILL
62
255
100
AcDbCircle
39
0.000039
10
7259.999961
20
-2008.333268
30
0
40
17.500000
0
HATCH
5
1C6
100
AcDbEntity
8
DRILL
62
255
100
AcDbHatch
10
0.0
20
0.0
30
0.0
210
0.0
220
0.0
230
1.0
2
SOLID
70
1
71
0
91
1
92
1
93
1
72
2
10
7161.666654
20
-1940.833268
40
17.500000
50
0.000000
51
360.000000
73
1
97
0
75
0
76
0
98
1
10
0.0
20
0.0
0
CIRCLE
5
1C7
100
AcDbEntity
8
DRILL
62
255
100
AcDbCircle
39
0.000039
10
7161.666654
20
-1940.833268
30
0
40
17.500000
0
HATCH
5
1C8
100
AcDbEntity
8
DRILL
62
255
100
AcDbHatch
10
0.0
20
0.0
30
0.0
210
0.0
220
0.0
230
1.0
2
SOLID
70
1
71
0
91
1
92
1
93
1
72
2
10
7259.999961
20
-1739.999961
40
17.500000
50
0.000000
51
360.000000
73
1
97
0
75
0
76
0
98
1
10
0.0
20
0.0
0
CIRCLE
5
1C9
100
AcDbEntity
8
DRILL
62
255
100
AcDbCircle
39
0.000039
10
7259.999961
20
-1739.999961
30
0
40
17.500000
0
HATCH
5
1CA
100
AcDbEntity
8
DRILL
62
255
100
AcDbHatch
10
0.0
20
0.0
30
0.0
210
0.0
220
0.0
230
1.0
2
SOLID
70
1
71
0
91
1
92
1
93
1
72
2
10
7161.666654
20
-1807.499961
40
17.500000
50
0.000000
51
360.000000
73
1
97
0
75
0
76
0
98
1
10
0.0
20
0.0
0
CIRCLE
5
1CB
100
AcDbEntity
8
DRILL
62
255
100
AcDbCircle
39
0.000039
10
7161.666654
20
-1807.499961
30
0
40
17.500000
0
HATCH
5
1CC
100
AcDbEntity
8
DRILL
62
255
100
AcDbHatch
10
0.0
20
0.0
30
0.0
210
0.0
220
0.0
230
1.0
2
SOLID
70
1
71
0
91
1
92
1
93
1
72
2
10
7259.999961
20
-1874.166614
40
17.500000
50
0.000000
51
360.000000
73
1
97
0
75
0
76
0
98
1
10
0.0
20
0.0
0
CIRCLE
5
1CD
100
AcDbEntity
8
DRILL
62
255
100
AcDbCircle
39
0.000039
10
7259.999961
20
-1874.166614
30
0
40
17.500000
0
HATCH
5
1CE
100
AcDbEntity
8
DRILL
62
255
100
AcDbHatch
10
0.0
20
0.0
30
0.0
210
0.0
220
0.0
230
1.0
2
SOLID
70
1
71
0
91
1
92
1
93
1
72
2
10
7850.833307
20
-1874.166614
40
59.165000
50
0.000000
51
360.000000
73
1
97
0
75
0
76
0
98
1
10
0.0
20
0.0
0
CIRCLE
5
1CF
100
AcDbEntity
8
DRILL
62
255
100
AcDbCircle
39
0.000039
10
7850.833307
20
-1874.166614
30
0
40
59.165000
0
HATCH
5
1D0
100
AcDbEntity
8
DRILL
62
255
100
AcDbHatch
10
0.0
20
0.0
30
0.0
210
0.0
220
0.0
230
1.0
2
SOLID
70
1
71
0
91
1
92
1
93
1
72
2
10
3080.000000
20
-1660.000000
40
17.500000
50
0.000000
51
360.000000
73
1
97
0
75
0
76
0
98
1
10
0.0
20
0.0
0
CIRCLE
5
1D1
100
AcDbEntity
8
DRILL
62
255
100
AcDbCircle
39
0.000039
10
3080.000000
20
-1660.000000
30
0
40
17.500000
0
HATCH
5
1D2
100
AcDbEntity
8
DRILL
62
255
100
AcDbHatch
10
0.0
20
0.0
30
0.0
210
0.0
220
0.0
230
1.0
2
SOLID
70
1
71
0
91
1
92
1
93
1
72
2
10
2980.000000
20
-1760.000000
40
17.500000
50
0.000000
51
360.000000
73
1
97
0
75
0
76
0
98
1
10
0.0
20
0.0
0
CIRCLE
5
1D3
100
AcDbEntity
8
DRILL
62
255
100
AcDbCircle
39
0.000039
10
2980.000000
20
-1760.000000
30
0
40
17.500000
0
HATCH
5
1D4
100
AcDbEntity
8
DRILL
62
255
100
AcDbHatch
10
0.0
20
0.0
30
0.0
210
0.0
220
0.0
230
1.0
2
SOLID
70
1
71
0
91
1
92
1
93
1
72
2
10
3180.000000
20
-1760.000000
40
17.500000
50
0.000000
51
360.000000
73
1
97
0
75
0
76
0
98
1
10
0.0
20
0.0
0
CIRCLE
5
1D5
100
AcDbEntity
8
DRILL
62
255
100
AcDbCircle
39
0.000039
10
3180.000000
20
-1760.000000
30
0
40
17.500000
0
HATCH
5
1D6
100
AcDbEntity
8
DRILL
62
255
100
AcDbHatch
10
0.0
20
0.0
30
0.0
210
0.0
220
0.0
230
1.0
2
SOLID
70
1
71
0
91
1
92
1
93
1
72
2
10
6071.811024
20
-1860.000000
40
17.716535
50
0.000000
51
360.000000
73
1
97
0
75
0
76
0
98
1
10
0.0
20
0.0
0
CIRCLE
5
1D7
100
AcDbEntity
8
DRILL
62
255
100
AcDbCircle
39
0.000039
10
6071.811024
20
-1860.000000
30
0
40
17.716535
0
HATCH
5
1D8
100
AcDbEntity
8
DRILL
62
255
100
AcDbHatch
10
0.0
20
0.0
30
0.0
210
0.0
220
0.0
230
1.0
2
SOLID
70
1
71
0
91
1
92
1
93
1
72
2
10
5560.000000
20
-1860.000000
40
17.716535
50
0.000000
51
360.000000
73
1
97
0
75
0
76
0
98
1
10
0.0
20
0.0
0
CIRCLE
5
1D9
100
AcDbEntity
8
DRILL
62
255
100
AcDbCircle
39
0.000039
10
5560.000000
20
-1860.000000
30
0
40
17.716535
0
HATCH
5
1DA
100
AcDbEntity
8
DRILL
62
255
100
AcDbHatch
10
0.0
20
0.0
30
0.0
210
0.0
220
0.0
230
1.0
2
SOLID
70
1
71
0
91
1
92
1
93
1
72
2
10
5060.000000
20
-1700.000000
40
17.500000
50
0.000000
51
360.000000
73
1
97
0
75
0
76
0
98
1
10
0.0
20
0.0
0
CIRCLE
5
1DB
100
AcDbEntity
8
DRILL
62
255
100
AcDbCircle
39
0.000039
10
5060.000000
20
-1700.000000
30
0
40
17.500000
0
HATCH
5
1DC
100
AcDbEntity
8
DRILL
62
255
100
AcDbHatch
10
0.0
20
0.0
30
0.0
210
0.0
220
0.0
230
1.0
2
SOLID
70
1
71
0
91
1
92
1
93
1
72
2
10
5160.000000
20
-1600.000000
40
17.500000
50
0.000000
51
360.000000
73
1
97
0
75
0
76
0
98
1
10
0.0
20
0.0
0
CIRCLE
5
1DD
100
AcDbEntity
8
DRILL
62
255
100
AcDbCircle
39
0.000039
10
5160.000000
20
-1600.000000
30
0
40
17.500000
0
HATCH
5
1DE
100
AcDbEntity
8
DRILL
62
255
100
AcDbHatch
10
0.0
20
0.0
30
0.0
210
0.0
220
0.0
230
1.0
2
SOLID
70
1
71
0
91
1
92
1
93
1
72
2
10
5260.000000
20
-1700.000000
40
17.500000
50
0.000000
51
360.000000
73
1
97
0
75
0
76
0
98
1
10
0.0
20
0.0
0
CIRCLE
5
1DF
100
AcDbEntity
8
DRILL
62
255
100
AcDbCircle
39
0.000039
10
5260.000000
20
-1700.000000
30
0
40
17.500000
0
HATCH
5
1E0
100
AcDbEntity
8
DRILL
62
255
100
AcDbHatch
10
0.0
20
0.0
30
0.0
210
0.0
220
0.0
230
1.0
2
SOLID
70
1
71
0
91
1
92
1
93
1
72
2
10
6811.811024
20
-1660.000000
40
17.716535
50
0.000000
51
360.000000
73
1
97
0
75
0
76
0
98
1
10
0.0
20
0.0
0
CIRCLE
5
1E1
100
AcDbEntity
8
DRILL
62
255
100
AcDbCircle
39
0.000039
10
6811.811024
20
-1660.000000
30
0
40
17.716535
0
HATCH
5
1E2
100
AcDbEntity
8
DRILL
62
255
100
AcDbHatch
10
0.0
20
0.0
30
0.0
210
0.0
220
0.0
230
1.0
2
SOLID
70
1
71
0
91
1
92
1
93
1
72
2
10
6300.000000
20
-1660.000000
40
17.716535
50
0.000000
51
360.000000
73
1
97
0
75
0
76
0
98
1
10
0.0
20
0.0
0
CIRCLE
5
1E3
100
AcDbEntity
8
DRILL
62
255
100
AcDbCircle
39
0.000039
10
6300.000000
20
-1660.000000
30
0
40
17.716535
0
HATCH
5
1E4
100
AcDbEntity
8
DRILL
62
255
100
AcDbHatch
10
0.0
20
0.0
30
0.0
210
0.0
220
0.0
230
1.0
2
SOLID
70
1
71
0
91
1
92
1
93
1
72
2
10
2831.811024
20
-1640.000000
40
17.716535
50
0.000000
51
360.000000
73
1
97
0
75
0
76
0
98
1
10
0.0
20
0.0
0
CIRCLE
5
1E5
100
AcDbEntity
8
DRILL
62
255
100
AcDbCircle
39
0.000039
10
2831.811024
20
-1640.000000
30
0
40
17.716535
0
HATCH
5
1E6
100
AcDbEntity
8
DRILL
62
255
100
AcDbHatch
10
0.0
20
0.0
30
0.0
210
0.0
220
0.0
230
1.0
2
SOLID
70
1
71
0
91
1
92
1
93
1
72
2
10
2320.000000
20
-1640.000000
40
17.716535
50
0.000000
51
360.000000
73
1
97
0
75
0
76
0
98
1
10
0.0
20
0.0
0
CIRCLE
5
1E7
100
AcDbEntity
8
DRILL
62
255
100
AcDbCircle
39
0.000039
10
2320.000000
20
-1640.000000
30
0
40
17.716535
0
HATCH
5
1E8
100
AcDbEntity
8
DRILL
62
255
100
AcDbHatch
10
0.0
20
0.0
30
0.0
210
0.0
220
0.0
230
1.0
2
SOLID
70
1
71
0
91
1
92
1
93
1
72
2
10
5790.000000
20
-1670.000000
40
11.811024
50
0.000000
51
360.000000
73
1
97
0
75
0
76
0
98
1
10
0.0
20
0.0
0
CIRCLE
5
1E9
100
AcDbEntity
8
DRILL
62
255
100
AcDbCircle
39
0.000039
10
5790.000000
20
-1670.000000
30
0
40
11.811024
0
HATCH
5
1EA
100
AcDbEntity
8
DRILL
62
255
100
AcDbHatch
10
0.0
20
0.0
30
0.0
210
0.0
220
0.0
230
1.0
2
SOLID
70
1
71
0
91
1
92
1
93
1
72
2
10
7440.000000
20
-1560.000000
40
27.500000
50
0.000000
51
360.000000
73
1
97
0
75
0
76
0
98
1
10
0.0
20
0.0
0
CIRCLE
5
1EB
100
AcDbEntity
8
DRILL
62
255
100
AcDbCircle
39
0.000039
10
7440.000000
20
-1560.000000
30
0
40
27.500000
0
HATCH
5
1EC
100
AcDbEntity
8
DRILL
62
255
100
AcDbHatch
10
0.0
20
0.0
30
0.0
210
0.0
220
0.0
230
1.0
2
SOLID
70
1
71
0
91
1
92
1
93
1
72
2
10
7967.559055
20
-1560.000000
40
27.500000
50
0.000000
51
360.000000
73
1
97
0
75
0
76
0
98
1
10
0.0
20
0.0
0
CIRCLE
5
1ED
100
AcDbEntity
8
DRILL
62
255
100
AcDbCircle
39
0.000039
10
7967.559055
20
-1560.000000
30
0
40
27.500000
0
HATCH
5
1EE
100
AcDbEntity
8
DRILL
62
255
100
AcDbHatch
10
0.0
20
0.0
30
0.0
210
0.0
220
0.0
230
1.0
2
SOLID
70
1
71
0
91
1
92
1
93
1
72
2
10
6831.811024
20
-1420.000000
40
17.716535
50
0.000000
51
360.000000
73
1
97
0
75
0
76
0
98
1
10
0.0
20
0.0
0
CIRCLE
5
1EF
100
AcDbEntity
8
DRILL
62
255
100
AcDbCircle
39
0.000039
10
6831.811024
20
-1420.000000
30
0
40
17.716535
0
HATCH
5
1F0
100
AcDbEntity
8
DRILL
62
255
100
AcDbHatch
10
0.0
20
0.0
30
0.0
210
0.0
220
0.0
230
1.0
2
SOLID
70
1
71
0
91
1
92
1
93
1
72
2
10
6320.000000
20
-1420.000000
40
17.716535
50
0.000000
51
360.000000
73
1
97
0
75
0
76
0
98
1
10
0.0
20
0.0
0
CIRCLE
5
1F1
100
AcDbEntity
8
DRILL
62
255
100
AcDbCircle
39
0.000039
10
6320.000000
20
-1420.000000
30
0
40
17.716535
0
HATCH
5
1F2
100
AcDbEntity
8
DRILL
62
255
100
AcDbHatch
10
0.0
20
0.0
30
0.0
210
0.0
220
0.0
230
1.0
2
SOLID
70
1
71
0
91
1
92
1
93
1
72
2
10
4060.000000
20
-2200.000000
40
19.585000
50
0.000000
51
360.000000
73
1
97
0
75
0
76
0
98
1
10
0.0
20
0.0
0
CIRCLE
5
1F3
100
AcDbEntity
8
DRILL
62
255
100
AcDbCircle
39
0.000039
10
4060.000000
20
-2200.000000
30
0
40
19.585000
0
HATCH
5
1F4
100
AcDbEntity
8
DRILL
62
255
100
AcDbHatch
10
0.0
20
0.0
30
0.0
210
0.0
220
0.0
230
1.0
2
SOLID
70
1
71
0
91
1
92
1
93
1
72
2
10
4160.000000
20
-2200.000000
40
17.500000
50
0.000000
51
360.000000
73
1
97
0
75
0
76
0
98
1
10
0.0
20
0.0
0
CIRCLE
5
1F5
100
AcDbEntity
8
DRILL
62
255
100
AcDbCircle
39
0.000039
10
4160.000000
20
-2200.000000
30
0
40
17.500000
0
HATCH
5
1F6
100
AcDbEntity
8
DRILL
62
255
100
AcDbHatch
10
0.0
20
0.0
30
0.0
210
0.0
220
0.0
230
1.0
2
SOLID
70
1
71
0
91
1
92
1
93
1
72
2
10
400.000000
20
-1740.000000
40
17.500000
50
0.000000
51
360.000000
73
1
97
0
75
0
76
0
98
1
10
0.0
20
0.0
0
CIRCLE
5
1F7
100
AcDbEntity
8
DRILL
62
255
100
AcDbCircle
39
0.000039
10
400.000000
20
-1740.000000
30
0
40
17.500000
0
HATCH
5
1F8
100
AcDbEntity
8
DRILL
62
255
100
AcDbHatch
10
0.0
20
0.0
30
0.0
210
0.0
220
0.0
230
1.0
2
SOLID
70
1
71
0
91
1
92
1
93
1
72
2
10
400.000000
20
-1640.000000
40
19.585000
50
0.000000
51
360.000000
73
1
97
0
75
0
76
0
98
1
10
0.0
20
0.0
0
CIRCLE
5
1F9
100
AcDbEntity
8
DRILL
62
255
100
AcDbCircle
39
0.000039
10
400.000000
20
-1640.000000
30
0
40
19.585000
0
HATCH
5
1FA
100
AcDbEntity
8
DRILL
62
255
100
AcDbHatch
10
0.0
20
0.0
30
0.0
210
0.0
220
0.0
230
1.0
2
SOLID
70
1
71
0
91
1
92
1
93
1
72
2
10
740.000000
20
-2120.000000
40
19.585000
50
0.000000
51
360.000000
73
1
97
0
75
0
76
0
98
1
10
0.0
20
0.0
0
CIRCLE
5
1FB
100
AcDbEntity
8
DRILL
62
255
100
AcDbCircle
39
0.000039
10
740.000000
20
-2120.000000
30
0
40
19.585000
0
HATCH
5
1FC
100
AcDbEntity
8
DRILL
62
255
100
AcDbHatch
10
0.0
20
0.0
30
0.0
210
0.0
220
0.0
230
1.0
2
SOLID
70
1
71
0
91
1
92
1
93
1
72
2
10
840.000000
20
-2120.000000
40
17.500000
50
0.000000
51
360.000000
73
1
97
0
75
0
76
0
98
1
10
0.0
20
0.0
0
CIRCLE
5
1FD
100
AcDbEntity
8
DRILL
62
255
100
AcDbCircle
39
0.000039
10
840.000000
20
-2120.000000
30
0
40
17.500000
0
HATCH
5
1FE
100
AcDbEntity
8
DRILL
62
255
100
AcDbHatch
10
0.0
20
0.0
30
0.0
210
0.0
220
0.0
230
1.0
2
SOLID
70
1
71
0
91
1
92
1
93
1
72
2
10
7740.000000
20
-2180.000000
40
17.500000
50
0.000000
51
360.000000
73
1
97
0
75
0
76
0
98
1
10
0.0
20
0.0
0
CIRCLE
5
1FF
100
AcDbEntity
8
DRILL
62
255
100
AcDbCircle
39
0.000039
10
7740.000000
20
-2180.000000
30
0
40
17.500000
0
HATCH
5
200
100
AcDbEntity
8
DRILL
62
255
100
AcDbHatch
10
0.0
20
0.0
30
0.0
210
0.0
220
0.0
230
1.0
2
SOLID
70
1
71
0
91
1
92
1
93
1
72
2
10
7640.000000
20
-2180.000000
40
19.585000
50
0.000000
51
360.000000
73
1
97
0
75
0
76
0
98
1
10
0.0
20
0.0
0
CIRCLE
5
201
100
AcDbEntity
8
DRILL
62
255
100
AcDbCircle
39
0.000039
10
7640.000000
20
-2180.000000
30
0
40
19.585000
0
HATCH
5
202
100
AcDbEntity
8
DRILL
62
255
100
AcDbHatch
10
0.0
20
0.0
30
0.0
210
0.0
220
0.0
230
1.0
2
SOLID
70
1
71
0
91
1
92
1
93
1
72
2
10
8080.000000
20
-1940.000000
40
17.500000
50
0.000000
51
360.000000
73
1
97
0
75
0
76
0
98
1
10
0.0
20
0.0
0
CIRCLE
5
203
100
AcDbEntity
8
DRILL
62
255
100
AcDbCircle
39
0.000039
10
8080.000000
20
-1940.000000
30
0
40
17.500000
0
HATCH
5
204
100
AcDbEntity
8
DRILL
62
255
100
AcDbHatch
10
0.0
20
0.0
30
0.0
210
0.0
220
0.0
230
1.0
2
SOLID
70
1
71
0
91
1
92
1
93
1
72
2
10
8080.000000
20
-1840.000000
40
19.585000
50
0.000000
51
360.000000
73
1
97
0
75
0
76
0
98
1
10
0.0
20
0.0
0
CIRCLE
5
205
100
AcDbEntity
8
DRILL
62
255
100
AcDbCircle
39
0.000039
10
8080.000000
20
-1840.000000
30
0
40
19.585000
0
HATCH
5
206
100
AcDbEntity
8
DRILL
62
255
100
AcDbHatch
10
0.0
20
0.0
30
0.0
210
0.0
220
0.0
230
1.0
2
SOLID
70
1
71
0
91
1
92
1
93
1
72
2
10
7720.000000
20
-640.000000
40
17.500000
50
0.000000
51
360.000000
73
1
97
0
75
0
76
0
98
1
10
0.0
20
0.0
0
CIRCLE
5
207
100
AcDbEntity
8
DRILL
62
255
100
AcDbCircle
39
0.000039
10
7720.000000
20
-640.000000
30
0
40
17.500000
0
HATCH
5
208
100
AcDbEntity
8
DRILL
62
255
100
AcDbHatch
10
0.0
20
0.0
30
0.0
210
0.0
220
0.0
230
1.0
2
SOLID
70
1
71
0
91
1
92
1
93
1
72
2
10
7620.000000
20
-640.000000
40
19.585000
50
0.000000
51
360.000000
73
1
97
0
75
0
76
0
98
1
10
0.0
20
0.0
0
CIRCLE
5
209
100
AcDbEntity
8
DRILL
62
255
100
AcDbCircle
39
0.000039
10
7620.000000
20
-640.000000
30
0
40
19.585000
0
HATCH
5
20A
100
AcDbEntity
8
DRILL
62
255
100
AcDbHatch
10
0.0
20
0.0
30
0.0
210
0.0
220
0.0
230
1.0
2
SOLID
70
1
71
0
91
1
92
1
93
1
72
2
10
8060.000000
20
-400.000000
40
17.500000
50
0.000000
51
360.000000
73
1
97
0
75
0
76
0
98
1
10
0.0
20
0.0
0
CIRCLE
5
20B
100
AcDbEntity
8
DRILL
62
255
100
AcDbCircle
39
0.000039
10
8060.000000
20
-400.000000
30
0
40
17.500000
0
HATCH
5
20C
100
AcDbEntity
8
DRILL
62
255
100
AcDbHatch
10
0.0
20
0.0
30
0.0
210
0.0
220
0.0
230
1.0
2
SOLID
70
1
71
0
91
1
92
1
93
1
72
2
10
8060.000000
20
-300.000000
40
19.585000
50
0.000000
51
360.000000
73
1
97
0
75
0
76
0
98
1
10
0.0
20
0.0
0
CIRCLE
5
20D
100
AcDbEntity
8
DRILL
62
255
100
AcDbCircle
39
0.000039
10
8060.000000
20
-300.000000
30
0
40
19.585000
0
HATCH
5
20E
100
AcDbEntity
8
DRILL
62
255
100
AcDbHatch
10
0.0
20
0.0
30
0.0
210
0.0
220
0.0
230
1.0
2
SOLID
70
1
71
0
91
1
92
1
93
1
72
2
10
8060.000000
20
1140.000000
40
17.500000
50
0.000000
51
360.000000
73
1
97
0
75
0
76
0
98
1
10
0.0
20
0.0
0
CIRCLE
5
20F
100
AcDbEntity
8
DRILL
62
255
100
AcDbCircle
39
0.000039
10
8060.000000
20
1140.000000
30
0
40
17.500000
0
HATCH
5
210
100
AcDbEntity
8
DRILL
62
255
100
AcDbHatch
10
0.0
20
0.0
30
0.0
210
0.0
220
0.0
230
1.0
2
SOLID
70
1
71
0
91
1
92
1
93
1
72
2
10
8060.000000
20
1240.000000
40
19.585000
50
0.000000
51
360.000000
73
1
97
0
75
0
76
0
98
1
10
0.0
20
0.0
0
CIRCLE
5
211
100
AcDbEntity
8
DRILL
62
255
100
AcDbCircle
39
0.000039
10
8060.000000
20
1240.000000
30
0
40
19.585000
0
HATCH
5
212
100
AcDbEntity
8
DRILL
62
255
100
AcDbHatch
10
0.0
20
0.0
30
0.0
210
0.0
220
0.0
230
1.0
2
SOLID
70
1
71
0
91
1
92
1
93
1
72
2
10
7720.000000
20
900.000000
40
17.500000
50
0.000000
51
360.000000
73
1
97
0
75
0
76
0
98
1
10
0.0
20
0.0
0
CIRCLE
5
213
100
AcDbEntity
8
DRILL
62
255
100
AcDbCircle
39
0.000039
10
7720.000000
20
900.000000
30
0
40
17.500000
0
HATCH
5
214
100
AcDbEntity
8
DRILL
62
255
100
AcDbHatch
10
0.0
20
0.0
30
0.0
210
0.0
220
0.0
230
1.0
2
SOLID
70
1
71
0
91
1
92
1
93
1
72
2
10
7620.000000
20
900.000000
40
19.585000
50
0.000000
51
360.000000
73
1
97
0
75
0
76
0
98
1
10
0.0
20
0.0
0
CIRCLE
5
215
100
AcDbEntity
8
DRILL
62
255
100
AcDbCircle
39
0.000039
10
7620.000000
20
900.000000
30
0
40
19.585000
0
HATCH
5
216
100
AcDbEntity
8
DRILL
62
255
100
AcDbHatch
10
0.0
20
0.0
30
0.0
210
0.0
220
0.0
230
1.0
2
SOLID
70
1
71
0
91
1
92
1
93
1
72
2
10
360.000000
20
2800.000000
40
17.500000
50
0.000000
51
360.000000
73
1
97
0
75
0
76
0
98
1
10
0.0
20
0.0
0
CIRCLE
5
217
100
AcDbEntity
8
DRILL
62
255
100
AcDbCircle
39
0.000039
10
360.000000
20
2800.000000
30
0
40
17.500000
0
HATCH
5
218
100
AcDbEntity
8
DRILL
62
255
100
AcDbHatch
10
0.0
20
0.0
30
0.0
210
0.0
220
0.0
230
1.0
2
SOLID
70
1
71
0
91
1
92
1
93
1
72
2
10
360.000000
20
2900.000000
40
19.585000
50
0.000000
51
360.000000
73
1
97
0
75
0
76
0
98
1
10
0.0
20
0.0
0
CIRCLE
5
219
100
AcDbEntity
8
DRILL
62
255
100
AcDbCircle
39
0.000039
10
360.000000
20
2900.000000
30
0
40
19.585000
0
HATCH
5
21A
100
AcDbEntity
8
DRILL
62
255
100
AcDbHatch
10
0.0
20
0.0
30
0.0
210
0.0
220
0.0
230
1.0
2
SOLID
70
1
71
0
91
1
92
1
93
1
72
2
10
700.000000
20
2420.000000
40
19.585000
50
0.000000
51
360.000000
73
1
97
0
75
0
76
0
98
1
10
0.0
20
0.0
0
CIRCLE
5
21B
100
AcDbEntity
8
DRILL
62
255
100
AcDbCircle
39
0.000039
10
700.000000
20
2420.000000
30
0
40
19.585000
0
HATCH
5
21C
100
AcDbEntity
8
DRILL
62
255
100
AcDbHatch
10
0.0
20
0.0
30
0.0
210
0.0
220
0.0
230
1.0
2
SOLID
70
1
71
0
91
1
92
1
93
1
72
2
10
800.000000
20
2420.000000
40
17.500000
50
0.000000
51
360.000000
73
1
97
0
75
0
76
0
98
1
10
0.0
20
0.0
0
CIRCLE
5
21D
100
AcDbEntity
8
DRILL
62
255
100
AcDbCircle
39
0.000039
10
800.000000
20
2420.000000
30
0
40
17.500000
0
HATCH
5
21E
100
AcDbEntity
8
DRILL
62
255
100
AcDbHatch
10
0.0
20
0.0
30
0.0
210
0.0
220
0.0
230
1.0
2
SOLID
70
1
71
0
91
1
92
1
93
1
72
2
10
7700.000000
20
2360.000000
40
17.500000
50
0.000000
51
360.000000
73
1
97
0
75
0
76
0
98
1
10
0.0
20
0.0
0
CIRCLE
5
21F
100
AcDbEntity
8
DRILL
62
255
100
AcDbCircle
39
0.000039
10
7700.000000
20
2360.000000
30
0
40
17.500000
0
HATCH
5
220
100
AcDbEntity
8
DRILL
62
255
100
AcDbHatch
10
0.0
20
0.0
30
0.0
210
0.0
220
0.0
230
1.0
2
SOLID
70
1
71
0
91
1
92
1
93
1
72
2
10
7600.000000
20
2360.000000
40
19.585000
50
0.000000
51
360.000000
73
1
97
0
75
0
76
0
98
1
10
0.0
20
0.0
0
CIRCLE
5
221
100
AcDbEntity
8
DRILL
62
255
100
AcDbCircle
39
0.000039
10
7600.000000
20
2360.000000
30
0
40
19.585000
0
HATCH
5
222
100
AcDbEntity
8
DRILL
62
255
100
AcDbHatch
10
0.0
20
0.0
30
0.0
210
0.0
220
0.0
230
1.0
2
SOLID
70
1
71
0
91
1
92
1
93
1
72
2
10
8040.000000
20
2600.000000
40
17.500000
50
0.000000
51
360.000000
73
1
97
0
75
0
76
0
98
1
10
0.0
20
0.0
0
CIRCLE
5
223
100
AcDbEntity
8
DRILL
62
255
100
AcDbCircle
39
0.000039
10
8040.000000
20
2600.000000
30
0
40
17.500000
0
HATCH
5
224
100
AcDbEntity
8
DRILL
62
255
100
AcDbHatch
10
0.0
20
0.0
30
0.0
210
0.0
220
0.0
230
1.0
2
SOLID
70
1
71
0
91
1
92
1
93
1
72
2
10
8040.000000
20
2700.000000
40
19.585000
50
0.000000
51
360.000000
73
1
97
0
75
0
76
0
98
1
10
0.0
20
0.0
0
CIRCLE
5
225
100
AcDbEntity
8
DRILL
62
255
100
AcDbCircle
39
0.000039
10
8040.000000
20
2700.000000
30
0
40
19.585000
0
HATCH
5
226
100
AcDbEntity
8
DRILL
62
255
100
AcDbHatch
10
0.0
20
0.0
30
0.0
210
0.0
220
0.0
230
1.0
2
SOLID
70
1
71
0
91
1
92
1
93
1
72
2
10
400.000000
20
-1860.000000
40
17.500000
50
0.000000
51
360.000000
73
1
97
0
75
0
76
0
98
1
10
0.0
20
0.0
0
CIRCLE
5
227
100
AcDbEntity
8
DRILL
62
255
100
AcDbCircle
39
0.000039
10
400.000000
20
-1860.000000
30
0
40
17.500000
0
HATCH
5
228
100
AcDbEntity
8
DRILL
62
255
100
AcDbHatch
10
0.0
20
0.0
30
0.0
210
0.0
220
0.0
230
1.0
2
SOLID
70
1
71
0
91
1
92
1
93
1
72
2
10
400.000000
20
-1960.000000
40
19.585000
50
0.000000
51
360.000000
73
1
97
0
75
0
76
0
98
1
10
0.0
20
0.0
0
CIRCLE
5
229
100
AcDbEntity
8
DRILL
62
255
100
AcDbCircle
39
0.000039
10
400.000000
20
-1960.000000
30
0
40
19.585000
0
HATCH
5
22A
100
AcDbEntity
8
DRILL
62
255
100
AcDbHatch
10
0.0
20
0.0
30
0.0
210
0.0
220
0.0
230
1.0
2
SOLID
70
1
71
0
91
1
92
1
93
1
72
2
10
380.000000
20
-320.000000
40
17.500000
50
0.000000
51
360.000000
73
1
97
0
75
0
76
0
98
1
10
0.0
20
0.0
0
CIRCLE
5
22B
100
AcDbEntity
8
DRILL
62
255
100
AcDbCircle
39
0.000039
10
380.000000
20
-320.000000
30
0
40
17.500000
0
HATCH
5
22C
100
AcDbEntity
8
DRILL
62
255
100
AcDbHatch
10
0.0
20
0.0
30
0.0
210
0.0
220
0.0
230
1.0
2
SOLID
70
1
71
0
91
1
92
1
93
1
72
2
10
380.000000
20
-420.000000
40
19.585000
50
0.000000
51
360.000000
73
1
97
0
75
0
76
0
98
1
10
0.0
20
0.0
0
CIRCLE
5
22D
100
AcDbEntity
8
DRILL
62
255
100
AcDbCircle
39
0.000039
10
380.000000
20
-420.000000
30
0
40
19.585000
0
HATCH
5
22E
100
AcDbEntity
8
DRILL
62
255
100
AcDbHatch
10
0.0
20
0.0
30
0.0
210
0.0
220
0.0
230
1.0
2
SOLID
70
1
71
0
91
1
92
1
93
1
72
2
10
380.000000
20
1220.000000
40
17.500000
50
0.000000
51
360.000000
73
1
97
0
75
0
76
0
98
1
10
0.0
20
0.0
0
CIRCLE
5
22F
100
AcDbEntity
8
DRILL
62
255
100
AcDbCircle
39
0.000039
10
380.000000
20
1220.000000
30
0
40
17.500000
0
HATCH
5
230
100
AcDbEntity
8
DRILL
62
255
100
AcDbHatch
10
0.0
20
0.0
30
0.0
210
0.0
220
0.0
230
1.0
2
SOLID
70
1
71
0
91
1
92
1
93
1
72
2
10
380.000000
20
1120.000000
40
19.585000
50
0.000000
51
360.000000
73
1
97
0
75
0
76
0
98
1
10
0.0
20
0.0
0
CIRCLE
5
231
100
AcDbEntity
8
DRILL
62
255
100
AcDbCircle
39
0.000039
10
380.000000
20
1120.000000
30
0
40
19.585000
0
HATCH
5
232
100
AcDbEntity
8
DRILL
62
255
100
AcDbHatch
10
0.0
20
0.0
30
0.0
210
0.0
220
0.0
230
1.0
2
SOLID
70
1
71
0
91
1
92
1
93
1
72
2
10
360.000000
20
2680.000000
40
17.500000
50
0.000000
51
360.000000
73
1
97
0
75
0
76
0
98
1
10
0.0
20
0.0
0
CIRCLE
5
233
100
AcDbEntity
8
DRILL
62
255
100
AcDbCircle
39
0.000039
10
360.000000
20
2680.000000
30
0
40
17.500000
0
HATCH
5
234
100
AcDbEntity
8
DRILL
62
255
100
AcDbHatch
10
0.0
20
0.0
30
0.0
210
0.0
220
0.0
230
1.0
2
SOLID
70
1
71
0
91
1
92
1
93
1
72
2
10
360.000000
20
2580.000000
40
19.585000
50
0.000000
51
360.000000
73
1
97
0
75
0
76
0
98
1
10
0.0
20
0.0
0
CIRCLE
5
235
100
AcDbEntity
8
DRILL
62
255
100
AcDbCircle
39
0.000039
10
360.000000
20
2580.000000
30
0
40
19.585000
0
HATCH
5
236
100
AcDbEntity
8
DRILL
62
255
100
AcDbHatch
10
0.0
20
0.0
30
0.0
210
0.0
220
0.0
230
1.0
2
SOLID
70
1
71
0
91
1
92
1
93
1
72
2
10
8320.000000
20
3080.000000
40
118.110236
50
0.000000
51
360.000000
73
1
97
0
75
0
76
0
98
1
10
0.0
20
0.0
0
CIRCLE
5
237
100
AcDbEntity
8
DRILL
62
255
100
AcDbCircle
39
0.000039
10
8320.000000
20
3080.000000
30
0
40
118.110236
0
HATCH
5
238
100
AcDbEntity
8
DRILL
62
255
100
AcDbHatch
10
0.0
20
0.0
30
0.0
210
0.0
220
0.0
230
1.0
2
SOLID
70
1
71
0
91
1
92
1
93
1
72
2
10
8320.000000
20
-2590.000000
40
118.110236
50
0.000000
51
360.000000
73
1
97
0
75
0
76
0
98
1
10
0.0
20
0.0
0
CIRCLE
5
239
100
AcDbEntity
8
DRILL
62
255
100
AcDbCircle
39
0.000039
10
8320.000000
20
-2590.000000
30
0
40
118.110236
0
HATCH
5
23A
100
AcDbEntity
8
DRILL
62
255
100
AcDbHatch
10
0.0
20
0.0
30
0.0
210
0.0
220
0.0
230
1.0
2
SOLID
70
1
71
0
91
1
92
1
93
1
72
2
10
130.000000
20
-2590.000000
40
118.110236
50
0.000000
51
360.000000
73
1
97
0
75
0
76
0
98
1
10
0.0
20
0.0
0
CIRCLE
5
23B
100
AcDbEntity
8
DRILL
62
255
100
AcDbCircle
39
0.000039
10
130.000000
20
-2590.000000
30
0
40
118.110236
0
HATCH
5
23C
100
AcDbEntity
8
DRILL
62
255
100
AcDbHatch
10
0.0
20
0.0
30
0.0
210
0.0
220
0.0
230
1.0
2
SOLID
70
1
71
0
91
1
92
1
93
1
72
2
10
130.000000
20
3080.000000
40
118.110236
50
0.000000
51
360.000000
73
1
97
0
75
0
76
0
98
1
10
0.0
20
0.0
0
CIRCLE
5
23D
100
AcDbEntity
8
DRILL
62
255
100
AcDbCircle
39
0.000039
10
130.000000
20
3080.000000
30
0
40
118.110236
0
ENDSEC
0
SECTION
2
OBJECTS
0
DICTIONARY
5
23E
100
AcDbDictionary
3
ACAD_GROUP
350
23F
3
ACAD_LAYOUT
350
240
3
ACAD_MLINESTYLE
350
241
0
DICTIONARY
5
23F
100
AcDbDictionary
0
DICTIONARY
5
240
100
AcDbDictionary
0
DICTIONARY
5
241
100
AcDbDictionary
3
STANDARD
350
242
0
MLINESTYLE
5
242
100
AcDbMlineStyle
2
Standard
70
0
3

62
256
51
90.0
52
90.0
71
2
49
0.5
62
256
6
BYLAYER
49
-0.5
62
256
6
BYLAYER
0
ENDSEC
0
EOF
