999
DXF created by UltiBoard 14.2.0.0
0
SECTION
2
HEADER
9
$ACADVER
1
AC1014
9
$EXTMIN
10
-713.750000
20
-3463.749921
30
0.0
9
$EXTMAX
10
9153.749921
20
3841.250079
30
0.0
9
$LUNITS
70
2
9
$HANDSEED
5
486
0
ENDSEC
0
SECTION
2
TABLES
0
TABLE
2
VPORT
5
244
100
AcDbSymbolTable
70
1
0
VPORT
5
245
100
AcDbSymbolTableRecord
100
AcDbViewportTableRecord
2
*ACTIVE
70
0
0
ENDTAB
0
TABLE
2
LTYPE
5
246
100
AcDbSymbolTable
70
1
0
LTYPE
5
247
100
AcDbSymbolTableRecord
100
AcDbLinetypeTableRecord
2
BYBLOCK
70
0
3

72
65
73
0
40
0.0
0
LTYPE
5
248
100
AcDbSymbolTableRecord
100
AcDbLinetypeTableRecord
2
BYLAYER
70
0
3

72
65
73
0
40
0.0
0
LTYPE
5
249
100
AcDbSymbolTableRecord
100
AcDbLinetypeTableRecord
2
CONTINUOUS
70
0
3
Solid line
72
65
73
0
40
0.0
0
ENDTAB
0
TABLE
2
LAYER
5
24A
100
AcDbSymbolTable
70
3
0
LAYER
5
24B
100
AcDbSymbolTableRecord
100
AcDbLayerTableRecord
2
0
70
0
62
7
6
CONTINUOUS
0
LAYER
5
24C
100
AcDbSymbolTableRecord
100
AcDbLayerTableRecord
2
BOARD_OUTLINE
70
0
62
2
6
CONTINUOUS
0
LAYER
5
24D
100
AcDbSymbolTableRecord
100
AcDbLayerTableRecord
2
DRILL
70
0
62
255
6
CONTINUOUS
0
ENDTAB
0
TABLE
2
STYLE
5
24E
100
AcDbSymbolTable
70
2
0
STYLE
5
24F
100
AcDbSymbolTableRecord
100
AcDbTextStyleTableRecord
2
MONOTxtStyle
70
0
40
0.0
41
1.0
50
0.0
71
0
42
0.2
3
monotxt
4

0
ENDTAB
0
TABLE
2
VIEW
5
250
100
AcDbSymbolTable
70
0
0
ENDTAB
0
TABLE
2
UCS
5
251
100
AcDbSymbolTable
70
0
0
ENDTAB
0
TABLE
2
APPID
5
252
100
AcDbSymbolTable
70
1
0
APPID
5
253
100
AcDbSymbolTableRecord
100
AcDbRegAppTableRecord
2
ACAD
70
0
0
ENDTAB
0
TABLE
2
DIMSTYLE
5
254
100
AcDbSymbolTable
70
1
0
DIMSTYLE
105
255
100
AcDbSymbolTableRecord
100
AcDbDimStyleTableRecord
2
STANDARD
70
0
0
ENDTAB
0
TABLE
2
BLOCK_RECORD
5
256
100
AcDbSymbolTable
70
0
0
BLOCK_RECORD
5
257
100
AcDbSymbolTableRecord
100
AcDbBlockTableRecord
2
*MODEL_SPACE
0
BLOCK_RECORD
5
258
100
AcDbSymbolTableRecord
100
AcDbBlockTableRecord
2
*PAPER_SPACE
0
ENDTAB
0
ENDSEC
0
SECTION
2
BLOCKS
0
BLOCK
5
259
100
AcDbEntity
8
0
100
AcDbBlockBegin
2
*MODEL_SPACE
70
0
0
ENDBLK
5
25A
100
AcDbEntity
8
0
100
AcDbBlockEnd
0
BLOCK
5
25B
100
AcDbEntity
8
0
100
AcDbBlockBegin
2
*PAPER_SPACE
70
0
0
ENDBLK
5
25C
100
AcDbEntity
8
0
100
AcDbBlockEnd
0
ENDSEC
0
SECTION
2
ENTITIES
0
HATCH
5
25D
100
AcDbEntity
8
BOARD_OUTLINE
62
255
100
AcDbHatch
10
0.0
20
0.0
30
0.0
210
0.0
220
0.0
230
1.0
2
SOLID
70
1
71
0
91
1
92
1
93
1
72
2
10
8320.000000
20
3080.000000
40
118.110236
50
0.000000
51
360.000000
73
1
97
0
75
0
76
0
98
1
10
0.0
20
0.0
0
CIRCLE
5
25E
100
AcDbEntity
8
BOARD_OUTLINE
62
255
100
AcDbCircle
39
0.000039
10
8320.000000
20
3080.000000
30
0
40
118.110236
0
HATCH
5
25F
100
AcDbEntity
8
BOARD_OUTLINE
62
255
100
AcDbHatch
10
0.0
20
0.0
30
0.0
210
0.0
220
0.0
230
1.0
2
SOLID
70
1
71
0
91
1
92
1
93
1
72
2
10
8320.000000
20
-2590.000000
40
118.110236
50
0.000000
51
360.000000
73
1
97
0
75
0
76
0
98
1
10
0.0
20
0.0
0
CIRCLE
5
260
100
AcDbEntity
8
BOARD_OUTLINE
62
255
100
AcDbCircle
39
0.000039
10
8320.000000
20
-2590.000000
30
0
40
118.110236
0
HATCH
5
261
100
AcDbEntity
8
BOARD_OUTLINE
62
255
100
AcDbHatch
10
0.0
20
0.0
30
0.0
210
0.0
220
0.0
230
1.0
2
SOLID
70
1
71
0
91
1
92
1
93
1
72
2
10
130.000000
20
-2590.000000
40
118.110236
50
0.000000
51
360.000000
73
1
97
0
75
0
76
0
98
1
10
0.0
20
0.0
0
CIRCLE
5
262
100
AcDbEntity
8
BOARD_OUTLINE
62
255
100
AcDbCircle
39
0.000039
10
130.000000
20
-2590.000000
30
0
40
118.110236
0
HATCH
5
263
100
AcDbEntity
8
BOARD_OUTLINE
62
255
100
AcDbHatch
10
0.0
20
0.0
30
0.0
210
0.0
220
0.0
230
1.0
2
SOLID
70
1
71
0
91
1
92
1
93
1
72
2
10
130.000000
20
3080.000000
40
118.110236
50
0.000000
51
360.000000
73
1
97
0
75
0
76
0
98
1
10
0.0
20
0.0
0
CIRCLE
5
264
100
AcDbEntity
8
BOARD_OUTLINE
62
255
100
AcDbCircle
39
0.000039
10
130.000000
20
3080.000000
30
0
40
118.110236
0
LWPOLYLINE
5
265
100
AcDbEntity
8
BOARD_OUTLINE
62
2
100
AcDbPolyline
90
2
70
0
43
0.000039
39
0.000039
10
-90.000000
20
-2840.000000
10
8530.000000
20
-2840.000000
0
LWPOLYLINE
5
266
100
AcDbEntity
8
BOARD_OUTLINE
62
2
100
AcDbPolyline
90
2
70
0
43
0.000039
39
0.000039
10
8530.000000
20
-2840.000000
10
8530.000000
20
3210.000000
0
LWPOLYLINE
5
267
100
AcDbEntity
8
BOARD_OUTLINE
62
2
100
AcDbPolyline
90
2
70
0
43
0.000039
39
0.000039
10
8530.000000
20
3210.000000
10
-90.000000
20
3210.000000
0
LWPOLYLINE
5
268
100
AcDbEntity
8
BOARD_OUTLINE
62
2
100
AcDbPolyline
90
2
70
0
43
0.000039
39
0.000039
10
-90.000000
20
3210.000000
10
-90.000000
20
-2840.000000
0
HATCH
5
269
100
AcDbEntity
8
DRILL
62
255
100
AcDbHatch
10
0.0
20
0.0
30
0.0
210
0.0
220
0.0
230
1.0
2
SOLID
70
1
71
0
91
1
92
1
93
1
72
2
10
6680.000000
20
2530.000000
40
11.811024
50
0.000000
51
360.000000
73
1
97
0
75
0
76
0
98
1
10
0.0
20
0.0
0
CIRCLE
5
26A
100
AcDbEntity
8
DRILL
62
255
100
AcDbCircle
39
0.000039
10
6680.000000
20
2530.000000
30
0
40
11.811024
0
HATCH
5
26B
100
AcDbEntity
8
DRILL
62
255
100
AcDbHatch
10
0.0
20
0.0
30
0.0
210
0.0
220
0.0
230
1.0
2
SOLID
70
1
71
0
91
1
92
1
93
1
72
2
10
5750.000000
20
2870.000000
40
11.811024
50
0.000000
51
360.000000
73
1
97
0
75
0
76
0
98
1
10
0.0
20
0.0
0
CIRCLE
5
26C
100
AcDbEntity
8
DRILL
62
255
100
AcDbCircle
39
0.000039
10
5750.000000
20
2870.000000
30
0
40
11.811024
0
HATCH
5
26D
100
AcDbEntity
8
DRILL
62
255
100
AcDbHatch
10
0.0
20
0.0
30
0.0
210
0.0
220
0.0
230
1.0
2
SOLID
70
1
71
0
91
1
92
1
93
1
72
2
10
3760.000000
20
1812.440945
40
27.500000
50
0.000000
51
360.000000
73
1
97
0
75
0
76
0
98
1
10
0.0
20
0.0
0
CIRCLE
5
26E
100
AcDbEntity
8
DRILL
62
255
100
AcDbCircle
39
0.000039
10
3760.000000
20
1812.440945
30
0
40
27.500000
0
HATCH
5
26F
100
AcDbEntity
8
DRILL
62
255
100
AcDbHatch
10
0.0
20
0.0
30
0.0
210
0.0
220
0.0
230
1.0
2
SOLID
70
1
71
0
91
1
92
1
93
1
72
2
10
3760.000000
20
2340.000000
40
27.500000
50
0.000000
51
360.000000
73
1
97
0
75
0
76
0
98
1
10
0.0
20
0.0
0
CIRCLE
5
270
100
AcDbEntity
8
DRILL
62
255
100
AcDbCircle
39
0.000039
10
3760.000000
20
2340.000000
30
0
40
27.500000
0
HATCH
5
271
100
AcDbEntity
8
DRILL
62
255
100
AcDbHatch
10
0.0
20
0.0
30
0.0
210
0.0
220
0.0
230
1.0
2
SOLID
70
1
71
0
91
1
92
1
93
1
72
2
10
4420.000000
20
1812.440945
40
27.500000
50
0.000000
51
360.000000
73
1
97
0
75
0
76
0
98
1
10
0.0
20
0.0
0
CIRCLE
5
272
100
AcDbEntity
8
DRILL
62
255
100
AcDbCircle
39
0.000039
10
4420.000000
20
1812.440945
30
0
40
27.500000
0
HATCH
5
273
100
AcDbEntity
8
DRILL
62
255
100
AcDbHatch
10
0.0
20
0.0
30
0.0
210
0.0
220
0.0
230
1.0
2
SOLID
70
1
71
0
91
1
92
1
93
1
72
2
10
4420.000000
20
2340.000000
40
27.500000
50
0.000000
51
360.000000
73
1
97
0
75
0
76
0
98
1
10
0.0
20
0.0
0
CIRCLE
5
274
100
AcDbEntity
8
DRILL
62
255
100
AcDbCircle
39
0.000039
10
4420.000000
20
2340.000000
30
0
40
27.500000
0
HATCH
5
275
100
AcDbEntity
8
DRILL
62
255
100
AcDbHatch
10
0.0
20
0.0
30
0.0
210
0.0
220
0.0
230
1.0
2
SOLID
70
1
71
0
91
1
92
1
93
1
72
2
10
3160.000000
20
2200.000000
40
17.500000
50
0.000000
51
360.000000
73
1
97
0
75
0
76
0
98
1
10
0.0
20
0.0
0
CIRCLE
5
276
100
AcDbEntity
8
DRILL
62
255
100
AcDbCircle
39
0.000039
10
3160.000000
20
2200.000000
30
0
40
17.500000
0
HATCH
5
277
100
AcDbEntity
8
DRILL
62
255
100
AcDbHatch
10
0.0
20
0.0
30
0.0
210
0.0
220
0.0
230
1.0
2
SOLID
70
1
71
0
91
1
92
1
93
1
72
2
10
3060.000000
20
2300.000000
40
17.500000
50
0.000000
51
360.000000
73
1
97
0
75
0
76
0
98
1
10
0.0
20
0.0
0
CIRCLE
5
278
100
AcDbEntity
8
DRILL
62
255
100
AcDbCircle
39
0.000039
10
3060.000000
20
2300.000000
30
0
40
17.500000
0
HATCH
5
279
100
AcDbEntity
8
DRILL
62
255
100
AcDbHatch
10
0.0
20
0.0
30
0.0
210
0.0
220
0.0
230
1.0
2
SOLID
70
1
71
0
91
1
92
1
93
1
72
2
10
3060.000000
20
2100.000000
40
17.500000
50
0.000000
51
360.000000
73
1
97
0
75
0
76
0
98
1
10
0.0
20
0.0
0
CIRCLE
5
27A
100
AcDbEntity
8
DRILL
62
255
100
AcDbCircle
39
0.000039
10
3060.000000
20
2100.000000
30
0
40
17.500000
0
HATCH
5
27B
100
AcDbEntity
8
DRILL
62
255
100
AcDbHatch
10
0.0
20
0.0
30
0.0
210
0.0
220
0.0
230
1.0
2
SOLID
70
1
71
0
91
1
92
1
93
1
72
2
10
5100.000000
20
2280.000000
40
17.500000
50
0.000000
51
360.000000
73
1
97
0
75
0
76
0
98
1
10
0.0
20
0.0
0
CIRCLE
5
27C
100
AcDbEntity
8
DRILL
62
255
100
AcDbCircle
39
0.000039
10
5100.000000
20
2280.000000
30
0
40
17.500000
0
HATCH
5
27D
100
AcDbEntity
8
DRILL
62
255
100
AcDbHatch
10
0.0
20
0.0
30
0.0
210
0.0
220
0.0
230
1.0
2
SOLID
70
1
71
0
91
1
92
1
93
1
72
2
10
5000.000000
20
2180.000000
40
17.500000
50
0.000000
51
360.000000
73
1
97
0
75
0
76
0
98
1
10
0.0
20
0.0
0
CIRCLE
5
27E
100
AcDbEntity
8
DRILL
62
255
100
AcDbCircle
39
0.000039
10
5000.000000
20
2180.000000
30
0
40
17.500000
0
HATCH
5
27F
100
AcDbEntity
8
DRILL
62
255
100
AcDbHatch
10
0.0
20
0.0
30
0.0
210
0.0
220
0.0
230
1.0
2
SOLID
70
1
71
0
91
1
92
1
93
1
72
2
10
5200.000000
20
2180.000000
40
17.500000
50
0.000000
51
360.000000
73
1
97
0
75
0
76
0
98
1
10
0.0
20
0.0
0
CIRCLE
5
280
100
AcDbEntity
8
DRILL
62
255
100
AcDbCircle
39
0.000039
10
5200.000000
20
2180.000000
30
0
40
17.500000
0
HATCH
5
281
100
AcDbEntity
8
DRILL
62
255
100
AcDbHatch
10
0.0
20
0.0
30
0.0
210
0.0
220
0.0
230
1.0
2
SOLID
70
1
71
0
91
1
92
1
93
1
72
2
10
1040.000000
20
2120.000000
40
27.500000
50
0.000000
51
360.000000
73
1
97
0
75
0
76
0
98
1
10
0.0
20
0.0
0
CIRCLE
5
282
100
AcDbEntity
8
DRILL
62
255
100
AcDbCircle
39
0.000039
10
1040.000000
20
2120.000000
30
0
40
27.500000
0
HATCH
5
283
100
AcDbEntity
8
DRILL
62
255
100
AcDbHatch
10
0.0
20
0.0
30
0.0
210
0.0
220
0.0
230
1.0
2
SOLID
70
1
71
0
91
1
92
1
93
1
72
2
10
512.440945
20
2120.000000
40
27.500000
50
0.000000
51
360.000000
73
1
97
0
75
0
76
0
98
1
10
0.0
20
0.0
0
CIRCLE
5
284
100
AcDbEntity
8
DRILL
62
255
100
AcDbCircle
39
0.000039
10
512.440945
20
2120.000000
30
0
40
27.500000
0
HATCH
5
285
100
AcDbEntity
8
DRILL
62
255
100
AcDbHatch
10
0.0
20
0.0
30
0.0
210
0.0
220
0.0
230
1.0
2
SOLID
70
1
71
0
91
1
92
1
93
1
72
2
10
4020.000000
20
2340.000000
40
19.585000
50
0.000000
51
360.000000
73
1
97
0
75
0
76
0
98
1
10
0.0
20
0.0
0
CIRCLE
5
286
100
AcDbEntity
8
DRILL
62
255
100
AcDbCircle
39
0.000039
10
4020.000000
20
2340.000000
30
0
40
19.585000
0
HATCH
5
287
100
AcDbEntity
8
DRILL
62
255
100
AcDbHatch
10
0.0
20
0.0
30
0.0
210
0.0
220
0.0
230
1.0
2
SOLID
70
1
71
0
91
1
92
1
93
1
72
2
10
4120.000000
20
2340.000000
40
17.500000
50
0.000000
51
360.000000
73
1
97
0
75
0
76
0
98
1
10
0.0
20
0.0
0
CIRCLE
5
288
100
AcDbEntity
8
DRILL
62
255
100
AcDbCircle
39
0.000039
10
4120.000000
20
2340.000000
30
0
40
17.500000
0
HATCH
5
289
100
AcDbEntity
8
DRILL
62
255
100
AcDbHatch
10
0.0
20
0.0
30
0.0
210
0.0
220
0.0
230
1.0
2
SOLID
70
1
71
0
91
1
92
1
93
1
72
2
10
1220.000039
20
2734.166614
40
17.500000
50
0.000000
51
360.000000
73
1
97
0
75
0
76
0
98
1
10
0.0
20
0.0
0
CIRCLE
5
28A
100
AcDbEntity
8
DRILL
62
255
100
AcDbCircle
39
0.000039
10
1220.000039
20
2734.166614
30
0
40
17.500000
0
HATCH
5
28B
100
AcDbEntity
8
DRILL
62
255
100
AcDbHatch
10
0.0
20
0.0
30
0.0
210
0.0
220
0.0
230
1.0
2
SOLID
70
1
71
0
91
1
92
1
93
1
72
2
10
1220.000039
20
2868.333268
40
17.500000
50
0.000000
51
360.000000
73
1
97
0
75
0
76
0
98
1
10
0.0
20
0.0
0
CIRCLE
5
28C
100
AcDbEntity
8
DRILL
62
255
100
AcDbCircle
39
0.000039
10
1220.000039
20
2868.333268
30
0
40
17.500000
0
HATCH
5
28D
100
AcDbEntity
8
DRILL
62
255
100
AcDbHatch
10
0.0
20
0.0
30
0.0
210
0.0
220
0.0
230
1.0
2
SOLID
70
1
71
0
91
1
92
1
93
1
72
2
10
1318.333346
20
2800.833268
40
17.500000
50
0.000000
51
360.000000
73
1
97
0
75
0
76
0
98
1
10
0.0
20
0.0
0
CIRCLE
5
28E
100
AcDbEntity
8
DRILL
62
255
100
AcDbCircle
39
0.000039
10
1318.333346
20
2800.833268
30
0
40
17.500000
0
HATCH
5
28F
100
AcDbEntity
8
DRILL
62
255
100
AcDbHatch
10
0.0
20
0.0
30
0.0
210
0.0
220
0.0
230
1.0
2
SOLID
70
1
71
0
91
1
92
1
93
1
72
2
10
1220.000039
20
2599.999961
40
17.500000
50
0.000000
51
360.000000
73
1
97
0
75
0
76
0
98
1
10
0.0
20
0.0
0
CIRCLE
5
290
100
AcDbEntity
8
DRILL
62
255
100
AcDbCircle
39
0.000039
10
1220.000039
20
2599.999961
30
0
40
17.500000
0
HATCH
5
291
100
AcDbEntity
8
DRILL
62
255
100
AcDbHatch
10
0.0
20
0.0
30
0.0
210
0.0
220
0.0
230
1.0
2
SOLID
70
1
71
0
91
1
92
1
93
1
72
2
10
1318.333346
20
2667.499961
40
17.500000
50
0.000000
51
360.000000
73
1
97
0
75
0
76
0
98
1
10
0.0
20
0.0
0
CIRCLE
5
292
100
AcDbEntity
8
DRILL
62
255
100
AcDbCircle
39
0.000039
10
1318.333346
20
2667.499961
30
0
40
17.500000
0
HATCH
5
293
100
AcDbEntity
8
DRILL
62
255
100
AcDbHatch
10
0.0
20
0.0
30
0.0
210
0.0
220
0.0
230
1.0
2
SOLID
70
1
71
0
91
1
92
1
93
1
72
2
10
629.166693
20
2734.166614
40
59.165000
50
0.000000
51
360.000000
73
1
97
0
75
0
76
0
98
1
10
0.0
20
0.0
0
CIRCLE
5
294
100
AcDbEntity
8
DRILL
62
255
100
AcDbCircle
39
0.000039
10
629.166693
20
2734.166614
30
0
40
59.165000
0
HATCH
5
295
100
AcDbEntity
8
DRILL
62
255
100
AcDbHatch
10
0.0
20
0.0
30
0.0
210
0.0
220
0.0
230
1.0
2
SOLID
70
1
71
0
91
1
92
1
93
1
72
2
10
7219.999961
20
2531.666732
40
17.500000
50
0.000000
51
360.000000
73
1
97
0
75
0
76
0
98
1
10
0.0
20
0.0
0
CIRCLE
5
296
100
AcDbEntity
8
DRILL
62
255
100
AcDbCircle
39
0.000039
10
7219.999961
20
2531.666732
30
0
40
17.500000
0
HATCH
5
297
100
AcDbEntity
8
DRILL
62
255
100
AcDbHatch
10
0.0
20
0.0
30
0.0
210
0.0
220
0.0
230
1.0
2
SOLID
70
1
71
0
91
1
92
1
93
1
72
2
10
7121.666654
20
2599.166732
40
17.500000
50
0.000000
51
360.000000
73
1
97
0
75
0
76
0
98
1
10
0.0
20
0.0
0
CIRCLE
5
298
100
AcDbEntity
8
DRILL
62
255
100
AcDbCircle
39
0.000039
10
7121.666654
20
2599.166732
30
0
40
17.500000
0
HATCH
5
299
100
AcDbEntity
8
DRILL
62
255
100
AcDbHatch
10
0.0
20
0.0
30
0.0
210
0.0
220
0.0
230
1.0
2
SOLID
70
1
71
0
91
1
92
1
93
1
72
2
10
7219.999961
20
2800.000039
40
17.500000
50
0.000000
51
360.000000
73
1
97
0
75
0
76
0
98
1
10
0.0
20
0.0
0
CIRCLE
5
29A
100
AcDbEntity
8
DRILL
62
255
100
AcDbCircle
39
0.000039
10
7219.999961
20
2800.000039
30
0
40
17.500000
0
HATCH
5
29B
100
AcDbEntity
8
DRILL
62
255
100
AcDbHatch
10
0.0
20
0.0
30
0.0
210
0.0
220
0.0
230
1.0
2
SOLID
70
1
71
0
91
1
92
1
93
1
72
2
10
7121.666654
20
2732.500039
40
17.500000
50
0.000000
51
360.000000
73
1
97
0
75
0
76
0
98
1
10
0.0
20
0.0
0
CIRCLE
5
29C
100
AcDbEntity
8
DRILL
62
255
100
AcDbCircle
39
0.000039
10
7121.666654
20
2732.500039
30
0
40
17.500000
0
HATCH
5
29D
100
AcDbEntity
8
DRILL
62
255
100
AcDbHatch
10
0.0
20
0.0
30
0.0
210
0.0
220
0.0
230
1.0
2
SOLID
70
1
71
0
91
1
92
1
93
1
72
2
10
7219.999961
20
2665.833386
40
17.500000
50
0.000000
51
360.000000
73
1
97
0
75
0
76
0
98
1
10
0.0
20
0.0
0
CIRCLE
5
29E
100
AcDbEntity
8
DRILL
62
255
100
AcDbCircle
39
0.000039
10
7219.999961
20
2665.833386
30
0
40
17.500000
0
HATCH
5
29F
100
AcDbEntity
8
DRILL
62
255
100
AcDbHatch
10
0.0
20
0.0
30
0.0
210
0.0
220
0.0
230
1.0
2
SOLID
70
1
71
0
91
1
92
1
93
1
72
2
10
7810.833307
20
2665.833386
40
59.165000
50
0.000000
51
360.000000
73
1
97
0
75
0
76
0
98
1
10
0.0
20
0.0
0
CIRCLE
5
2A0
100
AcDbEntity
8
DRILL
62
255
100
AcDbCircle
39
0.000039
10
7810.833307
20
2665.833386
30
0
40
59.165000
0
HATCH
5
2A1
100
AcDbEntity
8
DRILL
62
255
100
AcDbHatch
10
0.0
20
0.0
30
0.0
210
0.0
220
0.0
230
1.0
2
SOLID
70
1
71
0
91
1
92
1
93
1
72
2
10
7400.000000
20
2980.000000
40
27.500000
50
0.000000
51
360.000000
73
1
97
0
75
0
76
0
98
1
10
0.0
20
0.0
0
CIRCLE
5
2A2
100
AcDbEntity
8
DRILL
62
255
100
AcDbCircle
39
0.000039
10
7400.000000
20
2980.000000
30
0
40
27.500000
0
HATCH
5
2A3
100
AcDbEntity
8
DRILL
62
255
100
AcDbHatch
10
0.0
20
0.0
30
0.0
210
0.0
220
0.0
230
1.0
2
SOLID
70
1
71
0
91
1
92
1
93
1
72
2
10
7927.559055
20
2980.000000
40
27.500000
50
0.000000
51
360.000000
73
1
97
0
75
0
76
0
98
1
10
0.0
20
0.0
0
CIRCLE
5
2A4
100
AcDbEntity
8
DRILL
62
255
100
AcDbCircle
39
0.000039
10
7927.559055
20
2980.000000
30
0
40
27.500000
0
HATCH
5
2A5
100
AcDbEntity
8
DRILL
62
255
100
AcDbHatch
10
0.0
20
0.0
30
0.0
210
0.0
220
0.0
230
1.0
2
SOLID
70
1
71
0
91
1
92
1
93
1
72
2
10
3760.000000
20
3080.000000
40
27.500000
50
0.000000
51
360.000000
73
1
97
0
75
0
76
0
98
1
10
0.0
20
0.0
0
CIRCLE
5
2A6
100
AcDbEntity
8
DRILL
62
255
100
AcDbCircle
39
0.000039
10
3760.000000
20
3080.000000
30
0
40
27.500000
0
HATCH
5
2A7
100
AcDbEntity
8
DRILL
62
255
100
AcDbHatch
10
0.0
20
0.0
30
0.0
210
0.0
220
0.0
230
1.0
2
SOLID
70
1
71
0
91
1
92
1
93
1
72
2
10
3760.000000
20
2552.440945
40
27.500000
50
0.000000
51
360.000000
73
1
97
0
75
0
76
0
98
1
10
0.0
20
0.0
0
CIRCLE
5
2A8
100
AcDbEntity
8
DRILL
62
255
100
AcDbCircle
39
0.000039
10
3760.000000
20
2552.440945
30
0
40
27.500000
0
HATCH
5
2A9
100
AcDbEntity
8
DRILL
62
255
100
AcDbHatch
10
0.0
20
0.0
30
0.0
210
0.0
220
0.0
230
1.0
2
SOLID
70
1
71
0
91
1
92
1
93
1
72
2
10
4420.000000
20
3080.000000
40
27.500000
50
0.000000
51
360.000000
73
1
97
0
75
0
76
0
98
1
10
0.0
20
0.0
0
CIRCLE
5
2AA
100
AcDbEntity
8
DRILL
62
255
100
AcDbCircle
39
0.000039
10
4420.000000
20
3080.000000
30
0
40
27.500000
0
HATCH
5
2AB
100
AcDbEntity
8
DRILL
62
255
100
AcDbHatch
10
0.0
20
0.0
30
0.0
210
0.0
220
0.0
230
1.0
2
SOLID
70
1
71
0
91
1
92
1
93
1
72
2
10
4420.000000
20
2552.440945
40
27.500000
50
0.000000
51
360.000000
73
1
97
0
75
0
76
0
98
1
10
0.0
20
0.0
0
CIRCLE
5
2AC
100
AcDbEntity
8
DRILL
62
255
100
AcDbCircle
39
0.000039
10
4420.000000
20
2552.440945
30
0
40
27.500000
0
HATCH
5
2AD
100
AcDbEntity
8
DRILL
62
255
100
AcDbHatch
10
0.0
20
0.0
30
0.0
210
0.0
220
0.0
230
1.0
2
SOLID
70
1
71
0
91
1
92
1
93
1
72
2
10
3040.000000
20
2880.000000
40
17.500000
50
0.000000
51
360.000000
73
1
97
0
75
0
76
0
98
1
10
0.0
20
0.0
0
CIRCLE
5
2AE
100
AcDbEntity
8
DRILL
62
255
100
AcDbCircle
39
0.000039
10
3040.000000
20
2880.000000
30
0
40
17.500000
0
HATCH
5
2AF
100
AcDbEntity
8
DRILL
62
255
100
AcDbHatch
10
0.0
20
0.0
30
0.0
210
0.0
220
0.0
230
1.0
2
SOLID
70
1
71
0
91
1
92
1
93
1
72
2
10
2940.000000
20
2780.000000
40
17.500000
50
0.000000
51
360.000000
73
1
97
0
75
0
76
0
98
1
10
0.0
20
0.0
0
CIRCLE
5
2B0
100
AcDbEntity
8
DRILL
62
255
100
AcDbCircle
39
0.000039
10
2940.000000
20
2780.000000
30
0
40
17.500000
0
HATCH
5
2B1
100
AcDbEntity
8
DRILL
62
255
100
AcDbHatch
10
0.0
20
0.0
30
0.0
210
0.0
220
0.0
230
1.0
2
SOLID
70
1
71
0
91
1
92
1
93
1
72
2
10
3140.000000
20
2780.000000
40
17.500000
50
0.000000
51
360.000000
73
1
97
0
75
0
76
0
98
1
10
0.0
20
0.0
0
CIRCLE
5
2B2
100
AcDbEntity
8
DRILL
62
255
100
AcDbCircle
39
0.000039
10
3140.000000
20
2780.000000
30
0
40
17.500000
0
HATCH
5
2B3
100
AcDbEntity
8
DRILL
62
255
100
AcDbHatch
10
0.0
20
0.0
30
0.0
210
0.0
220
0.0
230
1.0
2
SOLID
70
1
71
0
91
1
92
1
93
1
72
2
10
5120.000000
20
2940.000000
40
17.500000
50
0.000000
51
360.000000
73
1
97
0
75
0
76
0
98
1
10
0.0
20
0.0
0
CIRCLE
5
2B4
100
AcDbEntity
8
DRILL
62
255
100
AcDbCircle
39
0.000039
10
5120.000000
20
2940.000000
30
0
40
17.500000
0
HATCH
5
2B5
100
AcDbEntity
8
DRILL
62
255
100
AcDbHatch
10
0.0
20
0.0
30
0.0
210
0.0
220
0.0
230
1.0
2
SOLID
70
1
71
0
91
1
92
1
93
1
72
2
10
5220.000000
20
2840.000000
40
17.500000
50
0.000000
51
360.000000
73
1
97
0
75
0
76
0
98
1
10
0.0
20
0.0
0
CIRCLE
5
2B6
100
AcDbEntity
8
DRILL
62
255
100
AcDbCircle
39
0.000039
10
5220.000000
20
2840.000000
30
0
40
17.500000
0
HATCH
5
2B7
100
AcDbEntity
8
DRILL
62
255
100
AcDbHatch
10
0.0
20
0.0
30
0.0
210
0.0
220
0.0
230
1.0
2
SOLID
70
1
71
0
91
1
92
1
93
1
72
2
10
5020.000000
20
2840.000000
40
17.500000
50
0.000000
51
360.000000
73
1
97
0
75
0
76
0
98
1
10
0.0
20
0.0
0
CIRCLE
5
2B8
100
AcDbEntity
8
DRILL
62
255
100
AcDbCircle
39
0.000039
10
5020.000000
20
2840.000000
30
0
40
17.500000
0
HATCH
5
2B9
100
AcDbEntity
8
DRILL
62
255
100
AcDbHatch
10
0.0
20
0.0
30
0.0
210
0.0
220
0.0
230
1.0
2
SOLID
70
1
71
0
91
1
92
1
93
1
72
2
10
6791.811024
20
3120.000000
40
17.716535
50
0.000000
51
360.000000
73
1
97
0
75
0
76
0
98
1
10
0.0
20
0.0
0
CIRCLE
5
2BA
100
AcDbEntity
8
DRILL
62
255
100
AcDbCircle
39
0.000039
10
6791.811024
20
3120.000000
30
0
40
17.716535
0
HATCH
5
2BB
100
AcDbEntity
8
DRILL
62
255
100
AcDbHatch
10
0.0
20
0.0
30
0.0
210
0.0
220
0.0
230
1.0
2
SOLID
70
1
71
0
91
1
92
1
93
1
72
2
10
6280.000000
20
3120.000000
40
17.716535
50
0.000000
51
360.000000
73
1
97
0
75
0
76
0
98
1
10
0.0
20
0.0
0
CIRCLE
5
2BC
100
AcDbEntity
8
DRILL
62
255
100
AcDbCircle
39
0.000039
10
6280.000000
20
3120.000000
30
0
40
17.716535
0
HATCH
5
2BD
100
AcDbEntity
8
DRILL
62
255
100
AcDbHatch
10
0.0
20
0.0
30
0.0
210
0.0
220
0.0
230
1.0
2
SOLID
70
1
71
0
91
1
92
1
93
1
72
2
10
2691.811024
20
2120.000000
40
17.716535
50
0.000000
51
360.000000
73
1
97
0
75
0
76
0
98
1
10
0.0
20
0.0
0
CIRCLE
5
2BE
100
AcDbEntity
8
DRILL
62
255
100
AcDbCircle
39
0.000039
10
2691.811024
20
2120.000000
30
0
40
17.716535
0
HATCH
5
2BF
100
AcDbEntity
8
DRILL
62
255
100
AcDbHatch
10
0.0
20
0.0
30
0.0
210
0.0
220
0.0
230
1.0
2
SOLID
70
1
71
0
91
1
92
1
93
1
72
2
10
2180.000000
20
2120.000000
40
17.716535
50
0.000000
51
360.000000
73
1
97
0
75
0
76
0
98
1
10
0.0
20
0.0
0
CIRCLE
5
2C0
100
AcDbEntity
8
DRILL
62
255
100
AcDbCircle
39
0.000039
10
2180.000000
20
2120.000000
30
0
40
17.716535
0
HATCH
5
2C1
100
AcDbEntity
8
DRILL
62
255
100
AcDbHatch
10
0.0
20
0.0
30
0.0
210
0.0
220
0.0
230
1.0
2
SOLID
70
1
71
0
91
1
92
1
93
1
72
2
10
6011.811024
20
2180.000000
40
17.716535
50
0.000000
51
360.000000
73
1
97
0
75
0
76
0
98
1
10
0.0
20
0.0
0
CIRCLE
5
2C2
100
AcDbEntity
8
DRILL
62
255
100
AcDbCircle
39
0.000039
10
6011.811024
20
2180.000000
30
0
40
17.716535
0
HATCH
5
2C3
100
AcDbEntity
8
DRILL
62
255
100
AcDbHatch
10
0.0
20
0.0
30
0.0
210
0.0
220
0.0
230
1.0
2
SOLID
70
1
71
0
91
1
92
1
93
1
72
2
10
5500.000000
20
2180.000000
40
17.716535
50
0.000000
51
360.000000
73
1
97
0
75
0
76
0
98
1
10
0.0
20
0.0
0
CIRCLE
5
2C4
100
AcDbEntity
8
DRILL
62
255
100
AcDbCircle
39
0.000039
10
5500.000000
20
2180.000000
30
0
40
17.716535
0
HATCH
5
2C5
100
AcDbEntity
8
DRILL
62
255
100
AcDbHatch
10
0.0
20
0.0
30
0.0
210
0.0
220
0.0
230
1.0
2
SOLID
70
1
71
0
91
1
92
1
93
1
72
2
10
2051.811024
20
2240.000000
40
17.716535
50
0.000000
51
360.000000
73
1
97
0
75
0
76
0
98
1
10
0.0
20
0.0
0
CIRCLE
5
2C6
100
AcDbEntity
8
DRILL
62
255
100
AcDbCircle
39
0.000039
10
2051.811024
20
2240.000000
30
0
40
17.716535
0
HATCH
5
2C7
100
AcDbEntity
8
DRILL
62
255
100
AcDbHatch
10
0.0
20
0.0
30
0.0
210
0.0
220
0.0
230
1.0
2
SOLID
70
1
71
0
91
1
92
1
93
1
72
2
10
1540.000000
20
2240.000000
40
17.716535
50
0.000000
51
360.000000
73
1
97
0
75
0
76
0
98
1
10
0.0
20
0.0
0
CIRCLE
5
2C8
100
AcDbEntity
8
DRILL
62
255
100
AcDbCircle
39
0.000039
10
1540.000000
20
2240.000000
30
0
40
17.716535
0
HATCH
5
2C9
100
AcDbEntity
8
DRILL
62
255
100
AcDbHatch
10
0.0
20
0.0
30
0.0
210
0.0
220
0.0
230
1.0
2
SOLID
70
1
71
0
91
1
92
1
93
1
72
2
10
2051.811024
20
2480.000000
40
17.716535
50
0.000000
51
360.000000
73
1
97
0
75
0
76
0
98
1
10
0.0
20
0.0
0
CIRCLE
5
2CA
100
AcDbEntity
8
DRILL
62
255
100
AcDbCircle
39
0.000039
10
2051.811024
20
2480.000000
30
0
40
17.716535
0
HATCH
5
2CB
100
AcDbEntity
8
DRILL
62
255
100
AcDbHatch
10
0.0
20
0.0
30
0.0
210
0.0
220
0.0
230
1.0
2
SOLID
70
1
71
0
91
1
92
1
93
1
72
2
10
1540.000000
20
2480.000000
40
17.716535
50
0.000000
51
360.000000
73
1
97
0
75
0
76
0
98
1
10
0.0
20
0.0
0
CIRCLE
5
2CC
100
AcDbEntity
8
DRILL
62
255
100
AcDbCircle
39
0.000039
10
1540.000000
20
2480.000000
30
0
40
17.716535
0
HATCH
5
2CD
100
AcDbEntity
8
DRILL
62
255
100
AcDbHatch
10
0.0
20
0.0
30
0.0
210
0.0
220
0.0
230
1.0
2
SOLID
70
1
71
0
91
1
92
1
93
1
72
2
10
6031.811024
20
2680.000000
40
17.716535
50
0.000000
51
360.000000
73
1
97
0
75
0
76
0
98
1
10
0.0
20
0.0
0
CIRCLE
5
2CE
100
AcDbEntity
8
DRILL
62
255
100
AcDbCircle
39
0.000039
10
6031.811024
20
2680.000000
30
0
40
17.716535
0
HATCH
5
2CF
100
AcDbEntity
8
DRILL
62
255
100
AcDbHatch
10
0.0
20
0.0
30
0.0
210
0.0
220
0.0
230
1.0
2
SOLID
70
1
71
0
91
1
92
1
93
1
72
2
10
5520.000000
20
2680.000000
40
17.716535
50
0.000000
51
360.000000
73
1
97
0
75
0
76
0
98
1
10
0.0
20
0.0
0
CIRCLE
5
2D0
100
AcDbEntity
8
DRILL
62
255
100
AcDbCircle
39
0.000039
10
5520.000000
20
2680.000000
30
0
40
17.716535
0
HATCH
5
2D1
100
AcDbEntity
8
DRILL
62
255
100
AcDbHatch
10
0.0
20
0.0
30
0.0
210
0.0
220
0.0
230
1.0
2
SOLID
70
1
71
0
91
1
92
1
93
1
72
2
10
2791.811024
20
2900.000000
40
17.716535
50
0.000000
51
360.000000
73
1
97
0
75
0
76
0
98
1
10
0.0
20
0.0
0
CIRCLE
5
2D2
100
AcDbEntity
8
DRILL
62
255
100
AcDbCircle
39
0.000039
10
2791.811024
20
2900.000000
30
0
40
17.716535
0
HATCH
5
2D3
100
AcDbEntity
8
DRILL
62
255
100
AcDbHatch
10
0.0
20
0.0
30
0.0
210
0.0
220
0.0
230
1.0
2
SOLID
70
1
71
0
91
1
92
1
93
1
72
2
10
2280.000000
20
2900.000000
40
17.716535
50
0.000000
51
360.000000
73
1
97
0
75
0
76
0
98
1
10
0.0
20
0.0
0
CIRCLE
5
2D4
100
AcDbEntity
8
DRILL
62
255
100
AcDbCircle
39
0.000039
10
2280.000000
20
2900.000000
30
0
40
17.716535
0
HATCH
5
2D5
100
AcDbEntity
8
DRILL
62
255
100
AcDbHatch
10
0.0
20
0.0
30
0.0
210
0.0
220
0.0
230
1.0
2
SOLID
70
1
71
0
91
1
92
1
93
1
72
2
10
6771.811024
20
2880.000000
40
17.716535
50
0.000000
51
360.000000
73
1
97
0
75
0
76
0
98
1
10
0.0
20
0.0
0
CIRCLE
5
2D6
100
AcDbEntity
8
DRILL
62
255
100
AcDbCircle
39
0.000039
10
6771.811024
20
2880.000000
30
0
40
17.716535
0
HATCH
5
2D7
100
AcDbEntity
8
DRILL
62
255
100
AcDbHatch
10
0.0
20
0.0
30
0.0
210
0.0
220
0.0
230
1.0
2
SOLID
70
1
71
0
91
1
92
1
93
1
72
2
10
6260.000000
20
2880.000000
40
17.716535
50
0.000000
51
360.000000
73
1
97
0
75
0
76
0
98
1
10
0.0
20
0.0
0
CIRCLE
5
2D8
100
AcDbEntity
8
DRILL
62
255
100
AcDbCircle
39
0.000039
10
6260.000000
20
2880.000000
30
0
40
17.716535
0
HATCH
5
2D9
100
AcDbEntity
8
DRILL
62
255
100
AcDbHatch
10
0.0
20
0.0
30
0.0
210
0.0
220
0.0
230
1.0
2
SOLID
70
1
71
0
91
1
92
1
93
1
72
2
10
3780.000000
20
352.440945
40
27.500000
50
0.000000
51
360.000000
73
1
97
0
75
0
76
0
98
1
10
0.0
20
0.0
0
CIRCLE
5
2DA
100
AcDbEntity
8
DRILL
62
255
100
AcDbCircle
39
0.000039
10
3780.000000
20
352.440945
30
0
40
27.500000
0
HATCH
5
2DB
100
AcDbEntity
8
DRILL
62
255
100
AcDbHatch
10
0.0
20
0.0
30
0.0
210
0.0
220
0.0
230
1.0
2
SOLID
70
1
71
0
91
1
92
1
93
1
72
2
10
3780.000000
20
880.000000
40
27.500000
50
0.000000
51
360.000000
73
1
97
0
75
0
76
0
98
1
10
0.0
20
0.0
0
CIRCLE
5
2DC
100
AcDbEntity
8
DRILL
62
255
100
AcDbCircle
39
0.000039
10
3780.000000
20
880.000000
30
0
40
27.500000
0
HATCH
5
2DD
100
AcDbEntity
8
DRILL
62
255
100
AcDbHatch
10
0.0
20
0.0
30
0.0
210
0.0
220
0.0
230
1.0
2
SOLID
70
1
71
0
91
1
92
1
93
1
72
2
10
4440.000000
20
352.440945
40
27.500000
50
0.000000
51
360.000000
73
1
97
0
75
0
76
0
98
1
10
0.0
20
0.0
0
CIRCLE
5
2DE
100
AcDbEntity
8
DRILL
62
255
100
AcDbCircle
39
0.000039
10
4440.000000
20
352.440945
30
0
40
27.500000
0
HATCH
5
2DF
100
AcDbEntity
8
DRILL
62
255
100
AcDbHatch
10
0.0
20
0.0
30
0.0
210
0.0
220
0.0
230
1.0
2
SOLID
70
1
71
0
91
1
92
1
93
1
72
2
10
4440.000000
20
880.000000
40
27.500000
50
0.000000
51
360.000000
73
1
97
0
75
0
76
0
98
1
10
0.0
20
0.0
0
CIRCLE
5
2E0
100
AcDbEntity
8
DRILL
62
255
100
AcDbCircle
39
0.000039
10
4440.000000
20
880.000000
30
0
40
27.500000
0
HATCH
5
2E1
100
AcDbEntity
8
DRILL
62
255
100
AcDbHatch
10
0.0
20
0.0
30
0.0
210
0.0
220
0.0
230
1.0
2
SOLID
70
1
71
0
91
1
92
1
93
1
72
2
10
3180.000000
20
740.000000
40
17.500000
50
0.000000
51
360.000000
73
1
97
0
75
0
76
0
98
1
10
0.0
20
0.0
0
CIRCLE
5
2E2
100
AcDbEntity
8
DRILL
62
255
100
AcDbCircle
39
0.000039
10
3180.000000
20
740.000000
30
0
40
17.500000
0
HATCH
5
2E3
100
AcDbEntity
8
DRILL
62
255
100
AcDbHatch
10
0.0
20
0.0
30
0.0
210
0.0
220
0.0
230
1.0
2
SOLID
70
1
71
0
91
1
92
1
93
1
72
2
10
3080.000000
20
840.000000
40
17.500000
50
0.000000
51
360.000000
73
1
97
0
75
0
76
0
98
1
10
0.0
20
0.0
0
CIRCLE
5
2E4
100
AcDbEntity
8
DRILL
62
255
100
AcDbCircle
39
0.000039
10
3080.000000
20
840.000000
30
0
40
17.500000
0
HATCH
5
2E5
100
AcDbEntity
8
DRILL
62
255
100
AcDbHatch
10
0.0
20
0.0
30
0.0
210
0.0
220
0.0
230
1.0
2
SOLID
70
1
71
0
91
1
92
1
93
1
72
2
10
3080.000000
20
640.000000
40
17.500000
50
0.000000
51
360.000000
73
1
97
0
75
0
76
0
98
1
10
0.0
20
0.0
0
CIRCLE
5
2E6
100
AcDbEntity
8
DRILL
62
255
100
AcDbCircle
39
0.000039
10
3080.000000
20
640.000000
30
0
40
17.500000
0
HATCH
5
2E7
100
AcDbEntity
8
DRILL
62
255
100
AcDbHatch
10
0.0
20
0.0
30
0.0
210
0.0
220
0.0
230
1.0
2
SOLID
70
1
71
0
91
1
92
1
93
1
72
2
10
2711.811024
20
660.000000
40
17.716535
50
0.000000
51
360.000000
73
1
97
0
75
0
76
0
98
1
10
0.0
20
0.0
0
CIRCLE
5
2E8
100
AcDbEntity
8
DRILL
62
255
100
AcDbCircle
39
0.000039
10
2711.811024
20
660.000000
30
0
40
17.716535
0
HATCH
5
2E9
100
AcDbEntity
8
DRILL
62
255
100
AcDbHatch
10
0.0
20
0.0
30
0.0
210
0.0
220
0.0
230
1.0
2
SOLID
70
1
71
0
91
1
92
1
93
1
72
2
10
2200.000000
20
660.000000
40
17.716535
50
0.000000
51
360.000000
73
1
97
0
75
0
76
0
98
1
10
0.0
20
0.0
0
CIRCLE
5
2EA
100
AcDbEntity
8
DRILL
62
255
100
AcDbCircle
39
0.000039
10
2200.000000
20
660.000000
30
0
40
17.716535
0
HATCH
5
2EB
100
AcDbEntity
8
DRILL
62
255
100
AcDbHatch
10
0.0
20
0.0
30
0.0
210
0.0
220
0.0
230
1.0
2
SOLID
70
1
71
0
91
1
92
1
93
1
72
2
10
5120.000000
20
820.000000
40
17.500000
50
0.000000
51
360.000000
73
1
97
0
75
0
76
0
98
1
10
0.0
20
0.0
0
CIRCLE
5
2EC
100
AcDbEntity
8
DRILL
62
255
100
AcDbCircle
39
0.000039
10
5120.000000
20
820.000000
30
0
40
17.500000
0
HATCH
5
2ED
100
AcDbEntity
8
DRILL
62
255
100
AcDbHatch
10
0.0
20
0.0
30
0.0
210
0.0
220
0.0
230
1.0
2
SOLID
70
1
71
0
91
1
92
1
93
1
72
2
10
5020.000000
20
720.000000
40
17.500000
50
0.000000
51
360.000000
73
1
97
0
75
0
76
0
98
1
10
0.0
20
0.0
0
CIRCLE
5
2EE
100
AcDbEntity
8
DRILL
62
255
100
AcDbCircle
39
0.000039
10
5020.000000
20
720.000000
30
0
40
17.500000
0
HATCH
5
2EF
100
AcDbEntity
8
DRILL
62
255
100
AcDbHatch
10
0.0
20
0.0
30
0.0
210
0.0
220
0.0
230
1.0
2
SOLID
70
1
71
0
91
1
92
1
93
1
72
2
10
5220.000000
20
720.000000
40
17.500000
50
0.000000
51
360.000000
73
1
97
0
75
0
76
0
98
1
10
0.0
20
0.0
0
CIRCLE
5
2F0
100
AcDbEntity
8
DRILL
62
255
100
AcDbCircle
39
0.000039
10
5220.000000
20
720.000000
30
0
40
17.500000
0
HATCH
5
2F1
100
AcDbEntity
8
DRILL
62
255
100
AcDbHatch
10
0.0
20
0.0
30
0.0
210
0.0
220
0.0
230
1.0
2
SOLID
70
1
71
0
91
1
92
1
93
1
72
2
10
6031.811024
20
720.000000
40
17.716535
50
0.000000
51
360.000000
73
1
97
0
75
0
76
0
98
1
10
0.0
20
0.0
0
CIRCLE
5
2F2
100
AcDbEntity
8
DRILL
62
255
100
AcDbCircle
39
0.000039
10
6031.811024
20
720.000000
30
0
40
17.716535
0
HATCH
5
2F3
100
AcDbEntity
8
DRILL
62
255
100
AcDbHatch
10
0.0
20
0.0
30
0.0
210
0.0
220
0.0
230
1.0
2
SOLID
70
1
71
0
91
1
92
1
93
1
72
2
10
5520.000000
20
720.000000
40
17.716535
50
0.000000
51
360.000000
73
1
97
0
75
0
76
0
98
1
10
0.0
20
0.0
0
CIRCLE
5
2F4
100
AcDbEntity
8
DRILL
62
255
100
AcDbCircle
39
0.000039
10
5520.000000
20
720.000000
30
0
40
17.716535
0
HATCH
5
2F5
100
AcDbEntity
8
DRILL
62
255
100
AcDbHatch
10
0.0
20
0.0
30
0.0
210
0.0
220
0.0
230
1.0
2
SOLID
70
1
71
0
91
1
92
1
93
1
72
2
10
532.440945
20
660.000000
40
27.500000
50
0.000000
51
360.000000
73
1
97
0
75
0
76
0
98
1
10
0.0
20
0.0
0
CIRCLE
5
2F6
100
AcDbEntity
8
DRILL
62
255
100
AcDbCircle
39
0.000039
10
532.440945
20
660.000000
30
0
40
27.500000
0
HATCH
5
2F7
100
AcDbEntity
8
DRILL
62
255
100
AcDbHatch
10
0.0
20
0.0
30
0.0
210
0.0
220
0.0
230
1.0
2
SOLID
70
1
71
0
91
1
92
1
93
1
72
2
10
1060.000000
20
660.000000
40
27.500000
50
0.000000
51
360.000000
73
1
97
0
75
0
76
0
98
1
10
0.0
20
0.0
0
CIRCLE
5
2F8
100
AcDbEntity
8
DRILL
62
255
100
AcDbCircle
39
0.000039
10
1060.000000
20
660.000000
30
0
40
27.500000
0
HATCH
5
2F9
100
AcDbEntity
8
DRILL
62
255
100
AcDbHatch
10
0.0
20
0.0
30
0.0
210
0.0
220
0.0
230
1.0
2
SOLID
70
1
71
0
91
1
92
1
93
1
72
2
10
2071.811024
20
780.000000
40
17.716535
50
0.000000
51
360.000000
73
1
97
0
75
0
76
0
98
1
10
0.0
20
0.0
0
CIRCLE
5
2FA
100
AcDbEntity
8
DRILL
62
255
100
AcDbCircle
39
0.000039
10
2071.811024
20
780.000000
30
0
40
17.716535
0
HATCH
5
2FB
100
AcDbEntity
8
DRILL
62
255
100
AcDbHatch
10
0.0
20
0.0
30
0.0
210
0.0
220
0.0
230
1.0
2
SOLID
70
1
71
0
91
1
92
1
93
1
72
2
10
1560.000000
20
780.000000
40
17.716535
50
0.000000
51
360.000000
73
1
97
0
75
0
76
0
98
1
10
0.0
20
0.0
0
CIRCLE
5
2FC
100
AcDbEntity
8
DRILL
62
255
100
AcDbCircle
39
0.000039
10
1560.000000
20
780.000000
30
0
40
17.716535
0
HATCH
5
2FD
100
AcDbEntity
8
DRILL
62
255
100
AcDbHatch
10
0.0
20
0.0
30
0.0
210
0.0
220
0.0
230
1.0
2
SOLID
70
1
71
0
91
1
92
1
93
1
72
2
10
4040.000000
20
880.000000
40
19.585000
50
0.000000
51
360.000000
73
1
97
0
75
0
76
0
98
1
10
0.0
20
0.0
0
CIRCLE
5
2FE
100
AcDbEntity
8
DRILL
62
255
100
AcDbCircle
39
0.000039
10
4040.000000
20
880.000000
30
0
40
19.585000
0
HATCH
5
2FF
100
AcDbEntity
8
DRILL
62
255
100
AcDbHatch
10
0.0
20
0.0
30
0.0
210
0.0
220
0.0
230
1.0
2
SOLID
70
1
71
0
91
1
92
1
93
1
72
2
10
4140.000000
20
880.000000
40
17.500000
50
0.000000
51
360.000000
73
1
97
0
75
0
76
0
98
1
10
0.0
20
0.0
0
CIRCLE
5
300
100
AcDbEntity
8
DRILL
62
255
100
AcDbCircle
39
0.000039
10
4140.000000
20
880.000000
30
0
40
17.500000
0
HATCH
5
301
100
AcDbEntity
8
DRILL
62
255
100
AcDbHatch
10
0.0
20
0.0
30
0.0
210
0.0
220
0.0
230
1.0
2
SOLID
70
1
71
0
91
1
92
1
93
1
72
2
10
720.000000
20
960.000000
40
19.585000
50
0.000000
51
360.000000
73
1
97
0
75
0
76
0
98
1
10
0.0
20
0.0
0
CIRCLE
5
302
100
AcDbEntity
8
DRILL
62
255
100
AcDbCircle
39
0.000039
10
720.000000
20
960.000000
30
0
40
19.585000
0
HATCH
5
303
100
AcDbEntity
8
DRILL
62
255
100
AcDbHatch
10
0.0
20
0.0
30
0.0
210
0.0
220
0.0
230
1.0
2
SOLID
70
1
71
0
91
1
92
1
93
1
72
2
10
820.000000
20
960.000000
40
17.500000
50
0.000000
51
360.000000
73
1
97
0
75
0
76
0
98
1
10
0.0
20
0.0
0
CIRCLE
5
304
100
AcDbEntity
8
DRILL
62
255
100
AcDbCircle
39
0.000039
10
820.000000
20
960.000000
30
0
40
17.500000
0
HATCH
5
305
100
AcDbEntity
8
DRILL
62
255
100
AcDbHatch
10
0.0
20
0.0
30
0.0
210
0.0
220
0.0
230
1.0
2
SOLID
70
1
71
0
91
1
92
1
93
1
72
2
10
2071.811024
20
1020.000000
40
17.716535
50
0.000000
51
360.000000
73
1
97
0
75
0
76
0
98
1
10
0.0
20
0.0
0
CIRCLE
5
306
100
AcDbEntity
8
DRILL
62
255
100
AcDbCircle
39
0.000039
10
2071.811024
20
1020.000000
30
0
40
17.716535
0
HATCH
5
307
100
AcDbEntity
8
DRILL
62
255
100
AcDbHatch
10
0.0
20
0.0
30
0.0
210
0.0
220
0.0
230
1.0
2
SOLID
70
1
71
0
91
1
92
1
93
1
72
2
10
1560.000000
20
1020.000000
40
17.716535
50
0.000000
51
360.000000
73
1
97
0
75
0
76
0
98
1
10
0.0
20
0.0
0
CIRCLE
5
308
100
AcDbEntity
8
DRILL
62
255
100
AcDbCircle
39
0.000039
10
1560.000000
20
1020.000000
30
0
40
17.716535
0
HATCH
5
309
100
AcDbEntity
8
DRILL
62
255
100
AcDbHatch
10
0.0
20
0.0
30
0.0
210
0.0
220
0.0
230
1.0
2
SOLID
70
1
71
0
91
1
92
1
93
1
72
2
10
1240.000039
20
1274.166614
40
17.500000
50
0.000000
51
360.000000
73
1
97
0
75
0
76
0
98
1
10
0.0
20
0.0
0
CIRCLE
5
30A
100
AcDbEntity
8
DRILL
62
255
100
AcDbCircle
39
0.000039
10
1240.000039
20
1274.166614
30
0
40
17.500000
0
HATCH
5
30B
100
AcDbEntity
8
DRILL
62
255
100
AcDbHatch
10
0.0
20
0.0
30
0.0
210
0.0
220
0.0
230
1.0
2
SOLID
70
1
71
0
91
1
92
1
93
1
72
2
10
1240.000039
20
1408.333268
40
17.500000
50
0.000000
51
360.000000
73
1
97
0
75
0
76
0
98
1
10
0.0
20
0.0
0
CIRCLE
5
30C
100
AcDbEntity
8
DRILL
62
255
100
AcDbCircle
39
0.000039
10
1240.000039
20
1408.333268
30
0
40
17.500000
0
HATCH
5
30D
100
AcDbEntity
8
DRILL
62
255
100
AcDbHatch
10
0.0
20
0.0
30
0.0
210
0.0
220
0.0
230
1.0
2
SOLID
70
1
71
0
91
1
92
1
93
1
72
2
10
1338.333346
20
1340.833268
40
17.500000
50
0.000000
51
360.000000
73
1
97
0
75
0
76
0
98
1
10
0.0
20
0.0
0
CIRCLE
5
30E
100
AcDbEntity
8
DRILL
62
255
100
AcDbCircle
39
0.000039
10
1338.333346
20
1340.833268
30
0
40
17.500000
0
HATCH
5
30F
100
AcDbEntity
8
DRILL
62
255
100
AcDbHatch
10
0.0
20
0.0
30
0.0
210
0.0
220
0.0
230
1.0
2
SOLID
70
1
71
0
91
1
92
1
93
1
72
2
10
1240.000039
20
1139.999961
40
17.500000
50
0.000000
51
360.000000
73
1
97
0
75
0
76
0
98
1
10
0.0
20
0.0
0
CIRCLE
5
310
100
AcDbEntity
8
DRILL
62
255
100
AcDbCircle
39
0.000039
10
1240.000039
20
1139.999961
30
0
40
17.500000
0
HATCH
5
311
100
AcDbEntity
8
DRILL
62
255
100
AcDbHatch
10
0.0
20
0.0
30
0.0
210
0.0
220
0.0
230
1.0
2
SOLID
70
1
71
0
91
1
92
1
93
1
72
2
10
1338.333346
20
1207.499961
40
17.500000
50
0.000000
51
360.000000
73
1
97
0
75
0
76
0
98
1
10
0.0
20
0.0
0
CIRCLE
5
312
100
AcDbEntity
8
DRILL
62
255
100
AcDbCircle
39
0.000039
10
1338.333346
20
1207.499961
30
0
40
17.500000
0
HATCH
5
313
100
AcDbEntity
8
DRILL
62
255
100
AcDbHatch
10
0.0
20
0.0
30
0.0
210
0.0
220
0.0
230
1.0
2
SOLID
70
1
71
0
91
1
92
1
93
1
72
2
10
649.166693
20
1274.166614
40
59.165000
50
0.000000
51
360.000000
73
1
97
0
75
0
76
0
98
1
10
0.0
20
0.0
0
CIRCLE
5
314
100
AcDbEntity
8
DRILL
62
255
100
AcDbCircle
39
0.000039
10
649.166693
20
1274.166614
30
0
40
59.165000
0
HATCH
5
315
100
AcDbEntity
8
DRILL
62
255
100
AcDbHatch
10
0.0
20
0.0
30
0.0
210
0.0
220
0.0
230
1.0
2
SOLID
70
1
71
0
91
1
92
1
93
1
72
2
10
3780.000000
20
1092.440945
40
27.500000
50
0.000000
51
360.000000
73
1
97
0
75
0
76
0
98
1
10
0.0
20
0.0
0
CIRCLE
5
316
100
AcDbEntity
8
DRILL
62
255
100
AcDbCircle
39
0.000039
10
3780.000000
20
1092.440945
30
0
40
27.500000
0
HATCH
5
317
100
AcDbEntity
8
DRILL
62
255
100
AcDbHatch
10
0.0
20
0.0
30
0.0
210
0.0
220
0.0
230
1.0
2
SOLID
70
1
71
0
91
1
92
1
93
1
72
2
10
3780.000000
20
1620.000000
40
27.500000
50
0.000000
51
360.000000
73
1
97
0
75
0
76
0
98
1
10
0.0
20
0.0
0
CIRCLE
5
318
100
AcDbEntity
8
DRILL
62
255
100
AcDbCircle
39
0.000039
10
3780.000000
20
1620.000000
30
0
40
27.500000
0
HATCH
5
319
100
AcDbEntity
8
DRILL
62
255
100
AcDbHatch
10
0.0
20
0.0
30
0.0
210
0.0
220
0.0
230
1.0
2
SOLID
70
1
71
0
91
1
92
1
93
1
72
2
10
4440.000000
20
1092.440945
40
27.500000
50
0.000000
51
360.000000
73
1
97
0
75
0
76
0
98
1
10
0.0
20
0.0
0
CIRCLE
5
31A
100
AcDbEntity
8
DRILL
62
255
100
AcDbCircle
39
0.000039
10
4440.000000
20
1092.440945
30
0
40
27.500000
0
HATCH
5
31B
100
AcDbEntity
8
DRILL
62
255
100
AcDbHatch
10
0.0
20
0.0
30
0.0
210
0.0
220
0.0
230
1.0
2
SOLID
70
1
71
0
91
1
92
1
93
1
72
2
10
4440.000000
20
1620.000000
40
27.500000
50
0.000000
51
360.000000
73
1
97
0
75
0
76
0
98
1
10
0.0
20
0.0
0
CIRCLE
5
31C
100
AcDbEntity
8
DRILL
62
255
100
AcDbCircle
39
0.000039
10
4440.000000
20
1620.000000
30
0
40
27.500000
0
HATCH
5
31D
100
AcDbEntity
8
DRILL
62
255
100
AcDbHatch
10
0.0
20
0.0
30
0.0
210
0.0
220
0.0
230
1.0
2
SOLID
70
1
71
0
91
1
92
1
93
1
72
2
10
6700.000000
20
1070.000000
40
11.811024
50
0.000000
51
360.000000
73
1
97
0
75
0
76
0
98
1
10
0.0
20
0.0
0
CIRCLE
5
31E
100
AcDbEntity
8
DRILL
62
255
100
AcDbCircle
39
0.000039
10
6700.000000
20
1070.000000
30
0
40
11.811024
0
HATCH
5
31F
100
AcDbEntity
8
DRILL
62
255
100
AcDbHatch
10
0.0
20
0.0
30
0.0
210
0.0
220
0.0
230
1.0
2
SOLID
70
1
71
0
91
1
92
1
93
1
72
2
10
7239.999961
20
1071.666732
40
17.500000
50
0.000000
51
360.000000
73
1
97
0
75
0
76
0
98
1
10
0.0
20
0.0
0
CIRCLE
5
320
100
AcDbEntity
8
DRILL
62
255
100
AcDbCircle
39
0.000039
10
7239.999961
20
1071.666732
30
0
40
17.500000
0
HATCH
5
321
100
AcDbEntity
8
DRILL
62
255
100
AcDbHatch
10
0.0
20
0.0
30
0.0
210
0.0
220
0.0
230
1.0
2
SOLID
70
1
71
0
91
1
92
1
93
1
72
2
10
7141.666654
20
1139.166732
40
17.500000
50
0.000000
51
360.000000
73
1
97
0
75
0
76
0
98
1
10
0.0
20
0.0
0
CIRCLE
5
322
100
AcDbEntity
8
DRILL
62
255
100
AcDbCircle
39
0.000039
10
7141.666654
20
1139.166732
30
0
40
17.500000
0
HATCH
5
323
100
AcDbEntity
8
DRILL
62
255
100
AcDbHatch
10
0.0
20
0.0
30
0.0
210
0.0
220
0.0
230
1.0
2
SOLID
70
1
71
0
91
1
92
1
93
1
72
2
10
7239.999961
20
1340.000039
40
17.500000
50
0.000000
51
360.000000
73
1
97
0
75
0
76
0
98
1
10
0.0
20
0.0
0
CIRCLE
5
324
100
AcDbEntity
8
DRILL
62
255
100
AcDbCircle
39
0.000039
10
7239.999961
20
1340.000039
30
0
40
17.500000
0
HATCH
5
325
100
AcDbEntity
8
DRILL
62
255
100
AcDbHatch
10
0.0
20
0.0
30
0.0
210
0.0
220
0.0
230
1.0
2
SOLID
70
1
71
0
91
1
92
1
93
1
72
2
10
7141.666654
20
1272.500039
40
17.500000
50
0.000000
51
360.000000
73
1
97
0
75
0
76
0
98
1
10
0.0
20
0.0
0
CIRCLE
5
326
100
AcDbEntity
8
DRILL
62
255
100
AcDbCircle
39
0.000039
10
7141.666654
20
1272.500039
30
0
40
17.500000
0
HATCH
5
327
100
AcDbEntity
8
DRILL
62
255
100
AcDbHatch
10
0.0
20
0.0
30
0.0
210
0.0
220
0.0
230
1.0
2
SOLID
70
1
71
0
91
1
92
1
93
1
72
2
10
7239.999961
20
1205.833386
40
17.500000
50
0.000000
51
360.000000
73
1
97
0
75
0
76
0
98
1
10
0.0
20
0.0
0
CIRCLE
5
328
100
AcDbEntity
8
DRILL
62
255
100
AcDbCircle
39
0.000039
10
7239.999961
20
1205.833386
30
0
40
17.500000
0
HATCH
5
329
100
AcDbEntity
8
DRILL
62
255
100
AcDbHatch
10
0.0
20
0.0
30
0.0
210
0.0
220
0.0
230
1.0
2
SOLID
70
1
71
0
91
1
92
1
93
1
72
2
10
7830.833307
20
1205.833386
40
59.165000
50
0.000000
51
360.000000
73
1
97
0
75
0
76
0
98
1
10
0.0
20
0.0
0
CIRCLE
5
32A
100
AcDbEntity
8
DRILL
62
255
100
AcDbCircle
39
0.000039
10
7830.833307
20
1205.833386
30
0
40
59.165000
0
HATCH
5
32B
100
AcDbEntity
8
DRILL
62
255
100
AcDbHatch
10
0.0
20
0.0
30
0.0
210
0.0
220
0.0
230
1.0
2
SOLID
70
1
71
0
91
1
92
1
93
1
72
2
10
3060.000000
20
1420.000000
40
17.500000
50
0.000000
51
360.000000
73
1
97
0
75
0
76
0
98
1
10
0.0
20
0.0
0
CIRCLE
5
32C
100
AcDbEntity
8
DRILL
62
255
100
AcDbCircle
39
0.000039
10
3060.000000
20
1420.000000
30
0
40
17.500000
0
HATCH
5
32D
100
AcDbEntity
8
DRILL
62
255
100
AcDbHatch
10
0.0
20
0.0
30
0.0
210
0.0
220
0.0
230
1.0
2
SOLID
70
1
71
0
91
1
92
1
93
1
72
2
10
2960.000000
20
1320.000000
40
17.500000
50
0.000000
51
360.000000
73
1
97
0
75
0
76
0
98
1
10
0.0
20
0.0
0
CIRCLE
5
32E
100
AcDbEntity
8
DRILL
62
255
100
AcDbCircle
39
0.000039
10
2960.000000
20
1320.000000
30
0
40
17.500000
0
HATCH
5
32F
100
AcDbEntity
8
DRILL
62
255
100
AcDbHatch
10
0.0
20
0.0
30
0.0
210
0.0
220
0.0
230
1.0
2
SOLID
70
1
71
0
91
1
92
1
93
1
72
2
10
3160.000000
20
1320.000000
40
17.500000
50
0.000000
51
360.000000
73
1
97
0
75
0
76
0
98
1
10
0.0
20
0.0
0
CIRCLE
5
330
100
AcDbEntity
8
DRILL
62
255
100
AcDbCircle
39
0.000039
10
3160.000000
20
1320.000000
30
0
40
17.500000
0
HATCH
5
331
100
AcDbEntity
8
DRILL
62
255
100
AcDbHatch
10
0.0
20
0.0
30
0.0
210
0.0
220
0.0
230
1.0
2
SOLID
70
1
71
0
91
1
92
1
93
1
72
2
10
6051.811024
20
1220.000000
40
17.716535
50
0.000000
51
360.000000
73
1
97
0
75
0
76
0
98
1
10
0.0
20
0.0
0
CIRCLE
5
332
100
AcDbEntity
8
DRILL
62
255
100
AcDbCircle
39
0.000039
10
6051.811024
20
1220.000000
30
0
40
17.716535
0
HATCH
5
333
100
AcDbEntity
8
DRILL
62
255
100
AcDbHatch
10
0.0
20
0.0
30
0.0
210
0.0
220
0.0
230
1.0
2
SOLID
70
1
71
0
91
1
92
1
93
1
72
2
10
5540.000000
20
1220.000000
40
17.716535
50
0.000000
51
360.000000
73
1
97
0
75
0
76
0
98
1
10
0.0
20
0.0
0
CIRCLE
5
334
100
AcDbEntity
8
DRILL
62
255
100
AcDbCircle
39
0.000039
10
5540.000000
20
1220.000000
30
0
40
17.716535
0
HATCH
5
335
100
AcDbEntity
8
DRILL
62
255
100
AcDbHatch
10
0.0
20
0.0
30
0.0
210
0.0
220
0.0
230
1.0
2
SOLID
70
1
71
0
91
1
92
1
93
1
72
2
10
5040.000000
20
1380.000000
40
17.500000
50
0.000000
51
360.000000
73
1
97
0
75
0
76
0
98
1
10
0.0
20
0.0
0
CIRCLE
5
336
100
AcDbEntity
8
DRILL
62
255
100
AcDbCircle
39
0.000039
10
5040.000000
20
1380.000000
30
0
40
17.500000
0
HATCH
5
337
100
AcDbEntity
8
DRILL
62
255
100
AcDbHatch
10
0.0
20
0.0
30
0.0
210
0.0
220
0.0
230
1.0
2
SOLID
70
1
71
0
91
1
92
1
93
1
72
2
10
5140.000000
20
1480.000000
40
17.500000
50
0.000000
51
360.000000
73
1
97
0
75
0
76
0
98
1
10
0.0
20
0.0
0
CIRCLE
5
338
100
AcDbEntity
8
DRILL
62
255
100
AcDbCircle
39
0.000039
10
5140.000000
20
1480.000000
30
0
40
17.500000
0
HATCH
5
339
100
AcDbEntity
8
DRILL
62
255
100
AcDbHatch
10
0.0
20
0.0
30
0.0
210
0.0
220
0.0
230
1.0
2
SOLID
70
1
71
0
91
1
92
1
93
1
72
2
10
5240.000000
20
1380.000000
40
17.500000
50
0.000000
51
360.000000
73
1
97
0
75
0
76
0
98
1
10
0.0
20
0.0
0
CIRCLE
5
33A
100
AcDbEntity
8
DRILL
62
255
100
AcDbCircle
39
0.000039
10
5240.000000
20
1380.000000
30
0
40
17.500000
0
HATCH
5
33B
100
AcDbEntity
8
DRILL
62
255
100
AcDbHatch
10
0.0
20
0.0
30
0.0
210
0.0
220
0.0
230
1.0
2
SOLID
70
1
71
0
91
1
92
1
93
1
72
2
10
380.000000
20
1340.000000
40
17.500000
50
0.000000
51
360.000000
73
1
97
0
75
0
76
0
98
1
10
0.0
20
0.0
0
CIRCLE
5
33C
100
AcDbEntity
8
DRILL
62
255
100
AcDbCircle
39
0.000039
10
380.000000
20
1340.000000
30
0
40
17.500000
0
HATCH
5
33D
100
AcDbEntity
8
DRILL
62
255
100
AcDbHatch
10
0.0
20
0.0
30
0.0
210
0.0
220
0.0
230
1.0
2
SOLID
70
1
71
0
91
1
92
1
93
1
72
2
10
380.000000
20
1440.000000
40
19.585000
50
0.000000
51
360.000000
73
1
97
0
75
0
76
0
98
1
10
0.0
20
0.0
0
CIRCLE
5
33E
100
AcDbEntity
8
DRILL
62
255
100
AcDbCircle
39
0.000039
10
380.000000
20
1440.000000
30
0
40
19.585000
0
HATCH
5
33F
100
AcDbEntity
8
DRILL
62
255
100
AcDbHatch
10
0.0
20
0.0
30
0.0
210
0.0
220
0.0
230
1.0
2
SOLID
70
1
71
0
91
1
92
1
93
1
72
2
10
6791.811024
20
1420.000000
40
17.716535
50
0.000000
51
360.000000
73
1
97
0
75
0
76
0
98
1
10
0.0
20
0.0
0
CIRCLE
5
340
100
AcDbEntity
8
DRILL
62
255
100
AcDbCircle
39
0.000039
10
6791.811024
20
1420.000000
30
0
40
17.716535
0
HATCH
5
341
100
AcDbEntity
8
DRILL
62
255
100
AcDbHatch
10
0.0
20
0.0
30
0.0
210
0.0
220
0.0
230
1.0
2
SOLID
70
1
71
0
91
1
92
1
93
1
72
2
10
6280.000000
20
1420.000000
40
17.716535
50
0.000000
51
360.000000
73
1
97
0
75
0
76
0
98
1
10
0.0
20
0.0
0
CIRCLE
5
342
100
AcDbEntity
8
DRILL
62
255
100
AcDbCircle
39
0.000039
10
6280.000000
20
1420.000000
30
0
40
17.716535
0
HATCH
5
343
100
AcDbEntity
8
DRILL
62
255
100
AcDbHatch
10
0.0
20
0.0
30
0.0
210
0.0
220
0.0
230
1.0
2
SOLID
70
1
71
0
91
1
92
1
93
1
72
2
10
2811.811024
20
1440.000000
40
17.716535
50
0.000000
51
360.000000
73
1
97
0
75
0
76
0
98
1
10
0.0
20
0.0
0
CIRCLE
5
344
100
AcDbEntity
8
DRILL
62
255
100
AcDbCircle
39
0.000039
10
2811.811024
20
1440.000000
30
0
40
17.716535
0
HATCH
5
345
100
AcDbEntity
8
DRILL
62
255
100
AcDbHatch
10
0.0
20
0.0
30
0.0
210
0.0
220
0.0
230
1.0
2
SOLID
70
1
71
0
91
1
92
1
93
1
72
2
10
2300.000000
20
1440.000000
40
17.716535
50
0.000000
51
360.000000
73
1
97
0
75
0
76
0
98
1
10
0.0
20
0.0
0
CIRCLE
5
346
100
AcDbEntity
8
DRILL
62
255
100
AcDbCircle
39
0.000039
10
2300.000000
20
1440.000000
30
0
40
17.716535
0
HATCH
5
347
100
AcDbEntity
8
DRILL
62
255
100
AcDbHatch
10
0.0
20
0.0
30
0.0
210
0.0
220
0.0
230
1.0
2
SOLID
70
1
71
0
91
1
92
1
93
1
72
2
10
5770.000000
20
1410.000000
40
11.811024
50
0.000000
51
360.000000
73
1
97
0
75
0
76
0
98
1
10
0.0
20
0.0
0
CIRCLE
5
348
100
AcDbEntity
8
DRILL
62
255
100
AcDbCircle
39
0.000039
10
5770.000000
20
1410.000000
30
0
40
11.811024
0
HATCH
5
349
100
AcDbEntity
8
DRILL
62
255
100
AcDbHatch
10
0.0
20
0.0
30
0.0
210
0.0
220
0.0
230
1.0
2
SOLID
70
1
71
0
91
1
92
1
93
1
72
2
10
7420.000000
20
1520.000000
40
27.500000
50
0.000000
51
360.000000
73
1
97
0
75
0
76
0
98
1
10
0.0
20
0.0
0
CIRCLE
5
34A
100
AcDbEntity
8
DRILL
62
255
100
AcDbCircle
39
0.000039
10
7420.000000
20
1520.000000
30
0
40
27.500000
0
HATCH
5
34B
100
AcDbEntity
8
DRILL
62
255
100
AcDbHatch
10
0.0
20
0.0
30
0.0
210
0.0
220
0.0
230
1.0
2
SOLID
70
1
71
0
91
1
92
1
93
1
72
2
10
7947.559055
20
1520.000000
40
27.500000
50
0.000000
51
360.000000
73
1
97
0
75
0
76
0
98
1
10
0.0
20
0.0
0
CIRCLE
5
34C
100
AcDbEntity
8
DRILL
62
255
100
AcDbCircle
39
0.000039
10
7947.559055
20
1520.000000
30
0
40
27.500000
0
HATCH
5
34D
100
AcDbEntity
8
DRILL
62
255
100
AcDbHatch
10
0.0
20
0.0
30
0.0
210
0.0
220
0.0
230
1.0
2
SOLID
70
1
71
0
91
1
92
1
93
1
72
2
10
6811.811024
20
1660.000000
40
17.716535
50
0.000000
51
360.000000
73
1
97
0
75
0
76
0
98
1
10
0.0
20
0.0
0
CIRCLE
5
34E
100
AcDbEntity
8
DRILL
62
255
100
AcDbCircle
39
0.000039
10
6811.811024
20
1660.000000
30
0
40
17.716535
0
HATCH
5
34F
100
AcDbEntity
8
DRILL
62
255
100
AcDbHatch
10
0.0
20
0.0
30
0.0
210
0.0
220
0.0
230
1.0
2
SOLID
70
1
71
0
91
1
92
1
93
1
72
2
10
6300.000000
20
1660.000000
40
17.716535
50
0.000000
51
360.000000
73
1
97
0
75
0
76
0
98
1
10
0.0
20
0.0
0
CIRCLE
5
350
100
AcDbEntity
8
DRILL
62
255
100
AcDbCircle
39
0.000039
10
6300.000000
20
1660.000000
30
0
40
17.716535
0
HATCH
5
351
100
AcDbEntity
8
DRILL
62
255
100
AcDbHatch
10
0.0
20
0.0
30
0.0
210
0.0
220
0.0
230
1.0
2
SOLID
70
1
71
0
91
1
92
1
93
1
72
2
10
3780.000000
20
-1187.559055
40
27.500000
50
0.000000
51
360.000000
73
1
97
0
75
0
76
0
98
1
10
0.0
20
0.0
0
CIRCLE
5
352
100
AcDbEntity
8
DRILL
62
255
100
AcDbCircle
39
0.000039
10
3780.000000
20
-1187.559055
30
0
40
27.500000
0
HATCH
5
353
100
AcDbEntity
8
DRILL
62
255
100
AcDbHatch
10
0.0
20
0.0
30
0.0
210
0.0
220
0.0
230
1.0
2
SOLID
70
1
71
0
91
1
92
1
93
1
72
2
10
3780.000000
20
-660.000000
40
27.500000
50
0.000000
51
360.000000
73
1
97
0
75
0
76
0
98
1
10
0.0
20
0.0
0
CIRCLE
5
354
100
AcDbEntity
8
DRILL
62
255
100
AcDbCircle
39
0.000039
10
3780.000000
20
-660.000000
30
0
40
27.500000
0
HATCH
5
355
100
AcDbEntity
8
DRILL
62
255
100
AcDbHatch
10
0.0
20
0.0
30
0.0
210
0.0
220
0.0
230
1.0
2
SOLID
70
1
71
0
91
1
92
1
93
1
72
2
10
4440.000000
20
-1187.559055
40
27.500000
50
0.000000
51
360.000000
73
1
97
0
75
0
76
0
98
1
10
0.0
20
0.0
0
CIRCLE
5
356
100
AcDbEntity
8
DRILL
62
255
100
AcDbCircle
39
0.000039
10
4440.000000
20
-1187.559055
30
0
40
27.500000
0
HATCH
5
357
100
AcDbEntity
8
DRILL
62
255
100
AcDbHatch
10
0.0
20
0.0
30
0.0
210
0.0
220
0.0
230
1.0
2
SOLID
70
1
71
0
91
1
92
1
93
1
72
2
10
4440.000000
20
-660.000000
40
27.500000
50
0.000000
51
360.000000
73
1
97
0
75
0
76
0
98
1
10
0.0
20
0.0
0
CIRCLE
5
358
100
AcDbEntity
8
DRILL
62
255
100
AcDbCircle
39
0.000039
10
4440.000000
20
-660.000000
30
0
40
27.500000
0
HATCH
5
359
100
AcDbEntity
8
DRILL
62
255
100
AcDbHatch
10
0.0
20
0.0
30
0.0
210
0.0
220
0.0
230
1.0
2
SOLID
70
1
71
0
91
1
92
1
93
1
72
2
10
3180.000000
20
-800.000000
40
17.500000
50
0.000000
51
360.000000
73
1
97
0
75
0
76
0
98
1
10
0.0
20
0.0
0
CIRCLE
5
35A
100
AcDbEntity
8
DRILL
62
255
100
AcDbCircle
39
0.000039
10
3180.000000
20
-800.000000
30
0
40
17.500000
0
HATCH
5
35B
100
AcDbEntity
8
DRILL
62
255
100
AcDbHatch
10
0.0
20
0.0
30
0.0
210
0.0
220
0.0
230
1.0
2
SOLID
70
1
71
0
91
1
92
1
93
1
72
2
10
3080.000000
20
-700.000000
40
17.500000
50
0.000000
51
360.000000
73
1
97
0
75
0
76
0
98
1
10
0.0
20
0.0
0
CIRCLE
5
35C
100
AcDbEntity
8
DRILL
62
255
100
AcDbCircle
39
0.000039
10
3080.000000
20
-700.000000
30
0
40
17.500000
0
HATCH
5
35D
100
AcDbEntity
8
DRILL
62
255
100
AcDbHatch
10
0.0
20
0.0
30
0.0
210
0.0
220
0.0
230
1.0
2
SOLID
70
1
71
0
91
1
92
1
93
1
72
2
10
3080.000000
20
-900.000000
40
17.500000
50
0.000000
51
360.000000
73
1
97
0
75
0
76
0
98
1
10
0.0
20
0.0
0
CIRCLE
5
35E
100
AcDbEntity
8
DRILL
62
255
100
AcDbCircle
39
0.000039
10
3080.000000
20
-900.000000
30
0
40
17.500000
0
HATCH
5
35F
100
AcDbEntity
8
DRILL
62
255
100
AcDbHatch
10
0.0
20
0.0
30
0.0
210
0.0
220
0.0
230
1.0
2
SOLID
70
1
71
0
91
1
92
1
93
1
72
2
10
2711.811024
20
-880.000000
40
17.716535
50
0.000000
51
360.000000
73
1
97
0
75
0
76
0
98
1
10
0.0
20
0.0
0
CIRCLE
5
360
100
AcDbEntity
8
DRILL
62
255
100
AcDbCircle
39
0.000039
10
2711.811024
20
-880.000000
30
0
40
17.716535
0
HATCH
5
361
100
AcDbEntity
8
DRILL
62
255
100
AcDbHatch
10
0.0
20
0.0
30
0.0
210
0.0
220
0.0
230
1.0
2
SOLID
70
1
71
0
91
1
92
1
93
1
72
2
10
2200.000000
20
-880.000000
40
17.716535
50
0.000000
51
360.000000
73
1
97
0
75
0
76
0
98
1
10
0.0
20
0.0
0
CIRCLE
5
362
100
AcDbEntity
8
DRILL
62
255
100
AcDbCircle
39
0.000039
10
2200.000000
20
-880.000000
30
0
40
17.716535
0
HATCH
5
363
100
AcDbEntity
8
DRILL
62
255
100
AcDbHatch
10
0.0
20
0.0
30
0.0
210
0.0
220
0.0
230
1.0
2
SOLID
70
1
71
0
91
1
92
1
93
1
72
2
10
5120.000000
20
-720.000000
40
17.500000
50
0.000000
51
360.000000
73
1
97
0
75
0
76
0
98
1
10
0.0
20
0.0
0
CIRCLE
5
364
100
AcDbEntity
8
DRILL
62
255
100
AcDbCircle
39
0.000039
10
5120.000000
20
-720.000000
30
0
40
17.500000
0
HATCH
5
365
100
AcDbEntity
8
DRILL
62
255
100
AcDbHatch
10
0.0
20
0.0
30
0.0
210
0.0
220
0.0
230
1.0
2
SOLID
70
1
71
0
91
1
92
1
93
1
72
2
10
5020.000000
20
-820.000000
40
17.500000
50
0.000000
51
360.000000
73
1
97
0
75
0
76
0
98
1
10
0.0
20
0.0
0
CIRCLE
5
366
100
AcDbEntity
8
DRILL
62
255
100
AcDbCircle
39
0.000039
10
5020.000000
20
-820.000000
30
0
40
17.500000
0
HATCH
5
367
100
AcDbEntity
8
DRILL
62
255
100
AcDbHatch
10
0.0
20
0.0
30
0.0
210
0.0
220
0.0
230
1.0
2
SOLID
70
1
71
0
91
1
92
1
93
1
72
2
10
5220.000000
20
-820.000000
40
17.500000
50
0.000000
51
360.000000
73
1
97
0
75
0
76
0
98
1
10
0.0
20
0.0
0
CIRCLE
5
368
100
AcDbEntity
8
DRILL
62
255
100
AcDbCircle
39
0.000039
10
5220.000000
20
-820.000000
30
0
40
17.500000
0
HATCH
5
369
100
AcDbEntity
8
DRILL
62
255
100
AcDbHatch
10
0.0
20
0.0
30
0.0
210
0.0
220
0.0
230
1.0
2
SOLID
70
1
71
0
91
1
92
1
93
1
72
2
10
6031.811024
20
-820.000000
40
17.716535
50
0.000000
51
360.000000
73
1
97
0
75
0
76
0
98
1
10
0.0
20
0.0
0
CIRCLE
5
36A
100
AcDbEntity
8
DRILL
62
255
100
AcDbCircle
39
0.000039
10
6031.811024
20
-820.000000
30
0
40
17.716535
0
HATCH
5
36B
100
AcDbEntity
8
DRILL
62
255
100
AcDbHatch
10
0.0
20
0.0
30
0.0
210
0.0
220
0.0
230
1.0
2
SOLID
70
1
71
0
91
1
92
1
93
1
72
2
10
5520.000000
20
-820.000000
40
17.716535
50
0.000000
51
360.000000
73
1
97
0
75
0
76
0
98
1
10
0.0
20
0.0
0
CIRCLE
5
36C
100
AcDbEntity
8
DRILL
62
255
100
AcDbCircle
39
0.000039
10
5520.000000
20
-820.000000
30
0
40
17.716535
0
HATCH
5
36D
100
AcDbEntity
8
DRILL
62
255
100
AcDbHatch
10
0.0
20
0.0
30
0.0
210
0.0
220
0.0
230
1.0
2
SOLID
70
1
71
0
91
1
92
1
93
1
72
2
10
532.440945
20
-880.000000
40
27.500000
50
0.000000
51
360.000000
73
1
97
0
75
0
76
0
98
1
10
0.0
20
0.0
0
CIRCLE
5
36E
100
AcDbEntity
8
DRILL
62
255
100
AcDbCircle
39
0.000039
10
532.440945
20
-880.000000
30
0
40
27.500000
0
HATCH
5
36F
100
AcDbEntity
8
DRILL
62
255
100
AcDbHatch
10
0.0
20
0.0
30
0.0
210
0.0
220
0.0
230
1.0
2
SOLID
70
1
71
0
91
1
92
1
93
1
72
2
10
1060.000000
20
-880.000000
40
27.500000
50
0.000000
51
360.000000
73
1
97
0
75
0
76
0
98
1
10
0.0
20
0.0
0
CIRCLE
5
370
100
AcDbEntity
8
DRILL
62
255
100
AcDbCircle
39
0.000039
10
1060.000000
20
-880.000000
30
0
40
27.500000
0
HATCH
5
371
100
AcDbEntity
8
DRILL
62
255
100
AcDbHatch
10
0.0
20
0.0
30
0.0
210
0.0
220
0.0
230
1.0
2
SOLID
70
1
71
0
91
1
92
1
93
1
72
2
10
2071.811024
20
-760.000000
40
17.716535
50
0.000000
51
360.000000
73
1
97
0
75
0
76
0
98
1
10
0.0
20
0.0
0
CIRCLE
5
372
100
AcDbEntity
8
DRILL
62
255
100
AcDbCircle
39
0.000039
10
2071.811024
20
-760.000000
30
0
40
17.716535
0
HATCH
5
373
100
AcDbEntity
8
DRILL
62
255
100
AcDbHatch
10
0.0
20
0.0
30
0.0
210
0.0
220
0.0
230
1.0
2
SOLID
70
1
71
0
91
1
92
1
93
1
72
2
10
1560.000000
20
-760.000000
40
17.716535
50
0.000000
51
360.000000
73
1
97
0
75
0
76
0
98
1
10
0.0
20
0.0
0
CIRCLE
5
374
100
AcDbEntity
8
DRILL
62
255
100
AcDbCircle
39
0.000039
10
1560.000000
20
-760.000000
30
0
40
17.716535
0
HATCH
5
375
100
AcDbEntity
8
DRILL
62
255
100
AcDbHatch
10
0.0
20
0.0
30
0.0
210
0.0
220
0.0
230
1.0
2
SOLID
70
1
71
0
91
1
92
1
93
1
72
2
10
4040.000000
20
-660.000000
40
19.585000
50
0.000000
51
360.000000
73
1
97
0
75
0
76
0
98
1
10
0.0
20
0.0
0
CIRCLE
5
376
100
AcDbEntity
8
DRILL
62
255
100
AcDbCircle
39
0.000039
10
4040.000000
20
-660.000000
30
0
40
19.585000
0
HATCH
5
377
100
AcDbEntity
8
DRILL
62
255
100
AcDbHatch
10
0.0
20
0.0
30
0.0
210
0.0
220
0.0
230
1.0
2
SOLID
70
1
71
0
91
1
92
1
93
1
72
2
10
4140.000000
20
-660.000000
40
17.500000
50
0.000000
51
360.000000
73
1
97
0
75
0
76
0
98
1
10
0.0
20
0.0
0
CIRCLE
5
378
100
AcDbEntity
8
DRILL
62
255
100
AcDbCircle
39
0.000039
10
4140.000000
20
-660.000000
30
0
40
17.500000
0
HATCH
5
379
100
AcDbEntity
8
DRILL
62
255
100
AcDbHatch
10
0.0
20
0.0
30
0.0
210
0.0
220
0.0
230
1.0
2
SOLID
70
1
71
0
91
1
92
1
93
1
72
2
10
720.000000
20
-580.000000
40
19.585000
50
0.000000
51
360.000000
73
1
97
0
75
0
76
0
98
1
10
0.0
20
0.0
0
CIRCLE
5
37A
100
AcDbEntity
8
DRILL
62
255
100
AcDbCircle
39
0.000039
10
720.000000
20
-580.000000
30
0
40
19.585000
0
HATCH
5
37B
100
AcDbEntity
8
DRILL
62
255
100
AcDbHatch
10
0.0
20
0.0
30
0.0
210
0.0
220
0.0
230
1.0
2
SOLID
70
1
71
0
91
1
92
1
93
1
72
2
10
820.000000
20
-580.000000
40
17.500000
50
0.000000
51
360.000000
73
1
97
0
75
0
76
0
98
1
10
0.0
20
0.0
0
CIRCLE
5
37C
100
AcDbEntity
8
DRILL
62
255
100
AcDbCircle
39
0.000039
10
820.000000
20
-580.000000
30
0
40
17.500000
0
HATCH
5
37D
100
AcDbEntity
8
DRILL
62
255
100
AcDbHatch
10
0.0
20
0.0
30
0.0
210
0.0
220
0.0
230
1.0
2
SOLID
70
1
71
0
91
1
92
1
93
1
72
2
10
2071.811024
20
-520.000000
40
17.716535
50
0.000000
51
360.000000
73
1
97
0
75
0
76
0
98
1
10
0.0
20
0.0
0
CIRCLE
5
37E
100
AcDbEntity
8
DRILL
62
255
100
AcDbCircle
39
0.000039
10
2071.811024
20
-520.000000
30
0
40
17.716535
0
HATCH
5
37F
100
AcDbEntity
8
DRILL
62
255
100
AcDbHatch
10
0.0
20
0.0
30
0.0
210
0.0
220
0.0
230
1.0
2
SOLID
70
1
71
0
91
1
92
1
93
1
72
2
10
1560.000000
20
-520.000000
40
17.716535
50
0.000000
51
360.000000
73
1
97
0
75
0
76
0
98
1
10
0.0
20
0.0
0
CIRCLE
5
380
100
AcDbEntity
8
DRILL
62
255
100
AcDbCircle
39
0.000039
10
1560.000000
20
-520.000000
30
0
40
17.716535
0
HATCH
5
381
100
AcDbEntity
8
DRILL
62
255
100
AcDbHatch
10
0.0
20
0.0
30
0.0
210
0.0
220
0.0
230
1.0
2
SOLID
70
1
71
0
91
1
92
1
93
1
72
2
10
1240.000039
20
-265.833386
40
17.500000
50
0.000000
51
360.000000
73
1
97
0
75
0
76
0
98
1
10
0.0
20
0.0
0
CIRCLE
5
382
100
AcDbEntity
8
DRILL
62
255
100
AcDbCircle
39
0.000039
10
1240.000039
20
-265.833386
30
0
40
17.500000
0
HATCH
5
383
100
AcDbEntity
8
DRILL
62
255
100
AcDbHatch
10
0.0
20
0.0
30
0.0
210
0.0
220
0.0
230
1.0
2
SOLID
70
1
71
0
91
1
92
1
93
1
72
2
10
1240.000039
20
-131.666732
40
17.500000
50
0.000000
51
360.000000
73
1
97
0
75
0
76
0
98
1
10
0.0
20
0.0
0
CIRCLE
5
384
100
AcDbEntity
8
DRILL
62
255
100
AcDbCircle
39
0.000039
10
1240.000039
20
-131.666732
30
0
40
17.500000
0
HATCH
5
385
100
AcDbEntity
8
DRILL
62
255
100
AcDbHatch
10
0.0
20
0.0
30
0.0
210
0.0
220
0.0
230
1.0
2
SOLID
70
1
71
0
91
1
92
1
93
1
72
2
10
1338.333346
20
-199.166732
40
17.500000
50
0.000000
51
360.000000
73
1
97
0
75
0
76
0
98
1
10
0.0
20
0.0
0
CIRCLE
5
386
100
AcDbEntity
8
DRILL
62
255
100
AcDbCircle
39
0.000039
10
1338.333346
20
-199.166732
30
0
40
17.500000
0
HATCH
5
387
100
AcDbEntity
8
DRILL
62
255
100
AcDbHatch
10
0.0
20
0.0
30
0.0
210
0.0
220
0.0
230
1.0
2
SOLID
70
1
71
0
91
1
92
1
93
1
72
2
10
1240.000039
20
-400.000039
40
17.500000
50
0.000000
51
360.000000
73
1
97
0
75
0
76
0
98
1
10
0.0
20
0.0
0
CIRCLE
5
388
100
AcDbEntity
8
DRILL
62
255
100
AcDbCircle
39
0.000039
10
1240.000039
20
-400.000039
30
0
40
17.500000
0
HATCH
5
389
100
AcDbEntity
8
DRILL
62
255
100
AcDbHatch
10
0.0
20
0.0
30
0.0
210
0.0
220
0.0
230
1.0
2
SOLID
70
1
71
0
91
1
92
1
93
1
72
2
10
1338.333346
20
-332.500039
40
17.500000
50
0.000000
51
360.000000
73
1
97
0
75
0
76
0
98
1
10
0.0
20
0.0
0
CIRCLE
5
38A
100
AcDbEntity
8
DRILL
62
255
100
AcDbCircle
39
0.000039
10
1338.333346
20
-332.500039
30
0
40
17.500000
0
HATCH
5
38B
100
AcDbEntity
8
DRILL
62
255
100
AcDbHatch
10
0.0
20
0.0
30
0.0
210
0.0
220
0.0
230
1.0
2
SOLID
70
1
71
0
91
1
92
1
93
1
72
2
10
649.166693
20
-265.833386
40
59.165000
50
0.000000
51
360.000000
73
1
97
0
75
0
76
0
98
1
10
0.0
20
0.0
0
CIRCLE
5
38C
100
AcDbEntity
8
DRILL
62
255
100
AcDbCircle
39
0.000039
10
649.166693
20
-265.833386
30
0
40
59.165000
0
HATCH
5
38D
100
AcDbEntity
8
DRILL
62
255
100
AcDbHatch
10
0.0
20
0.0
30
0.0
210
0.0
220
0.0
230
1.0
2
SOLID
70
1
71
0
91
1
92
1
93
1
72
2
10
3780.000000
20
-447.559055
40
27.500000
50
0.000000
51
360.000000
73
1
97
0
75
0
76
0
98
1
10
0.0
20
0.0
0
CIRCLE
5
38E
100
AcDbEntity
8
DRILL
62
255
100
AcDbCircle
39
0.000039
10
3780.000000
20
-447.559055
30
0
40
27.500000
0
HATCH
5
38F
100
AcDbEntity
8
DRILL
62
255
100
AcDbHatch
10
0.0
20
0.0
30
0.0
210
0.0
220
0.0
230
1.0
2
SOLID
70
1
71
0
91
1
92
1
93
1
72
2
10
3780.000000
20
80.000000
40
27.500000
50
0.000000
51
360.000000
73
1
97
0
75
0
76
0
98
1
10
0.0
20
0.0
0
CIRCLE
5
390
100
AcDbEntity
8
DRILL
62
255
100
AcDbCircle
39
0.000039
10
3780.000000
20
80.000000
30
0
40
27.500000
0
HATCH
5
391
100
AcDbEntity
8
DRILL
62
255
100
AcDbHatch
10
0.0
20
0.0
30
0.0
210
0.0
220
0.0
230
1.0
2
SOLID
70
1
71
0
91
1
92
1
93
1
72
2
10
4440.000000
20
-447.559055
40
27.500000
50
0.000000
51
360.000000
73
1
97
0
75
0
76
0
98
1
10
0.0
20
0.0
0
CIRCLE
5
392
100
AcDbEntity
8
DRILL
62
255
100
AcDbCircle
39
0.000039
10
4440.000000
20
-447.559055
30
0
40
27.500000
0
HATCH
5
393
100
AcDbEntity
8
DRILL
62
255
100
AcDbHatch
10
0.0
20
0.0
30
0.0
210
0.0
220
0.0
230
1.0
2
SOLID
70
1
71
0
91
1
92
1
93
1
72
2
10
4440.000000
20
80.000000
40
27.500000
50
0.000000
51
360.000000
73
1
97
0
75
0
76
0
98
1
10
0.0
20
0.0
0
CIRCLE
5
394
100
AcDbEntity
8
DRILL
62
255
100
AcDbCircle
39
0.000039
10
4440.000000
20
80.000000
30
0
40
27.500000
0
HATCH
5
395
100
AcDbEntity
8
DRILL
62
255
100
AcDbHatch
10
0.0
20
0.0
30
0.0
210
0.0
220
0.0
230
1.0
2
SOLID
70
1
71
0
91
1
92
1
93
1
72
2
10
6700.000000
20
-470.000000
40
11.811024
50
0.000000
51
360.000000
73
1
97
0
75
0
76
0
98
1
10
0.0
20
0.0
0
CIRCLE
5
396
100
AcDbEntity
8
DRILL
62
255
100
AcDbCircle
39
0.000039
10
6700.000000
20
-470.000000
30
0
40
11.811024
0
HATCH
5
397
100
AcDbEntity
8
DRILL
62
255
100
AcDbHatch
10
0.0
20
0.0
30
0.0
210
0.0
220
0.0
230
1.0
2
SOLID
70
1
71
0
91
1
92
1
93
1
72
2
10
7239.999961
20
-468.333268
40
17.500000
50
0.000000
51
360.000000
73
1
97
0
75
0
76
0
98
1
10
0.0
20
0.0
0
CIRCLE
5
398
100
AcDbEntity
8
DRILL
62
255
100
AcDbCircle
39
0.000039
10
7239.999961
20
-468.333268
30
0
40
17.500000
0
HATCH
5
399
100
AcDbEntity
8
DRILL
62
255
100
AcDbHatch
10
0.0
20
0.0
30
0.0
210
0.0
220
0.0
230
1.0
2
SOLID
70
1
71
0
91
1
92
1
93
1
72
2
10
7141.666654
20
-400.833268
40
17.500000
50
0.000000
51
360.000000
73
1
97
0
75
0
76
0
98
1
10
0.0
20
0.0
0
CIRCLE
5
39A
100
AcDbEntity
8
DRILL
62
255
100
AcDbCircle
39
0.000039
10
7141.666654
20
-400.833268
30
0
40
17.500000
0
HATCH
5
39B
100
AcDbEntity
8
DRILL
62
255
100
AcDbHatch
10
0.0
20
0.0
30
0.0
210
0.0
220
0.0
230
1.0
2
SOLID
70
1
71
0
91
1
92
1
93
1
72
2
10
7239.999961
20
-199.999961
40
17.500000
50
0.000000
51
360.000000
73
1
97
0
75
0
76
0
98
1
10
0.0
20
0.0
0
CIRCLE
5
39C
100
AcDbEntity
8
DRILL
62
255
100
AcDbCircle
39
0.000039
10
7239.999961
20
-199.999961
30
0
40
17.500000
0
HATCH
5
39D
100
AcDbEntity
8
DRILL
62
255
100
AcDbHatch
10
0.0
20
0.0
30
0.0
210
0.0
220
0.0
230
1.0
2
SOLID
70
1
71
0
91
1
92
1
93
1
72
2
10
7141.666654
20
-267.499961
40
17.500000
50
0.000000
51
360.000000
73
1
97
0
75
0
76
0
98
1
10
0.0
20
0.0
0
CIRCLE
5
39E
100
AcDbEntity
8
DRILL
62
255
100
AcDbCircle
39
0.000039
10
7141.666654
20
-267.499961
30
0
40
17.500000
0
HATCH
5
39F
100
AcDbEntity
8
DRILL
62
255
100
AcDbHatch
10
0.0
20
0.0
30
0.0
210
0.0
220
0.0
230
1.0
2
SOLID
70
1
71
0
91
1
92
1
93
1
72
2
10
7239.999961
20
-334.166614
40
17.500000
50
0.000000
51
360.000000
73
1
97
0
75
0
76
0
98
1
10
0.0
20
0.0
0
CIRCLE
5
3A0
100
AcDbEntity
8
DRILL
62
255
100
AcDbCircle
39
0.000039
10
7239.999961
20
-334.166614
30
0
40
17.500000
0
HATCH
5
3A1
100
AcDbEntity
8
DRILL
62
255
100
AcDbHatch
10
0.0
20
0.0
30
0.0
210
0.0
220
0.0
230
1.0
2
SOLID
70
1
71
0
91
1
92
1
93
1
72
2
10
7830.833307
20
-334.166614
40
59.165000
50
0.000000
51
360.000000
73
1
97
0
75
0
76
0
98
1
10
0.0
20
0.0
0
CIRCLE
5
3A2
100
AcDbEntity
8
DRILL
62
255
100
AcDbCircle
39
0.000039
10
7830.833307
20
-334.166614
30
0
40
59.165000
0
HATCH
5
3A3
100
AcDbEntity
8
DRILL
62
255
100
AcDbHatch
10
0.0
20
0.0
30
0.0
210
0.0
220
0.0
230
1.0
2
SOLID
70
1
71
0
91
1
92
1
93
1
72
2
10
3060.000000
20
-120.000000
40
17.500000
50
0.000000
51
360.000000
73
1
97
0
75
0
76
0
98
1
10
0.0
20
0.0
0
CIRCLE
5
3A4
100
AcDbEntity
8
DRILL
62
255
100
AcDbCircle
39
0.000039
10
3060.000000
20
-120.000000
30
0
40
17.500000
0
HATCH
5
3A5
100
AcDbEntity
8
DRILL
62
255
100
AcDbHatch
10
0.0
20
0.0
30
0.0
210
0.0
220
0.0
230
1.0
2
SOLID
70
1
71
0
91
1
92
1
93
1
72
2
10
2960.000000
20
-220.000000
40
17.500000
50
0.000000
51
360.000000
73
1
97
0
75
0
76
0
98
1
10
0.0
20
0.0
0
CIRCLE
5
3A6
100
AcDbEntity
8
DRILL
62
255
100
AcDbCircle
39
0.000039
10
2960.000000
20
-220.000000
30
0
40
17.500000
0
HATCH
5
3A7
100
AcDbEntity
8
DRILL
62
255
100
AcDbHatch
10
0.0
20
0.0
30
0.0
210
0.0
220
0.0
230
1.0
2
SOLID
70
1
71
0
91
1
92
1
93
1
72
2
10
3160.000000
20
-220.000000
40
17.500000
50
0.000000
51
360.000000
73
1
97
0
75
0
76
0
98
1
10
0.0
20
0.0
0
CIRCLE
5
3A8
100
AcDbEntity
8
DRILL
62
255
100
AcDbCircle
39
0.000039
10
3160.000000
20
-220.000000
30
0
40
17.500000
0
HATCH
5
3A9
100
AcDbEntity
8
DRILL
62
255
100
AcDbHatch
10
0.0
20
0.0
30
0.0
210
0.0
220
0.0
230
1.0
2
SOLID
70
1
71
0
91
1
92
1
93
1
72
2
10
6051.811024
20
-320.000000
40
17.716535
50
0.000000
51
360.000000
73
1
97
0
75
0
76
0
98
1
10
0.0
20
0.0
0
CIRCLE
5
3AA
100
AcDbEntity
8
DRILL
62
255
100
AcDbCircle
39
0.000039
10
6051.811024
20
-320.000000
30
0
40
17.716535
0
HATCH
5
3AB
100
AcDbEntity
8
DRILL
62
255
100
AcDbHatch
10
0.0
20
0.0
30
0.0
210
0.0
220
0.0
230
1.0
2
SOLID
70
1
71
0
91
1
92
1
93
1
72
2
10
5540.000000
20
-320.000000
40
17.716535
50
0.000000
51
360.000000
73
1
97
0
75
0
76
0
98
1
10
0.0
20
0.0
0
CIRCLE
5
3AC
100
AcDbEntity
8
DRILL
62
255
100
AcDbCircle
39
0.000039
10
5540.000000
20
-320.000000
30
0
40
17.716535
0
HATCH
5
3AD
100
AcDbEntity
8
DRILL
62
255
100
AcDbHatch
10
0.0
20
0.0
30
0.0
210
0.0
220
0.0
230
1.0
2
SOLID
70
1
71
0
91
1
92
1
93
1
72
2
10
5040.000000
20
-160.000000
40
17.500000
50
0.000000
51
360.000000
73
1
97
0
75
0
76
0
98
1
10
0.0
20
0.0
0
CIRCLE
5
3AE
100
AcDbEntity
8
DRILL
62
255
100
AcDbCircle
39
0.000039
10
5040.000000
20
-160.000000
30
0
40
17.500000
0
HATCH
5
3AF
100
AcDbEntity
8
DRILL
62
255
100
AcDbHatch
10
0.0
20
0.0
30
0.0
210
0.0
220
0.0
230
1.0
2
SOLID
70
1
71
0
91
1
92
1
93
1
72
2
10
5140.000000
20
-60.000000
40
17.500000
50
0.000000
51
360.000000
73
1
97
0
75
0
76
0
98
1
10
0.0
20
0.0
0
CIRCLE
5
3B0
100
AcDbEntity
8
DRILL
62
255
100
AcDbCircle
39
0.000039
10
5140.000000
20
-60.000000
30
0
40
17.500000
0
HATCH
5
3B1
100
AcDbEntity
8
DRILL
62
255
100
AcDbHatch
10
0.0
20
0.0
30
0.0
210
0.0
220
0.0
230
1.0
2
SOLID
70
1
71
0
91
1
92
1
93
1
72
2
10
5240.000000
20
-160.000000
40
17.500000
50
0.000000
51
360.000000
73
1
97
0
75
0
76
0
98
1
10
0.0
20
0.0
0
CIRCLE
5
3B2
100
AcDbEntity
8
DRILL
62
255
100
AcDbCircle
39
0.000039
10
5240.000000
20
-160.000000
30
0
40
17.500000
0
HATCH
5
3B3
100
AcDbEntity
8
DRILL
62
255
100
AcDbHatch
10
0.0
20
0.0
30
0.0
210
0.0
220
0.0
230
1.0
2
SOLID
70
1
71
0
91
1
92
1
93
1
72
2
10
380.000000
20
-200.000000
40
17.500000
50
0.000000
51
360.000000
73
1
97
0
75
0
76
0
98
1
10
0.0
20
0.0
0
CIRCLE
5
3B4
100
AcDbEntity
8
DRILL
62
255
100
AcDbCircle
39
0.000039
10
380.000000
20
-200.000000
30
0
40
17.500000
0
HATCH
5
3B5
100
AcDbEntity
8
DRILL
62
255
100
AcDbHatch
10
0.0
20
0.0
30
0.0
210
0.0
220
0.0
230
1.0
2
SOLID
70
1
71
0
91
1
92
1
93
1
72
2
10
380.000000
20
-100.000000
40
19.585000
50
0.000000
51
360.000000
73
1
97
0
75
0
76
0
98
1
10
0.0
20
0.0
0
CIRCLE
5
3B6
100
AcDbEntity
8
DRILL
62
255
100
AcDbCircle
39
0.000039
10
380.000000
20
-100.000000
30
0
40
19.585000
0
HATCH
5
3B7
100
AcDbEntity
8
DRILL
62
255
100
AcDbHatch
10
0.0
20
0.0
30
0.0
210
0.0
220
0.0
230
1.0
2
SOLID
70
1
71
0
91
1
92
1
93
1
72
2
10
6791.811024
20
-120.000000
40
17.716535
50
0.000000
51
360.000000
73
1
97
0
75
0
76
0
98
1
10
0.0
20
0.0
0
CIRCLE
5
3B8
100
AcDbEntity
8
DRILL
62
255
100
AcDbCircle
39
0.000039
10
6791.811024
20
-120.000000
30
0
40
17.716535
0
HATCH
5
3B9
100
AcDbEntity
8
DRILL
62
255
100
AcDbHatch
10
0.0
20
0.0
30
0.0
210
0.0
220
0.0
230
1.0
2
SOLID
70
1
71
0
91
1
92
1
93
1
72
2
10
6280.000000
20
-120.000000
40
17.716535
50
0.000000
51
360.000000
73
1
97
0
75
0
76
0
98
1
10
0.0
20
0.0
0
CIRCLE
5
3BA
100
AcDbEntity
8
DRILL
62
255
100
AcDbCircle
39
0.000039
10
6280.000000
20
-120.000000
30
0
40
17.716535
0
HATCH
5
3BB
100
AcDbEntity
8
DRILL
62
255
100
AcDbHatch
10
0.0
20
0.0
30
0.0
210
0.0
220
0.0
230
1.0
2
SOLID
70
1
71
0
91
1
92
1
93
1
72
2
10
2811.811024
20
-100.000000
40
17.716535
50
0.000000
51
360.000000
73
1
97
0
75
0
76
0
98
1
10
0.0
20
0.0
0
CIRCLE
5
3BC
100
AcDbEntity
8
DRILL
62
255
100
AcDbCircle
39
0.000039
10
2811.811024
20
-100.000000
30
0
40
17.716535
0
HATCH
5
3BD
100
AcDbEntity
8
DRILL
62
255
100
AcDbHatch
10
0.0
20
0.0
30
0.0
210
0.0
220
0.0
230
1.0
2
SOLID
70
1
71
0
91
1
92
1
93
1
72
2
10
2300.000000
20
-100.000000
40
17.716535
50
0.000000
51
360.000000
73
1
97
0
75
0
76
0
98
1
10
0.0
20
0.0
0
CIRCLE
5
3BE
100
AcDbEntity
8
DRILL
62
255
100
AcDbCircle
39
0.000039
10
2300.000000
20
-100.000000
30
0
40
17.716535
0
HATCH
5
3BF
100
AcDbEntity
8
DRILL
62
255
100
AcDbHatch
10
0.0
20
0.0
30
0.0
210
0.0
220
0.0
230
1.0
2
SOLID
70
1
71
0
91
1
92
1
93
1
72
2
10
5770.000000
20
-130.000000
40
11.811024
50
0.000000
51
360.000000
73
1
97
0
75
0
76
0
98
1
10
0.0
20
0.0
0
CIRCLE
5
3C0
100
AcDbEntity
8
DRILL
62
255
100
AcDbCircle
39
0.000039
10
5770.000000
20
-130.000000
30
0
40
11.811024
0
HATCH
5
3C1
100
AcDbEntity
8
DRILL
62
255
100
AcDbHatch
10
0.0
20
0.0
30
0.0
210
0.0
220
0.0
230
1.0
2
SOLID
70
1
71
0
91
1
92
1
93
1
72
2
10
7420.000000
20
-20.000000
40
27.500000
50
0.000000
51
360.000000
73
1
97
0
75
0
76
0
98
1
10
0.0
20
0.0
0
CIRCLE
5
3C2
100
AcDbEntity
8
DRILL
62
255
100
AcDbCircle
39
0.000039
10
7420.000000
20
-20.000000
30
0
40
27.500000
0
HATCH
5
3C3
100
AcDbEntity
8
DRILL
62
255
100
AcDbHatch
10
0.0
20
0.0
30
0.0
210
0.0
220
0.0
230
1.0
2
SOLID
70
1
71
0
91
1
92
1
93
1
72
2
10
7947.559055
20
-20.000000
40
27.500000
50
0.000000
51
360.000000
73
1
97
0
75
0
76
0
98
1
10
0.0
20
0.0
0
CIRCLE
5
3C4
100
AcDbEntity
8
DRILL
62
255
100
AcDbCircle
39
0.000039
10
7947.559055
20
-20.000000
30
0
40
27.500000
0
HATCH
5
3C5
100
AcDbEntity
8
DRILL
62
255
100
AcDbHatch
10
0.0
20
0.0
30
0.0
210
0.0
220
0.0
230
1.0
2
SOLID
70
1
71
0
91
1
92
1
93
1
72
2
10
6811.811024
20
120.000000
40
17.716535
50
0.000000
51
360.000000
73
1
97
0
75
0
76
0
98
1
10
0.0
20
0.0
0
CIRCLE
5
3C6
100
AcDbEntity
8
DRILL
62
255
100
AcDbCircle
39
0.000039
10
6811.811024
20
120.000000
30
0
40
17.716535
0
HATCH
5
3C7
100
AcDbEntity
8
DRILL
62
255
100
AcDbHatch
10
0.0
20
0.0
30
0.0
210
0.0
220
0.0
230
1.0
2
SOLID
70
1
71
0
91
1
92
1
93
1
72
2
10
6300.000000
20
120.000000
40
17.716535
50
0.000000
51
360.000000
73
1
97
0
75
0
76
0
98
1
10
0.0
20
0.0
0
CIRCLE
5
3C8
100
AcDbEntity
8
DRILL
62
255
100
AcDbCircle
39
0.000039
10
6300.000000
20
120.000000
30
0
40
17.716535
0
HATCH
5
3C9
100
AcDbEntity
8
DRILL
62
255
100
AcDbHatch
10
0.0
20
0.0
30
0.0
210
0.0
220
0.0
230
1.0
2
SOLID
70
1
71
0
91
1
92
1
93
1
72
2
10
3800.000000
20
-2727.559055
40
27.500000
50
0.000000
51
360.000000
73
1
97
0
75
0
76
0
98
1
10
0.0
20
0.0
0
CIRCLE
5
3CA
100
AcDbEntity
8
DRILL
62
255
100
AcDbCircle
39
0.000039
10
3800.000000
20
-2727.559055
30
0
40
27.500000
0
HATCH
5
3CB
100
AcDbEntity
8
DRILL
62
255
100
AcDbHatch
10
0.0
20
0.0
30
0.0
210
0.0
220
0.0
230
1.0
2
SOLID
70
1
71
0
91
1
92
1
93
1
72
2
10
3800.000000
20
-2200.000000
40
27.500000
50
0.000000
51
360.000000
73
1
97
0
75
0
76
0
98
1
10
0.0
20
0.0
0
CIRCLE
5
3CC
100
AcDbEntity
8
DRILL
62
255
100
AcDbCircle
39
0.000039
10
3800.000000
20
-2200.000000
30
0
40
27.500000
0
HATCH
5
3CD
100
AcDbEntity
8
DRILL
62
255
100
AcDbHatch
10
0.0
20
0.0
30
0.0
210
0.0
220
0.0
230
1.0
2
SOLID
70
1
71
0
91
1
92
1
93
1
72
2
10
4460.000000
20
-2727.559055
40
27.500000
50
0.000000
51
360.000000
73
1
97
0
75
0
76
0
98
1
10
0.0
20
0.0
0
CIRCLE
5
3CE
100
AcDbEntity
8
DRILL
62
255
100
AcDbCircle
39
0.000039
10
4460.000000
20
-2727.559055
30
0
40
27.500000
0
HATCH
5
3CF
100
AcDbEntity
8
DRILL
62
255
100
AcDbHatch
10
0.0
20
0.0
30
0.0
210
0.0
220
0.0
230
1.0
2
SOLID
70
1
71
0
91
1
92
1
93
1
72
2
10
4460.000000
20
-2200.000000
40
27.500000
50
0.000000
51
360.000000
73
1
97
0
75
0
76
0
98
1
10
0.0
20
0.0
0
CIRCLE
5
3D0
100
AcDbEntity
8
DRILL
62
255
100
AcDbCircle
39
0.000039
10
4460.000000
20
-2200.000000
30
0
40
27.500000
0
HATCH
5
3D1
100
AcDbEntity
8
DRILL
62
255
100
AcDbHatch
10
0.0
20
0.0
30
0.0
210
0.0
220
0.0
230
1.0
2
SOLID
70
1
71
0
91
1
92
1
93
1
72
2
10
3200.000000
20
-2340.000000
40
17.500000
50
0.000000
51
360.000000
73
1
97
0
75
0
76
0
98
1
10
0.0
20
0.0
0
CIRCLE
5
3D2
100
AcDbEntity
8
DRILL
62
255
100
AcDbCircle
39
0.000039
10
3200.000000
20
-2340.000000
30
0
40
17.500000
0
HATCH
5
3D3
100
AcDbEntity
8
DRILL
62
255
100
AcDbHatch
10
0.0
20
0.0
30
0.0
210
0.0
220
0.0
230
1.0
2
SOLID
70
1
71
0
91
1
92
1
93
1
72
2
10
3100.000000
20
-2240.000000
40
17.500000
50
0.000000
51
360.000000
73
1
97
0
75
0
76
0
98
1
10
0.0
20
0.0
0
CIRCLE
5
3D4
100
AcDbEntity
8
DRILL
62
255
100
AcDbCircle
39
0.000039
10
3100.000000
20
-2240.000000
30
0
40
17.500000
0
HATCH
5
3D5
100
AcDbEntity
8
DRILL
62
255
100
AcDbHatch
10
0.0
20
0.0
30
0.0
210
0.0
220
0.0
230
1.0
2
SOLID
70
1
71
0
91
1
92
1
93
1
72
2
10
3100.000000
20
-2440.000000
40
17.500000
50
0.000000
51
360.000000
73
1
97
0
75
0
76
0
98
1
10
0.0
20
0.0
0
CIRCLE
5
3D6
100
AcDbEntity
8
DRILL
62
255
100
AcDbCircle
39
0.000039
10
3100.000000
20
-2440.000000
30
0
40
17.500000
0
HATCH
5
3D7
100
AcDbEntity
8
DRILL
62
255
100
AcDbHatch
10
0.0
20
0.0
30
0.0
210
0.0
220
0.0
230
1.0
2
SOLID
70
1
71
0
91
1
92
1
93
1
72
2
10
2731.811024
20
-2420.000000
40
17.716535
50
0.000000
51
360.000000
73
1
97
0
75
0
76
0
98
1
10
0.0
20
0.0
0
CIRCLE
5
3D8
100
AcDbEntity
8
DRILL
62
255
100
AcDbCircle
39
0.000039
10
2731.811024
20
-2420.000000
30
0
40
17.716535
0
HATCH
5
3D9
100
AcDbEntity
8
DRILL
62
255
100
AcDbHatch
10
0.0
20
0.0
30
0.0
210
0.0
220
0.0
230
1.0
2
SOLID
70
1
71
0
91
1
92
1
93
1
72
2
10
2220.000000
20
-2420.000000
40
17.716535
50
0.000000
51
360.000000
73
1
97
0
75
0
76
0
98
1
10
0.0
20
0.0
0
CIRCLE
5
3DA
100
AcDbEntity
8
DRILL
62
255
100
AcDbCircle
39
0.000039
10
2220.000000
20
-2420.000000
30
0
40
17.716535
0
HATCH
5
3DB
100
AcDbEntity
8
DRILL
62
255
100
AcDbHatch
10
0.0
20
0.0
30
0.0
210
0.0
220
0.0
230
1.0
2
SOLID
70
1
71
0
91
1
92
1
93
1
72
2
10
5140.000000
20
-2260.000000
40
17.500000
50
0.000000
51
360.000000
73
1
97
0
75
0
76
0
98
1
10
0.0
20
0.0
0
CIRCLE
5
3DC
100
AcDbEntity
8
DRILL
62
255
100
AcDbCircle
39
0.000039
10
5140.000000
20
-2260.000000
30
0
40
17.500000
0
HATCH
5
3DD
100
AcDbEntity
8
DRILL
62
255
100
AcDbHatch
10
0.0
20
0.0
30
0.0
210
0.0
220
0.0
230
1.0
2
SOLID
70
1
71
0
91
1
92
1
93
1
72
2
10
5040.000000
20
-2360.000000
40
17.500000
50
0.000000
51
360.000000
73
1
97
0
75
0
76
0
98
1
10
0.0
20
0.0
0
CIRCLE
5
3DE
100
AcDbEntity
8
DRILL
62
255
100
AcDbCircle
39
0.000039
10
5040.000000
20
-2360.000000
30
0
40
17.500000
0
HATCH
5
3DF
100
AcDbEntity
8
DRILL
62
255
100
AcDbHatch
10
0.0
20
0.0
30
0.0
210
0.0
220
0.0
230
1.0
2
SOLID
70
1
71
0
91
1
92
1
93
1
72
2
10
5240.000000
20
-2360.000000
40
17.500000
50
0.000000
51
360.000000
73
1
97
0
75
0
76
0
98
1
10
0.0
20
0.0
0
CIRCLE
5
3E0
100
AcDbEntity
8
DRILL
62
255
100
AcDbCircle
39
0.000039
10
5240.000000
20
-2360.000000
30
0
40
17.500000
0
HATCH
5
3E1
100
AcDbEntity
8
DRILL
62
255
100
AcDbHatch
10
0.0
20
0.0
30
0.0
210
0.0
220
0.0
230
1.0
2
SOLID
70
1
71
0
91
1
92
1
93
1
72
2
10
6051.811024
20
-2360.000000
40
17.716535
50
0.000000
51
360.000000
73
1
97
0
75
0
76
0
98
1
10
0.0
20
0.0
0
CIRCLE
5
3E2
100
AcDbEntity
8
DRILL
62
255
100
AcDbCircle
39
0.000039
10
6051.811024
20
-2360.000000
30
0
40
17.716535
0
HATCH
5
3E3
100
AcDbEntity
8
DRILL
62
255
100
AcDbHatch
10
0.0
20
0.0
30
0.0
210
0.0
220
0.0
230
1.0
2
SOLID
70
1
71
0
91
1
92
1
93
1
72
2
10
5540.000000
20
-2360.000000
40
17.716535
50
0.000000
51
360.000000
73
1
97
0
75
0
76
0
98
1
10
0.0
20
0.0
0
CIRCLE
5
3E4
100
AcDbEntity
8
DRILL
62
255
100
AcDbCircle
39
0.000039
10
5540.000000
20
-2360.000000
30
0
40
17.716535
0
HATCH
5
3E5
100
AcDbEntity
8
DRILL
62
255
100
AcDbHatch
10
0.0
20
0.0
30
0.0
210
0.0
220
0.0
230
1.0
2
SOLID
70
1
71
0
91
1
92
1
93
1
72
2
10
552.440945
20
-2420.000000
40
27.500000
50
0.000000
51
360.000000
73
1
97
0
75
0
76
0
98
1
10
0.0
20
0.0
0
CIRCLE
5
3E6
100
AcDbEntity
8
DRILL
62
255
100
AcDbCircle
39
0.000039
10
552.440945
20
-2420.000000
30
0
40
27.500000
0
HATCH
5
3E7
100
AcDbEntity
8
DRILL
62
255
100
AcDbHatch
10
0.0
20
0.0
30
0.0
210
0.0
220
0.0
230
1.0
2
SOLID
70
1
71
0
91
1
92
1
93
1
72
2
10
1080.000000
20
-2420.000000
40
27.500000
50
0.000000
51
360.000000
73
1
97
0
75
0
76
0
98
1
10
0.0
20
0.0
0
CIRCLE
5
3E8
100
AcDbEntity
8
DRILL
62
255
100
AcDbCircle
39
0.000039
10
1080.000000
20
-2420.000000
30
0
40
27.500000
0
HATCH
5
3E9
100
AcDbEntity
8
DRILL
62
255
100
AcDbHatch
10
0.0
20
0.0
30
0.0
210
0.0
220
0.0
230
1.0
2
SOLID
70
1
71
0
91
1
92
1
93
1
72
2
10
2091.811024
20
-2300.000000
40
17.716535
50
0.000000
51
360.000000
73
1
97
0
75
0
76
0
98
1
10
0.0
20
0.0
0
CIRCLE
5
3EA
100
AcDbEntity
8
DRILL
62
255
100
AcDbCircle
39
0.000039
10
2091.811024
20
-2300.000000
30
0
40
17.716535
0
HATCH
5
3EB
100
AcDbEntity
8
DRILL
62
255
100
AcDbHatch
10
0.0
20
0.0
30
0.0
210
0.0
220
0.0
230
1.0
2
SOLID
70
1
71
0
91
1
92
1
93
1
72
2
10
1580.000000
20
-2300.000000
40
17.716535
50
0.000000
51
360.000000
73
1
97
0
75
0
76
0
98
1
10
0.0
20
0.0
0
CIRCLE
5
3EC
100
AcDbEntity
8
DRILL
62
255
100
AcDbCircle
39
0.000039
10
1580.000000
20
-2300.000000
30
0
40
17.716535
0
HATCH
5
3ED
100
AcDbEntity
8
DRILL
62
255
100
AcDbHatch
10
0.0
20
0.0
30
0.0
210
0.0
220
0.0
230
1.0
2
SOLID
70
1
71
0
91
1
92
1
93
1
72
2
10
2091.811024
20
-2060.000000
40
17.716535
50
0.000000
51
360.000000
73
1
97
0
75
0
76
0
98
1
10
0.0
20
0.0
0
CIRCLE
5
3EE
100
AcDbEntity
8
DRILL
62
255
100
AcDbCircle
39
0.000039
10
2091.811024
20
-2060.000000
30
0
40
17.716535
0
HATCH
5
3EF
100
AcDbEntity
8
DRILL
62
255
100
AcDbHatch
10
0.0
20
0.0
30
0.0
210
0.0
220
0.0
230
1.0
2
SOLID
70
1
71
0
91
1
92
1
93
1
72
2
10
1580.000000
20
-2060.000000
40
17.716535
50
0.000000
51
360.000000
73
1
97
0
75
0
76
0
98
1
10
0.0
20
0.0
0
CIRCLE
5
3F0
100
AcDbEntity
8
DRILL
62
255
100
AcDbCircle
39
0.000039
10
1580.000000
20
-2060.000000
30
0
40
17.716535
0
HATCH
5
3F1
100
AcDbEntity
8
DRILL
62
255
100
AcDbHatch
10
0.0
20
0.0
30
0.0
210
0.0
220
0.0
230
1.0
2
SOLID
70
1
71
0
91
1
92
1
93
1
72
2
10
1260.000039
20
-1805.833386
40
17.500000
50
0.000000
51
360.000000
73
1
97
0
75
0
76
0
98
1
10
0.0
20
0.0
0
CIRCLE
5
3F2
100
AcDbEntity
8
DRILL
62
255
100
AcDbCircle
39
0.000039
10
1260.000039
20
-1805.833386
30
0
40
17.500000
0
HATCH
5
3F3
100
AcDbEntity
8
DRILL
62
255
100
AcDbHatch
10
0.0
20
0.0
30
0.0
210
0.0
220
0.0
230
1.0
2
SOLID
70
1
71
0
91
1
92
1
93
1
72
2
10
1260.000039
20
-1671.666732
40
17.500000
50
0.000000
51
360.000000
73
1
97
0
75
0
76
0
98
1
10
0.0
20
0.0
0
CIRCLE
5
3F4
100
AcDbEntity
8
DRILL
62
255
100
AcDbCircle
39
0.000039
10
1260.000039
20
-1671.666732
30
0
40
17.500000
0
HATCH
5
3F5
100
AcDbEntity
8
DRILL
62
255
100
AcDbHatch
10
0.0
20
0.0
30
0.0
210
0.0
220
0.0
230
1.0
2
SOLID
70
1
71
0
91
1
92
1
93
1
72
2
10
1358.333346
20
-1739.166732
40
17.500000
50
0.000000
51
360.000000
73
1
97
0
75
0
76
0
98
1
10
0.0
20
0.0
0
CIRCLE
5
3F6
100
AcDbEntity
8
DRILL
62
255
100
AcDbCircle
39
0.000039
10
1358.333346
20
-1739.166732
30
0
40
17.500000
0
HATCH
5
3F7
100
AcDbEntity
8
DRILL
62
255
100
AcDbHatch
10
0.0
20
0.0
30
0.0
210
0.0
220
0.0
230
1.0
2
SOLID
70
1
71
0
91
1
92
1
93
1
72
2
10
1260.000039
20
-1940.000039
40
17.500000
50
0.000000
51
360.000000
73
1
97
0
75
0
76
0
98
1
10
0.0
20
0.0
0
CIRCLE
5
3F8
100
AcDbEntity
8
DRILL
62
255
100
AcDbCircle
39
0.000039
10
1260.000039
20
-1940.000039
30
0
40
17.500000
0
HATCH
5
3F9
100
AcDbEntity
8
DRILL
62
255
100
AcDbHatch
10
0.0
20
0.0
30
0.0
210
0.0
220
0.0
230
1.0
2
SOLID
70
1
71
0
91
1
92
1
93
1
72
2
10
1358.333346
20
-1872.500039
40
17.500000
50
0.000000
51
360.000000
73
1
97
0
75
0
76
0
98
1
10
0.0
20
0.0
0
CIRCLE
5
3FA
100
AcDbEntity
8
DRILL
62
255
100
AcDbCircle
39
0.000039
10
1358.333346
20
-1872.500039
30
0
40
17.500000
0
HATCH
5
3FB
100
AcDbEntity
8
DRILL
62
255
100
AcDbHatch
10
0.0
20
0.0
30
0.0
210
0.0
220
0.0
230
1.0
2
SOLID
70
1
71
0
91
1
92
1
93
1
72
2
10
669.166693
20
-1805.833386
40
59.165000
50
0.000000
51
360.000000
73
1
97
0
75
0
76
0
98
1
10
0.0
20
0.0
0
CIRCLE
5
3FC
100
AcDbEntity
8
DRILL
62
255
100
AcDbCircle
39
0.000039
10
669.166693
20
-1805.833386
30
0
40
59.165000
0
HATCH
5
3FD
100
AcDbEntity
8
DRILL
62
255
100
AcDbHatch
10
0.0
20
0.0
30
0.0
210
0.0
220
0.0
230
1.0
2
SOLID
70
1
71
0
91
1
92
1
93
1
72
2
10
3800.000000
20
-1987.559055
40
27.500000
50
0.000000
51
360.000000
73
1
97
0
75
0
76
0
98
1
10
0.0
20
0.0
0
CIRCLE
5
3FE
100
AcDbEntity
8
DRILL
62
255
100
AcDbCircle
39
0.000039
10
3800.000000
20
-1987.559055
30
0
40
27.500000
0
HATCH
5
3FF
100
AcDbEntity
8
DRILL
62
255
100
AcDbHatch
10
0.0
20
0.0
30
0.0
210
0.0
220
0.0
230
1.0
2
SOLID
70
1
71
0
91
1
92
1
93
1
72
2
10
3800.000000
20
-1460.000000
40
27.500000
50
0.000000
51
360.000000
73
1
97
0
75
0
76
0
98
1
10
0.0
20
0.0
0
CIRCLE
5
400
100
AcDbEntity
8
DRILL
62
255
100
AcDbCircle
39
0.000039
10
3800.000000
20
-1460.000000
30
0
40
27.500000
0
HATCH
5
401
100
AcDbEntity
8
DRILL
62
255
100
AcDbHatch
10
0.0
20
0.0
30
0.0
210
0.0
220
0.0
230
1.0
2
SOLID
70
1
71
0
91
1
92
1
93
1
72
2
10
4460.000000
20
-1987.559055
40
27.500000
50
0.000000
51
360.000000
73
1
97
0
75
0
76
0
98
1
10
0.0
20
0.0
0
CIRCLE
5
402
100
AcDbEntity
8
DRILL
62
255
100
AcDbCircle
39
0.000039
10
4460.000000
20
-1987.559055
30
0
40
27.500000
0
HATCH
5
403
100
AcDbEntity
8
DRILL
62
255
100
AcDbHatch
10
0.0
20
0.0
30
0.0
210
0.0
220
0.0
230
1.0
2
SOLID
70
1
71
0
91
1
92
1
93
1
72
2
10
4460.000000
20
-1460.000000
40
27.500000
50
0.000000
51
360.000000
73
1
97
0
75
0
76
0
98
1
10
0.0
20
0.0
0
CIRCLE
5
404
100
AcDbEntity
8
DRILL
62
255
100
AcDbCircle
39
0.000039
10
4460.000000
20
-1460.000000
30
0
40
27.500000
0
HATCH
5
405
100
AcDbEntity
8
DRILL
62
255
100
AcDbHatch
10
0.0
20
0.0
30
0.0
210
0.0
220
0.0
230
1.0
2
SOLID
70
1
71
0
91
1
92
1
93
1
72
2
10
6720.000000
20
-2010.000000
40
11.811024
50
0.000000
51
360.000000
73
1
97
0
75
0
76
0
98
1
10
0.0
20
0.0
0
CIRCLE
5
406
100
AcDbEntity
8
DRILL
62
255
100
AcDbCircle
39
0.000039
10
6720.000000
20
-2010.000000
30
0
40
11.811024
0
HATCH
5
407
100
AcDbEntity
8
DRILL
62
255
100
AcDbHatch
10
0.0
20
0.0
30
0.0
210
0.0
220
0.0
230
1.0
2
SOLID
70
1
71
0
91
1
92
1
93
1
72
2
10
7259.999961
20
-2008.333268
40
17.500000
50
0.000000
51
360.000000
73
1
97
0
75
0
76
0
98
1
10
0.0
20
0.0
0
CIRCLE
5
408
100
AcDbEntity
8
DRILL
62
255
100
AcDbCircle
39
0.000039
10
7259.999961
20
-2008.333268
30
0
40
17.500000
0
HATCH
5
409
100
AcDbEntity
8
DRILL
62
255
100
AcDbHatch
10
0.0
20
0.0
30
0.0
210
0.0
220
0.0
230
1.0
2
SOLID
70
1
71
0
91
1
92
1
93
1
72
2
10
7161.666654
20
-1940.833268
40
17.500000
50
0.000000
51
360.000000
73
1
97
0
75
0
76
0
98
1
10
0.0
20
0.0
0
CIRCLE
5
40A
100
AcDbEntity
8
DRILL
62
255
100
AcDbCircle
39
0.000039
10
7161.666654
20
-1940.833268
30
0
40
17.500000
0
HATCH
5
40B
100
AcDbEntity
8
DRILL
62
255
100
AcDbHatch
10
0.0
20
0.0
30
0.0
210
0.0
220
0.0
230
1.0
2
SOLID
70
1
71
0
91
1
92
1
93
1
72
2
10
7259.999961
20
-1739.999961
40
17.500000
50
0.000000
51
360.000000
73
1
97
0
75
0
76
0
98
1
10
0.0
20
0.0
0
CIRCLE
5
40C
100
AcDbEntity
8
DRILL
62
255
100
AcDbCircle
39
0.000039
10
7259.999961
20
-1739.999961
30
0
40
17.500000
0
HATCH
5
40D
100
AcDbEntity
8
DRILL
62
255
100
AcDbHatch
10
0.0
20
0.0
30
0.0
210
0.0
220
0.0
230
1.0
2
SOLID
70
1
71
0
91
1
92
1
93
1
72
2
10
7161.666654
20
-1807.499961
40
17.500000
50
0.000000
51
360.000000
73
1
97
0
75
0
76
0
98
1
10
0.0
20
0.0
0
CIRCLE
5
40E
100
AcDbEntity
8
DRILL
62
255
100
AcDbCircle
39
0.000039
10
7161.666654
20
-1807.499961
30
0
40
17.500000
0
HATCH
5
40F
100
AcDbEntity
8
DRILL
62
255
100
AcDbHatch
10
0.0
20
0.0
30
0.0
210
0.0
220
0.0
230
1.0
2
SOLID
70
1
71
0
91
1
92
1
93
1
72
2
10
7259.999961
20
-1874.166614
40
17.500000
50
0.000000
51
360.000000
73
1
97
0
75
0
76
0
98
1
10
0.0
20
0.0
0
CIRCLE
5
410
100
AcDbEntity
8
DRILL
62
255
100
AcDbCircle
39
0.000039
10
7259.999961
20
-1874.166614
30
0
40
17.500000
0
HATCH
5
411
100
AcDbEntity
8
DRILL
62
255
100
AcDbHatch
10
0.0
20
0.0
30
0.0
210
0.0
220
0.0
230
1.0
2
SOLID
70
1
71
0
91
1
92
1
93
1
72
2
10
7850.833307
20
-1874.166614
40
59.165000
50
0.000000
51
360.000000
73
1
97
0
75
0
76
0
98
1
10
0.0
20
0.0
0
CIRCLE
5
412
100
AcDbEntity
8
DRILL
62
255
100
AcDbCircle
39
0.000039
10
7850.833307
20
-1874.166614
30
0
40
59.165000
0
HATCH
5
413
100
AcDbEntity
8
DRILL
62
255
100
AcDbHatch
10
0.0
20
0.0
30
0.0
210
0.0
220
0.0
230
1.0
2
SOLID
70
1
71
0
91
1
92
1
93
1
72
2
10
3080.000000
20
-1660.000000
40
17.500000
50
0.000000
51
360.000000
73
1
97
0
75
0
76
0
98
1
10
0.0
20
0.0
0
CIRCLE
5
414
100
AcDbEntity
8
DRILL
62
255
100
AcDbCircle
39
0.000039
10
3080.000000
20
-1660.000000
30
0
40
17.500000
0
HATCH
5
415
100
AcDbEntity
8
DRILL
62
255
100
AcDbHatch
10
0.0
20
0.0
30
0.0
210
0.0
220
0.0
230
1.0
2
SOLID
70
1
71
0
91
1
92
1
93
1
72
2
10
2980.000000
20
-1760.000000
40
17.500000
50
0.000000
51
360.000000
73
1
97
0
75
0
76
0
98
1
10
0.0
20
0.0
0
CIRCLE
5
416
100
AcDbEntity
8
DRILL
62
255
100
AcDbCircle
39
0.000039
10
2980.000000
20
-1760.000000
30
0
40
17.500000
0
HATCH
5
417
100
AcDbEntity
8
DRILL
62
255
100
AcDbHatch
10
0.0
20
0.0
30
0.0
210
0.0
220
0.0
230
1.0
2
SOLID
70
1
71
0
91
1
92
1
93
1
72
2
10
3180.000000
20
-1760.000000
40
17.500000
50
0.000000
51
360.000000
73
1
97
0
75
0
76
0
98
1
10
0.0
20
0.0
0
CIRCLE
5
418
100
AcDbEntity
8
DRILL
62
255
100
AcDbCircle
39
0.000039
10
3180.000000
20
-1760.000000
30
0
40
17.500000
0
HATCH
5
419
100
AcDbEntity
8
DRILL
62
255
100
AcDbHatch
10
0.0
20
0.0
30
0.0
210
0.0
220
0.0
230
1.0
2
SOLID
70
1
71
0
91
1
92
1
93
1
72
2
10
6071.811024
20
-1860.000000
40
17.716535
50
0.000000
51
360.000000
73
1
97
0
75
0
76
0
98
1
10
0.0
20
0.0
0
CIRCLE
5
41A
100
AcDbEntity
8
DRILL
62
255
100
AcDbCircle
39
0.000039
10
6071.811024
20
-1860.000000
30
0
40
17.716535
0
HATCH
5
41B
100
AcDbEntity
8
DRILL
62
255
100
AcDbHatch
10
0.0
20
0.0
30
0.0
210
0.0
220
0.0
230
1.0
2
SOLID
70
1
71
0
91
1
92
1
93
1
72
2
10
5560.000000
20
-1860.000000
40
17.716535
50
0.000000
51
360.000000
73
1
97
0
75
0
76
0
98
1
10
0.0
20
0.0
0
CIRCLE
5
41C
100
AcDbEntity
8
DRILL
62
255
100
AcDbCircle
39
0.000039
10
5560.000000
20
-1860.000000
30
0
40
17.716535
0
HATCH
5
41D
100
AcDbEntity
8
DRILL
62
255
100
AcDbHatch
10
0.0
20
0.0
30
0.0
210
0.0
220
0.0
230
1.0
2
SOLID
70
1
71
0
91
1
92
1
93
1
72
2
10
5060.000000
20
-1700.000000
40
17.500000
50
0.000000
51
360.000000
73
1
97
0
75
0
76
0
98
1
10
0.0
20
0.0
0
CIRCLE
5
41E
100
AcDbEntity
8
DRILL
62
255
100
AcDbCircle
39
0.000039
10
5060.000000
20
-1700.000000
30
0
40
17.500000
0
HATCH
5
41F
100
AcDbEntity
8
DRILL
62
255
100
AcDbHatch
10
0.0
20
0.0
30
0.0
210
0.0
220
0.0
230
1.0
2
SOLID
70
1
71
0
91
1
92
1
93
1
72
2
10
5160.000000
20
-1600.000000
40
17.500000
50
0.000000
51
360.000000
73
1
97
0
75
0
76
0
98
1
10
0.0
20
0.0
0
CIRCLE
5
420
100
AcDbEntity
8
DRILL
62
255
100
AcDbCircle
39
0.000039
10
5160.000000
20
-1600.000000
30
0
40
17.500000
0
HATCH
5
421
100
AcDbEntity
8
DRILL
62
255
100
AcDbHatch
10
0.0
20
0.0
30
0.0
210
0.0
220
0.0
230
1.0
2
SOLID
70
1
71
0
91
1
92
1
93
1
72
2
10
5260.000000
20
-1700.000000
40
17.500000
50
0.000000
51
360.000000
73
1
97
0
75
0
76
0
98
1
10
0.0
20
0.0
0
CIRCLE
5
422
100
AcDbEntity
8
DRILL
62
255
100
AcDbCircle
39
0.000039
10
5260.000000
20
-1700.000000
30
0
40
17.500000
0
HATCH
5
423
100
AcDbEntity
8
DRILL
62
255
100
AcDbHatch
10
0.0
20
0.0
30
0.0
210
0.0
220
0.0
230
1.0
2
SOLID
70
1
71
0
91
1
92
1
93
1
72
2
10
6811.811024
20
-1660.000000
40
17.716535
50
0.000000
51
360.000000
73
1
97
0
75
0
76
0
98
1
10
0.0
20
0.0
0
CIRCLE
5
424
100
AcDbEntity
8
DRILL
62
255
100
AcDbCircle
39
0.000039
10
6811.811024
20
-1660.000000
30
0
40
17.716535
0
HATCH
5
425
100
AcDbEntity
8
DRILL
62
255
100
AcDbHatch
10
0.0
20
0.0
30
0.0
210
0.0
220
0.0
230
1.0
2
SOLID
70
1
71
0
91
1
92
1
93
1
72
2
10
6300.000000
20
-1660.000000
40
17.716535
50
0.000000
51
360.000000
73
1
97
0
75
0
76
0
98
1
10
0.0
20
0.0
0
CIRCLE
5
426
100
AcDbEntity
8
DRILL
62
255
100
AcDbCircle
39
0.000039
10
6300.000000
20
-1660.000000
30
0
40
17.716535
0
HATCH
5
427
100
AcDbEntity
8
DRILL
62
255
100
AcDbHatch
10
0.0
20
0.0
30
0.0
210
0.0
220
0.0
230
1.0
2
SOLID
70
1
71
0
91
1
92
1
93
1
72
2
10
2831.811024
20
-1640.000000
40
17.716535
50
0.000000
51
360.000000
73
1
97
0
75
0
76
0
98
1
10
0.0
20
0.0
0
CIRCLE
5
428
100
AcDbEntity
8
DRILL
62
255
100
AcDbCircle
39
0.000039
10
2831.811024
20
-1640.000000
30
0
40
17.716535
0
HATCH
5
429
100
AcDbEntity
8
DRILL
62
255
100
AcDbHatch
10
0.0
20
0.0
30
0.0
210
0.0
220
0.0
230
1.0
2
SOLID
70
1
71
0
91
1
92
1
93
1
72
2
10
2320.000000
20
-1640.000000
40
17.716535
50
0.000000
51
360.000000
73
1
97
0
75
0
76
0
98
1
10
0.0
20
0.0
0
CIRCLE
5
42A
100
AcDbEntity
8
DRILL
62
255
100
AcDbCircle
39
0.000039
10
2320.000000
20
-1640.000000
30
0
40
17.716535
0
HATCH
5
42B
100
AcDbEntity
8
DRILL
62
255
100
AcDbHatch
10
0.0
20
0.0
30
0.0
210
0.0
220
0.0
230
1.0
2
SOLID
70
1
71
0
91
1
92
1
93
1
72
2
10
5790.000000
20
-1670.000000
40
11.811024
50
0.000000
51
360.000000
73
1
97
0
75
0
76
0
98
1
10
0.0
20
0.0
0
CIRCLE
5
42C
100
AcDbEntity
8
DRILL
62
255
100
AcDbCircle
39
0.000039
10
5790.000000
20
-1670.000000
30
0
40
11.811024
0
HATCH
5
42D
100
AcDbEntity
8
DRILL
62
255
100
AcDbHatch
10
0.0
20
0.0
30
0.0
210
0.0
220
0.0
230
1.0
2
SOLID
70
1
71
0
91
1
92
1
93
1
72
2
10
7440.000000
20
-1560.000000
40
27.500000
50
0.000000
51
360.000000
73
1
97
0
75
0
76
0
98
1
10
0.0
20
0.0
0
CIRCLE
5
42E
100
AcDbEntity
8
DRILL
62
255
100
AcDbCircle
39
0.000039
10
7440.000000
20
-1560.000000
30
0
40
27.500000
0
HATCH
5
42F
100
AcDbEntity
8
DRILL
62
255
100
AcDbHatch
10
0.0
20
0.0
30
0.0
210
0.0
220
0.0
230
1.0
2
SOLID
70
1
71
0
91
1
92
1
93
1
72
2
10
7967.559055
20
-1560.000000
40
27.500000
50
0.000000
51
360.000000
73
1
97
0
75
0
76
0
98
1
10
0.0
20
0.0
0
CIRCLE
5
430
100
AcDbEntity
8
DRILL
62
255
100
AcDbCircle
39
0.000039
10
7967.559055
20
-1560.000000
30
0
40
27.500000
0
HATCH
5
431
100
AcDbEntity
8
DRILL
62
255
100
AcDbHatch
10
0.0
20
0.0
30
0.0
210
0.0
220
0.0
230
1.0
2
SOLID
70
1
71
0
91
1
92
1
93
1
72
2
10
6831.811024
20
-1420.000000
40
17.716535
50
0.000000
51
360.000000
73
1
97
0
75
0
76
0
98
1
10
0.0
20
0.0
0
CIRCLE
5
432
100
AcDbEntity
8
DRILL
62
255
100
AcDbCircle
39
0.000039
10
6831.811024
20
-1420.000000
30
0
40
17.716535
0
HATCH
5
433
100
AcDbEntity
8
DRILL
62
255
100
AcDbHatch
10
0.0
20
0.0
30
0.0
210
0.0
220
0.0
230
1.0
2
SOLID
70
1
71
0
91
1
92
1
93
1
72
2
10
6320.000000
20
-1420.000000
40
17.716535
50
0.000000
51
360.000000
73
1
97
0
75
0
76
0
98
1
10
0.0
20
0.0
0
CIRCLE
5
434
100
AcDbEntity
8
DRILL
62
255
100
AcDbCircle
39
0.000039
10
6320.000000
20
-1420.000000
30
0
40
17.716535
0
HATCH
5
435
100
AcDbEntity
8
DRILL
62
255
100
AcDbHatch
10
0.0
20
0.0
30
0.0
210
0.0
220
0.0
230
1.0
2
SOLID
70
1
71
0
91
1
92
1
93
1
72
2
10
4060.000000
20
-2200.000000
40
19.585000
50
0.000000
51
360.000000
73
1
97
0
75
0
76
0
98
1
10
0.0
20
0.0
0
CIRCLE
5
436
100
AcDbEntity
8
DRILL
62
255
100
AcDbCircle
39
0.000039
10
4060.000000
20
-2200.000000
30
0
40
19.585000
0
HATCH
5
437
100
AcDbEntity
8
DRILL
62
255
100
AcDbHatch
10
0.0
20
0.0
30
0.0
210
0.0
220
0.0
230
1.0
2
SOLID
70
1
71
0
91
1
92
1
93
1
72
2
10
4160.000000
20
-2200.000000
40
17.500000
50
0.000000
51
360.000000
73
1
97
0
75
0
76
0
98
1
10
0.0
20
0.0
0
CIRCLE
5
438
100
AcDbEntity
8
DRILL
62
255
100
AcDbCircle
39
0.000039
10
4160.000000
20
-2200.000000
30
0
40
17.500000
0
HATCH
5
439
100
AcDbEntity
8
DRILL
62
255
100
AcDbHatch
10
0.0
20
0.0
30
0.0
210
0.0
220
0.0
230
1.0
2
SOLID
70
1
71
0
91
1
92
1
93
1
72
2
10
400.000000
20
-1740.000000
40
17.500000
50
0.000000
51
360.000000
73
1
97
0
75
0
76
0
98
1
10
0.0
20
0.0
0
CIRCLE
5
43A
100
AcDbEntity
8
DRILL
62
255
100
AcDbCircle
39
0.000039
10
400.000000
20
-1740.000000
30
0
40
17.500000
0
HATCH
5
43B
100
AcDbEntity
8
DRILL
62
255
100
AcDbHatch
10
0.0
20
0.0
30
0.0
210
0.0
220
0.0
230
1.0
2
SOLID
70
1
71
0
91
1
92
1
93
1
72
2
10
400.000000
20
-1640.000000
40
19.585000
50
0.000000
51
360.000000
73
1
97
0
75
0
76
0
98
1
10
0.0
20
0.0
0
CIRCLE
5
43C
100
AcDbEntity
8
DRILL
62
255
100
AcDbCircle
39
0.000039
10
400.000000
20
-1640.000000
30
0
40
19.585000
0
HATCH
5
43D
100
AcDbEntity
8
DRILL
62
255
100
AcDbHatch
10
0.0
20
0.0
30
0.0
210
0.0
220
0.0
230
1.0
2
SOLID
70
1
71
0
91
1
92
1
93
1
72
2
10
740.000000
20
-2120.000000
40
19.585000
50
0.000000
51
360.000000
73
1
97
0
75
0
76
0
98
1
10
0.0
20
0.0
0
CIRCLE
5
43E
100
AcDbEntity
8
DRILL
62
255
100
AcDbCircle
39
0.000039
10
740.000000
20
-2120.000000
30
0
40
19.585000
0
HATCH
5
43F
100
AcDbEntity
8
DRILL
62
255
100
AcDbHatch
10
0.0
20
0.0
30
0.0
210
0.0
220
0.0
230
1.0
2
SOLID
70
1
71
0
91
1
92
1
93
1
72
2
10
840.000000
20
-2120.000000
40
17.500000
50
0.000000
51
360.000000
73
1
97
0
75
0
76
0
98
1
10
0.0
20
0.0
0
CIRCLE
5
440
100
AcDbEntity
8
DRILL
62
255
100
AcDbCircle
39
0.000039
10
840.000000
20
-2120.000000
30
0
40
17.500000
0
HATCH
5
441
100
AcDbEntity
8
DRILL
62
255
100
AcDbHatch
10
0.0
20
0.0
30
0.0
210
0.0
220
0.0
230
1.0
2
SOLID
70
1
71
0
91
1
92
1
93
1
72
2
10
7740.000000
20
-2180.000000
40
17.500000
50
0.000000
51
360.000000
73
1
97
0
75
0
76
0
98
1
10
0.0
20
0.0
0
CIRCLE
5
442
100
AcDbEntity
8
DRILL
62
255
100
AcDbCircle
39
0.000039
10
7740.000000
20
-2180.000000
30
0
40
17.500000
0
HATCH
5
443
100
AcDbEntity
8
DRILL
62
255
100
AcDbHatch
10
0.0
20
0.0
30
0.0
210
0.0
220
0.0
230
1.0
2
SOLID
70
1
71
0
91
1
92
1
93
1
72
2
10
7640.000000
20
-2180.000000
40
19.585000
50
0.000000
51
360.000000
73
1
97
0
75
0
76
0
98
1
10
0.0
20
0.0
0
CIRCLE
5
444
100
AcDbEntity
8
DRILL
62
255
100
AcDbCircle
39
0.000039
10
7640.000000
20
-2180.000000
30
0
40
19.585000
0
HATCH
5
445
100
AcDbEntity
8
DRILL
62
255
100
AcDbHatch
10
0.0
20
0.0
30
0.0
210
0.0
220
0.0
230
1.0
2
SOLID
70
1
71
0
91
1
92
1
93
1
72
2
10
8080.000000
20
-1940.000000
40
17.500000
50
0.000000
51
360.000000
73
1
97
0
75
0
76
0
98
1
10
0.0
20
0.0
0
CIRCLE
5
446
100
AcDbEntity
8
DRILL
62
255
100
AcDbCircle
39
0.000039
10
8080.000000
20
-1940.000000
30
0
40
17.500000
0
HATCH
5
447
100
AcDbEntity
8
DRILL
62
255
100
AcDbHatch
10
0.0
20
0.0
30
0.0
210
0.0
220
0.0
230
1.0
2
SOLID
70
1
71
0
91
1
92
1
93
1
72
2
10
8080.000000
20
-1840.000000
40
19.585000
50
0.000000
51
360.000000
73
1
97
0
75
0
76
0
98
1
10
0.0
20
0.0
0
CIRCLE
5
448
100
AcDbEntity
8
DRILL
62
255
100
AcDbCircle
39
0.000039
10
8080.000000
20
-1840.000000
30
0
40
19.585000
0
HATCH
5
449
100
AcDbEntity
8
DRILL
62
255
100
AcDbHatch
10
0.0
20
0.0
30
0.0
210
0.0
220
0.0
230
1.0
2
SOLID
70
1
71
0
91
1
92
1
93
1
72
2
10
7720.000000
20
-640.000000
40
17.500000
50
0.000000
51
360.000000
73
1
97
0
75
0
76
0
98
1
10
0.0
20
0.0
0
CIRCLE
5
44A
100
AcDbEntity
8
DRILL
62
255
100
AcDbCircle
39
0.000039
10
7720.000000
20
-640.000000
30
0
40
17.500000
0
HATCH
5
44B
100
AcDbEntity
8
DRILL
62
255
100
AcDbHatch
10
0.0
20
0.0
30
0.0
210
0.0
220
0.0
230
1.0
2
SOLID
70
1
71
0
91
1
92
1
93
1
72
2
10
7620.000000
20
-640.000000
40
19.585000
50
0.000000
51
360.000000
73
1
97
0
75
0
76
0
98
1
10
0.0
20
0.0
0
CIRCLE
5
44C
100
AcDbEntity
8
DRILL
62
255
100
AcDbCircle
39
0.000039
10
7620.000000
20
-640.000000
30
0
40
19.585000
0
HATCH
5
44D
100
AcDbEntity
8
DRILL
62
255
100
AcDbHatch
10
0.0
20
0.0
30
0.0
210
0.0
220
0.0
230
1.0
2
SOLID
70
1
71
0
91
1
92
1
93
1
72
2
10
8060.000000
20
-400.000000
40
17.500000
50
0.000000
51
360.000000
73
1
97
0
75
0
76
0
98
1
10
0.0
20
0.0
0
CIRCLE
5
44E
100
AcDbEntity
8
DRILL
62
255
100
AcDbCircle
39
0.000039
10
8060.000000
20
-400.000000
30
0
40
17.500000
0
HATCH
5
44F
100
AcDbEntity
8
DRILL
62
255
100
AcDbHatch
10
0.0
20
0.0
30
0.0
210
0.0
220
0.0
230
1.0
2
SOLID
70
1
71
0
91
1
92
1
93
1
72
2
10
8060.000000
20
-300.000000
40
19.585000
50
0.000000
51
360.000000
73
1
97
0
75
0
76
0
98
1
10
0.0
20
0.0
0
CIRCLE
5
450
100
AcDbEntity
8
DRILL
62
255
100
AcDbCircle
39
0.000039
10
8060.000000
20
-300.000000
30
0
40
19.585000
0
HATCH
5
451
100
AcDbEntity
8
DRILL
62
255
100
AcDbHatch
10
0.0
20
0.0
30
0.0
210
0.0
220
0.0
230
1.0
2
SOLID
70
1
71
0
91
1
92
1
93
1
72
2
10
8060.000000
20
1140.000000
40
17.500000
50
0.000000
51
360.000000
73
1
97
0
75
0
76
0
98
1
10
0.0
20
0.0
0
CIRCLE
5
452
100
AcDbEntity
8
DRILL
62
255
100
AcDbCircle
39
0.000039
10
8060.000000
20
1140.000000
30
0
40
17.500000
0
HATCH
5
453
100
AcDbEntity
8
DRILL
62
255
100
AcDbHatch
10
0.0
20
0.0
30
0.0
210
0.0
220
0.0
230
1.0
2
SOLID
70
1
71
0
91
1
92
1
93
1
72
2
10
8060.000000
20
1240.000000
40
19.585000
50
0.000000
51
360.000000
73
1
97
0
75
0
76
0
98
1
10
0.0
20
0.0
0
CIRCLE
5
454
100
AcDbEntity
8
DRILL
62
255
100
AcDbCircle
39
0.000039
10
8060.000000
20
1240.000000
30
0
40
19.585000
0
HATCH
5
455
100
AcDbEntity
8
DRILL
62
255
100
AcDbHatch
10
0.0
20
0.0
30
0.0
210
0.0
220
0.0
230
1.0
2
SOLID
70
1
71
0
91
1
92
1
93
1
72
2
10
7720.000000
20
900.000000
40
17.500000
50
0.000000
51
360.000000
73
1
97
0
75
0
76
0
98
1
10
0.0
20
0.0
0
CIRCLE
5
456
100
AcDbEntity
8
DRILL
62
255
100
AcDbCircle
39
0.000039
10
7720.000000
20
900.000000
30
0
40
17.500000
0
HATCH
5
457
100
AcDbEntity
8
DRILL
62
255
100
AcDbHatch
10
0.0
20
0.0
30
0.0
210
0.0
220
0.0
230
1.0
2
SOLID
70
1
71
0
91
1
92
1
93
1
72
2
10
7620.000000
20
900.000000
40
19.585000
50
0.000000
51
360.000000
73
1
97
0
75
0
76
0
98
1
10
0.0
20
0.0
0
CIRCLE
5
458
100
AcDbEntity
8
DRILL
62
255
100
AcDbCircle
39
0.000039
10
7620.000000
20
900.000000
30
0
40
19.585000
0
HATCH
5
459
100
AcDbEntity
8
DRILL
62
255
100
AcDbHatch
10
0.0
20
0.0
30
0.0
210
0.0
220
0.0
230
1.0
2
SOLID
70
1
71
0
91
1
92
1
93
1
72
2
10
360.000000
20
2800.000000
40
17.500000
50
0.000000
51
360.000000
73
1
97
0
75
0
76
0
98
1
10
0.0
20
0.0
0
CIRCLE
5
45A
100
AcDbEntity
8
DRILL
62
255
100
AcDbCircle
39
0.000039
10
360.000000
20
2800.000000
30
0
40
17.500000
0
HATCH
5
45B
100
AcDbEntity
8
DRILL
62
255
100
AcDbHatch
10
0.0
20
0.0
30
0.0
210
0.0
220
0.0
230
1.0
2
SOLID
70
1
71
0
91
1
92
1
93
1
72
2
10
360.000000
20
2900.000000
40
19.585000
50
0.000000
51
360.000000
73
1
97
0
75
0
76
0
98
1
10
0.0
20
0.0
0
CIRCLE
5
45C
100
AcDbEntity
8
DRILL
62
255
100
AcDbCircle
39
0.000039
10
360.000000
20
2900.000000
30
0
40
19.585000
0
HATCH
5
45D
100
AcDbEntity
8
DRILL
62
255
100
AcDbHatch
10
0.0
20
0.0
30
0.0
210
0.0
220
0.0
230
1.0
2
SOLID
70
1
71
0
91
1
92
1
93
1
72
2
10
700.000000
20
2420.000000
40
19.585000
50
0.000000
51
360.000000
73
1
97
0
75
0
76
0
98
1
10
0.0
20
0.0
0
CIRCLE
5
45E
100
AcDbEntity
8
DRILL
62
255
100
AcDbCircle
39
0.000039
10
700.000000
20
2420.000000
30
0
40
19.585000
0
HATCH
5
45F
100
AcDbEntity
8
DRILL
62
255
100
AcDbHatch
10
0.0
20
0.0
30
0.0
210
0.0
220
0.0
230
1.0
2
SOLID
70
1
71
0
91
1
92
1
93
1
72
2
10
800.000000
20
2420.000000
40
17.500000
50
0.000000
51
360.000000
73
1
97
0
75
0
76
0
98
1
10
0.0
20
0.0
0
CIRCLE
5
460
100
AcDbEntity
8
DRILL
62
255
100
AcDbCircle
39
0.000039
10
800.000000
20
2420.000000
30
0
40
17.500000
0
HATCH
5
461
100
AcDbEntity
8
DRILL
62
255
100
AcDbHatch
10
0.0
20
0.0
30
0.0
210
0.0
220
0.0
230
1.0
2
SOLID
70
1
71
0
91
1
92
1
93
1
72
2
10
7700.000000
20
2360.000000
40
17.500000
50
0.000000
51
360.000000
73
1
97
0
75
0
76
0
98
1
10
0.0
20
0.0
0
CIRCLE
5
462
100
AcDbEntity
8
DRILL
62
255
100
AcDbCircle
39
0.000039
10
7700.000000
20
2360.000000
30
0
40
17.500000
0
HATCH
5
463
100
AcDbEntity
8
DRILL
62
255
100
AcDbHatch
10
0.0
20
0.0
30
0.0
210
0.0
220
0.0
230
1.0
2
SOLID
70
1
71
0
91
1
92
1
93
1
72
2
10
7600.000000
20
2360.000000
40
19.585000
50
0.000000
51
360.000000
73
1
97
0
75
0
76
0
98
1
10
0.0
20
0.0
0
CIRCLE
5
464
100
AcDbEntity
8
DRILL
62
255
100
AcDbCircle
39
0.000039
10
7600.000000
20
2360.000000
30
0
40
19.585000
0
HATCH
5
465
100
AcDbEntity
8
DRILL
62
255
100
AcDbHatch
10
0.0
20
0.0
30
0.0
210
0.0
220
0.0
230
1.0
2
SOLID
70
1
71
0
91
1
92
1
93
1
72
2
10
8040.000000
20
2600.000000
40
17.500000
50
0.000000
51
360.000000
73
1
97
0
75
0
76
0
98
1
10
0.0
20
0.0
0
CIRCLE
5
466
100
AcDbEntity
8
DRILL
62
255
100
AcDbCircle
39
0.000039
10
8040.000000
20
2600.000000
30
0
40
17.500000
0
HATCH
5
467
100
AcDbEntity
8
DRILL
62
255
100
AcDbHatch
10
0.0
20
0.0
30
0.0
210
0.0
220
0.0
230
1.0
2
SOLID
70
1
71
0
91
1
92
1
93
1
72
2
10
8040.000000
20
2700.000000
40
19.585000
50
0.000000
51
360.000000
73
1
97
0
75
0
76
0
98
1
10
0.0
20
0.0
0
CIRCLE
5
468
100
AcDbEntity
8
DRILL
62
255
100
AcDbCircle
39
0.000039
10
8040.000000
20
2700.000000
30
0
40
19.585000
0
HATCH
5
469
100
AcDbEntity
8
DRILL
62
255
100
AcDbHatch
10
0.0
20
0.0
30
0.0
210
0.0
220
0.0
230
1.0
2
SOLID
70
1
71
0
91
1
92
1
93
1
72
2
10
400.000000
20
-1860.000000
40
17.500000
50
0.000000
51
360.000000
73
1
97
0
75
0
76
0
98
1
10
0.0
20
0.0
0
CIRCLE
5
46A
100
AcDbEntity
8
DRILL
62
255
100
AcDbCircle
39
0.000039
10
400.000000
20
-1860.000000
30
0
40
17.500000
0
HATCH
5
46B
100
AcDbEntity
8
DRILL
62
255
100
AcDbHatch
10
0.0
20
0.0
30
0.0
210
0.0
220
0.0
230
1.0
2
SOLID
70
1
71
0
91
1
92
1
93
1
72
2
10
400.000000
20
-1960.000000
40
19.585000
50
0.000000
51
360.000000
73
1
97
0
75
0
76
0
98
1
10
0.0
20
0.0
0
CIRCLE
5
46C
100
AcDbEntity
8
DRILL
62
255
100
AcDbCircle
39
0.000039
10
400.000000
20
-1960.000000
30
0
40
19.585000
0
HATCH
5
46D
100
AcDbEntity
8
DRILL
62
255
100
AcDbHatch
10
0.0
20
0.0
30
0.0
210
0.0
220
0.0
230
1.0
2
SOLID
70
1
71
0
91
1
92
1
93
1
72
2
10
380.000000
20
-320.000000
40
17.500000
50
0.000000
51
360.000000
73
1
97
0
75
0
76
0
98
1
10
0.0
20
0.0
0
CIRCLE
5
46E
100
AcDbEntity
8
DRILL
62
255
100
AcDbCircle
39
0.000039
10
380.000000
20
-320.000000
30
0
40
17.500000
0
HATCH
5
46F
100
AcDbEntity
8
DRILL
62
255
100
AcDbHatch
10
0.0
20
0.0
30
0.0
210
0.0
220
0.0
230
1.0
2
SOLID
70
1
71
0
91
1
92
1
93
1
72
2
10
380.000000
20
-420.000000
40
19.585000
50
0.000000
51
360.000000
73
1
97
0
75
0
76
0
98
1
10
0.0
20
0.0
0
CIRCLE
5
470
100
AcDbEntity
8
DRILL
62
255
100
AcDbCircle
39
0.000039
10
380.000000
20
-420.000000
30
0
40
19.585000
0
HATCH
5
471
100
AcDbEntity
8
DRILL
62
255
100
AcDbHatch
10
0.0
20
0.0
30
0.0
210
0.0
220
0.0
230
1.0
2
SOLID
70
1
71
0
91
1
92
1
93
1
72
2
10
380.000000
20
1220.000000
40
17.500000
50
0.000000
51
360.000000
73
1
97
0
75
0
76
0
98
1
10
0.0
20
0.0
0
CIRCLE
5
472
100
AcDbEntity
8
DRILL
62
255
100
AcDbCircle
39
0.000039
10
380.000000
20
1220.000000
30
0
40
17.500000
0
HATCH
5
473
100
AcDbEntity
8
DRILL
62
255
100
AcDbHatch
10
0.0
20
0.0
30
0.0
210
0.0
220
0.0
230
1.0
2
SOLID
70
1
71
0
91
1
92
1
93
1
72
2
10
380.000000
20
1120.000000
40
19.585000
50
0.000000
51
360.000000
73
1
97
0
75
0
76
0
98
1
10
0.0
20
0.0
0
CIRCLE
5
474
100
AcDbEntity
8
DRILL
62
255
100
AcDbCircle
39
0.000039
10
380.000000
20
1120.000000
30
0
40
19.585000
0
HATCH
5
475
100
AcDbEntity
8
DRILL
62
255
100
AcDbHatch
10
0.0
20
0.0
30
0.0
210
0.0
220
0.0
230
1.0
2
SOLID
70
1
71
0
91
1
92
1
93
1
72
2
10
360.000000
20
2680.000000
40
17.500000
50
0.000000
51
360.000000
73
1
97
0
75
0
76
0
98
1
10
0.0
20
0.0
0
CIRCLE
5
476
100
AcDbEntity
8
DRILL
62
255
100
AcDbCircle
39
0.000039
10
360.000000
20
2680.000000
30
0
40
17.500000
0
HATCH
5
477
100
AcDbEntity
8
DRILL
62
255
100
AcDbHatch
10
0.0
20
0.0
30
0.0
210
0.0
220
0.0
230
1.0
2
SOLID
70
1
71
0
91
1
92
1
93
1
72
2
10
360.000000
20
2580.000000
40
19.585000
50
0.000000
51
360.000000
73
1
97
0
75
0
76
0
98
1
10
0.0
20
0.0
0
CIRCLE
5
478
100
AcDbEntity
8
DRILL
62
255
100
AcDbCircle
39
0.000039
10
360.000000
20
2580.000000
30
0
40
19.585000
0
HATCH
5
479
100
AcDbEntity
8
DRILL
62
255
100
AcDbHatch
10
0.0
20
0.0
30
0.0
210
0.0
220
0.0
230
1.0
2
SOLID
70
1
71
0
91
1
92
1
93
1
72
2
10
8320.000000
20
3080.000000
40
118.110236
50
0.000000
51
360.000000
73
1
97
0
75
0
76
0
98
1
10
0.0
20
0.0
0
CIRCLE
5
47A
100
AcDbEntity
8
DRILL
62
255
100
AcDbCircle
39
0.000039
10
8320.000000
20
3080.000000
30
0
40
118.110236
0
HATCH
5
47B
100
AcDbEntity
8
DRILL
62
255
100
AcDbHatch
10
0.0
20
0.0
30
0.0
210
0.0
220
0.0
230
1.0
2
SOLID
70
1
71
0
91
1
92
1
93
1
72
2
10
8320.000000
20
-2590.000000
40
118.110236
50
0.000000
51
360.000000
73
1
97
0
75
0
76
0
98
1
10
0.0
20
0.0
0
CIRCLE
5
47C
100
AcDbEntity
8
DRILL
62
255
100
AcDbCircle
39
0.000039
10
8320.000000
20
-2590.000000
30
0
40
118.110236
0
HATCH
5
47D
100
AcDbEntity
8
DRILL
62
255
100
AcDbHatch
10
0.0
20
0.0
30
0.0
210
0.0
220
0.0
230
1.0
2
SOLID
70
1
71
0
91
1
92
1
93
1
72
2
10
130.000000
20
-2590.000000
40
118.110236
50
0.000000
51
360.000000
73
1
97
0
75
0
76
0
98
1
10
0.0
20
0.0
0
CIRCLE
5
47E
100
AcDbEntity
8
DRILL
62
255
100
AcDbCircle
39
0.000039
10
130.000000
20
-2590.000000
30
0
40
118.110236
0
HATCH
5
47F
100
AcDbEntity
8
DRILL
62
255
100
AcDbHatch
10
0.0
20
0.0
30
0.0
210
0.0
220
0.0
230
1.0
2
SOLID
70
1
71
0
91
1
92
1
93
1
72
2
10
130.000000
20
3080.000000
40
118.110236
50
0.000000
51
360.000000
73
1
97
0
75
0
76
0
98
1
10
0.0
20
0.0
0
CIRCLE
5
480
100
AcDbEntity
8
DRILL
62
255
100
AcDbCircle
39
0.000039
10
130.000000
20
3080.000000
30
0
40
118.110236
0
ENDSEC
0
SECTION
2
OBJECTS
0
DICTIONARY
5
481
100
AcDbDictionary
3
ACAD_GROUP
350
482
3
ACAD_LAYOUT
350
483
3
ACAD_MLINESTYLE
350
484
0
DICTIONARY
5
482
100
AcDbDictionary
0
DICTIONARY
5
483
100
AcDbDictionary
0
DICTIONARY
5
484
100
AcDbDictionary
3
STANDARD
350
485
0
MLINESTYLE
5
485
100
AcDbMlineStyle
2
Standard
70
0
3

62
256
51
90.0
52
90.0
71
2
49
0.5
62
256
6
BYLAYER
49
-0.5
62
256
6
BYLAYER
0
ENDSEC
0
EOF
